<?xml version="1.0" standalone="no"?>
<!DOCTYPE svg PUBLIC "-//W3C//DTD SVG 1.1//EN" "http://www.w3.org/Graphics/SVG/1.1/DTD/svg11.dtd" >
<svg>
<metadata>
Created by FontForge 20090914 at Fri Jun 11 19:41:12 2021
 By www-data
Copyright (c) 2010-2013, Sorkin Type Co (www.sorkintype.com) with Reserved Font Name 'Merriweather'
</metadata>
<defs>
<font id="Merriweather-Bold" horiz-adv-x="0" >
  <font-face 
    font-family="Merriweather"
    font-weight="700"
    font-stretch="normal"
    units-per-em="2048"
    panose-1="2 6 8 3 5 4 6 3 7 4"
    ascent="1638"
    descent="-410"
    x-height="1146"
    cap-height="1522"
    bbox="-276 -560 2959 2014.01"
    underline-thickness="96"
    underline-position="-74"
    unicode-range="U+0009-U+FEFF"
  />
<missing-glyph horiz-adv-x="1770" 
d="M177 1416h1416v-1416h-1416v1416zM559 252l324 353l337 -353l113 113l-348 343l348 334l-119 116l-328 -351l-333 352l-114 -116l344 -338l-343 -318z" />
    <glyph glyph-name=".notdef" horiz-adv-x="1770" 
d="M177 1416h1416v-1416h-1416v1416zM559 252l324 353l337 -353l113 113l-348 343l348 334l-119 116l-328 -351l-333 352l-114 -116l344 -338l-343 -318z" />
    <glyph glyph-name="HT" unicode="&#x9;" 
 />
    <glyph glyph-name="LF" unicode="&#xa;" 
 />
    <glyph glyph-name="nonmarkingreturn" unicode="&#xd;" 
 />
    <glyph glyph-name="DLE" 
 />
    <glyph glyph-name="DC1" 
 />
    <glyph glyph-name="DC2" 
 />
    <glyph glyph-name="DC3" 
 />
    <glyph glyph-name="DC4" 
 />
    <glyph glyph-name="RS" 
 />
    <glyph glyph-name="US" 
 />
    <glyph glyph-name="space" unicode=" " horiz-adv-x="643" 
 />
    <glyph glyph-name="exclam" unicode="!" horiz-adv-x="723" 
d="M181 1780h338l-73 -1236h-186zM167 143c0 26.667 5.3291 51.666 15.9961 74.999s25.334 43.666 44.001 60.999s40.334 30.833 65.001 40.5s51 14.5 79 14.5c32.667 0 60.334 -4.33301 83.001 -13s41.167 -20.334 55.5 -35.001s24.666 -31.667 30.999 -51s9.5 -40 9.5 -62
c0 -29.333 -5.16699 -55.666 -15.5 -78.999s-24.666 -43.166 -42.999 -59.499s-40.333 -29 -66 -38s-53.5 -13.5 -83.5 -13.5c-23.333 0 -45.666 3.66699 -66.999 11s-40 18 -56 32s-28.667 30.833 -38 50.5s-14 41.834 -14 66.501z" />
    <glyph glyph-name="quotedbl" unicode="&#x22;" horiz-adv-x="1317" 
d="M791 1684h297l-58 -775h-181zM229 1684h297l-58 -775h-181z" />
    <glyph glyph-name="numbersign" unicode="#" horiz-adv-x="1523" 
d="M370 354h-217l-2 167h231l32 348h-229v167h247l30 337h206l-30 -337h287l31 337h206l-31 -337h237v-167h-254l-30 -348h240l1 -167h-254l-33 -354h-206l33 354h-290l-34 -354h-208zM872 521l36 348h-288l-32 -348h284z" />
    <glyph glyph-name="dollar" unicode="$" horiz-adv-x="1370" 
d="M204 433l173.997 0.00390625l48 -244c21.333 -22.667 49.666 -41.167 84.999 -55.5s81.666 -21.5 138.999 -21.5c44 0 82 5.33301 114 16s58.333 25.5 79 44.5s35.834 41.833 45.501 68.5s14.5 55.667 14.5 87c0 34 -8.33301 65.167 -25 93.5s-40.167 55.5 -70.5 81.5
s-66.666 51.5 -108.999 76.5s-89.166 50.5 -140.499 76.5c-50 26.667 -96.833 55.5 -140.5 86.5s-82 66 -115 105s-59 83.667 -78 134s-28.5 108.5 -28.5 174.5c0 49.333 9.5 95.166 28.5 137.499s46.333 79.833 82 112.5s78.5 60 128.5 82s106 37 168 45v229h179v-224
c39.333 -2.66699 76.5 -7.16699 111.5 -13.5s67 -13.166 96 -20.499s54.333 -14.5 76 -21.5l52.5 -16.5l-13 -333h-169l-46 225c-15.333 15.333 -35.666 28.166 -60.999 38.499s-58.666 15.166 -99.999 14.499c-35.333 0 -67.833 -4.16699 -97.5 -12.5
s-55.167 -20.5 -76.5 -36.5s-37.833 -35.5 -49.5 -58.5s-17.5 -48.833 -17.5 -77.5c0 -39.333 10.5 -74.666 31.5 -105.999s48 -60 81 -86s69.667 -50 110 -72l117.5 -65c54 -30.667 104.333 -61.334 151 -92.001s87.334 -64.334 122.001 -101.001s62 -77.667 82 -123
s30 -98 30 -158c0 -54 -8.5 -105.833 -25.5 -155.5s-44 -94.5 -81 -134.5s-84.5 -73.5 -142.5 -100.5s-128.333 -44.167 -211 -51.5l-2 -239h-179l2 239c-46 4 -89.5 10.167 -130.5 18.5s-78.333 17.166 -112 26.499s-62.834 18.5 -87.501 27.5s-43.667 15.5 -57 19.5z" />
    <glyph glyph-name="percent" unicode="%" horiz-adv-x="2130" 
d="M1272 1538h199l-656 -1538h-199zM473 643c-60 0 -114.167 11.502 -162.5 34.502s-89.5 54.167 -123.5 93.5s-60 85.166 -78 137.499s-27 107.833 -27 166.5c0 72 11.667 136 35 192s54.833 103 94.5 141s85.167 67 136.5 87s105 30 161 30c68 0 126.667 -11.333 176 -34
s90 -53.834 122 -93.501s55.667 -86 71 -139s23 -109.833 23 -170.5c0 -72 -12 -135.667 -36 -191s-56 -101.833 -96 -139.5s-85.667 -66.167 -137 -85.5s-104.333 -29 -159 -29zM488 777.002c32 0 57.8379 8.83105 77.5049 26.498s35 40.834 46 69.501s18.333 61 22 97
s5.5 72.333 5.5 109s-1.83301 73.667 -5.5 111s-10.834 70.833 -21.501 100.5s-25.334 53.834 -44.001 72.501s-43.334 28 -74.001 28c-31.333 0 -56.833 -9 -76.5 -27s-34.834 -41.5 -45.501 -70.5s-17.834 -61.667 -21.501 -98s-5.5 -72.833 -5.5 -109.5
c0 -34.667 1.83301 -70.167 5.5 -106.5s10.667 -69.5 21 -99.5s24.833 -54.667 43.5 -74s43 -29 73 -29zM1191 458c0 72 11.668 136.002 35.001 192.002s54.833 103 94.5 141s85.167 67 136.5 87s105 30 161 30c68 0 126.667 -11.333 176 -34s90 -53.834 122 -93.501
s55.667 -86 71 -139s23 -109.833 23 -170.5c0 -72 -12 -135.667 -36 -191s-56 -101.833 -96 -139.5s-85.833 -66.167 -137.5 -85.5s-104.834 -29 -159.501 -29c-60 0 -114 11.5 -162 34.5s-89 54.167 -123 93.5s-60 85.166 -78 137.499s-27 107.833 -27 166.5z
M1454.01 469.002c0 -34 1.83301 -69.335 5.5 -106.002s10.667 -70 21 -100s24.833 -54.667 43.5 -74s43 -29 73 -29c32 0 57.833 8.83301 77.5 26.5s34.834 40.834 45.501 69.501s17.834 61 21.501 97s5.5 72.333 5.5 109s-1.83301 73.667 -5.5 111
s-10.667 70.833 -21 100.5s-24.833 53.834 -43.5 72.501s-43.334 28 -74.001 28c-32 0 -57.667 -9 -77 -27s-34.333 -41.5 -45 -70.5s-17.834 -61.667 -21.501 -98s-5.5 -72.833 -5.5 -109.5z" />
    <glyph glyph-name="ampersand" unicode="&#x26;" horiz-adv-x="1587" 
d="M100 373c0 47.333 8.1709 90.334 24.5039 129.001s38.166 73.5 65.499 104.5s58.833 58.167 94.5 81.5s72.5 43.666 110.5 60.999c-21.333 27.333 -42 56.5 -62 87.5s-37.5 63.667 -52.5 98s-27 70.333 -36 108s-13.5 76.5 -13.5 116.5
c0 53.333 11.167 103.166 33.5 149.499s53.333 86.5 93 120.5s86.667 60.833 141 80.5s113.5 29.5 177.5 29.5c68 0 126.333 -8.5 175 -25.5s88.667 -39.167 120 -66.5s54.5 -58.666 69.5 -93.999s22.5 -71 22.5 -107c0 -54.667 -8.16699 -103 -24.5 -145s-39 -80 -68 -114
s-63.667 -65.5 -104 -94.5s-84.5 -57.833 -132.5 -86.5l84.5 -100.5l97.5 -113.5l97.5 -109c31.667 -34.667 59.834 -64 84.501 -88l29 -28c24 39.333 40.833 84.833 50.5 136.5s13.167 113.834 10.5 186.501l-156 29v139h509v-139l-144 -29
c0 -53.333 -3.66699 -102.666 -11 -147.999s-17.333 -86.666 -30 -123.999s-27.5 -70.833 -44.5 -100.5s-34.5 -55.167 -52.5 -76.5c32 -27.333 65.667 -49.833 101 -67.5s75.666 -28.167 120.999 -31.5v-125c-8 -6 -20 -11 -36 -15s-33 -7.33301 -51 -10
s-35.333 -4.66699 -52 -6s-29.667 -2 -39 -2c-26.667 0 -51.334 1.33301 -74.001 4s-44.334 7.16699 -65.001 13.5s-41 14.666 -61 24.999s-41 23.166 -63 38.499c-27.333 -16.667 -56.666 -30.5 -87.999 -41.5s-62.5 -19.833 -93.5 -26.5s-61.333 -11.5 -91 -14.5
s-56.5 -4.5 -80.5 -4.5c-90.667 0 -172.334 8.33301 -245.001 25s-134.334 41.5 -185.001 74.5s-89.5 74.167 -116.5 123.5s-40.5 106.666 -40.5 171.999zM660.004 895.001c30.667 26.667 56.3301 53.667 76.9971 81s37.334 55.5 50.001 84.5s21.5 58.833 26.5 89.5
s7.5 62.667 7.5 96c0 16 -1.66699 34.333 -5 55s-10.166 40.334 -20.499 59.001s-25 34.5 -44 47.5s-44.167 19.5 -75.5 19.5c-23.333 0 -44.666 -5.16699 -63.999 -15.5s-36 -25 -50 -44s-24.833 -42 -32.5 -69s-11.5 -56.833 -11.5 -89.5c0 -34 4.83301 -66.333 14.5 -97
s21.5 -59.334 35.5 -86.001s29.333 -51 46 -73s32 -41.333 46 -58zM387 418.001c0 -38.667 6.49902 -76.334 19.499 -113.001s32.833 -69.334 59.5 -98.001s60 -51.667 100 -69s86.667 -26 140 -26c31.333 0 66.333 3.66699 105 11s76.334 20 113.001 38
c0 0.666992 -0.166992 1 -0.5 1s-0.5 0.333008 -0.5 1c-34 30.667 -70.167 66.334 -108.5 107.001l-116 126.5l-115 131.5l-105.5 124c-27.333 -31.333 -49.333 -65.666 -66 -102.999s-25 -81 -25 -131z" />
    <glyph glyph-name="quotesingle" unicode="'" horiz-adv-x="755" 
d="M229 1684h297l-58 -775h-181z" />
    <glyph glyph-name="parenleft" unicode="(" horiz-adv-x="904" 
d="M142 685c0 102.667 10.334 197.67 31.001 285.003s47.5 167.166 80.5 239.499s69.5 137 109.5 194s79.333 106.167 118 147.5s74.167 75 106.5 101s57.5 44.333 75.5 55l112 -92c-14 -9.33301 -32.5 -24.5 -55.5 -45.5s-47.667 -48.667 -74 -83s-53 -75.5 -80 -123.5
s-51.833 -103.167 -74.5 -165.5s-41.5 -132.333 -56.5 -210s-23.833 -163.5 -26.5 -257.5c-2.66699 -104 2.16602 -199.833 14.499 -287.5s29.5 -167.5 51.5 -239.5s47 -136.333 75 -193s56.167 -105.667 84.5 -147s55.333 -75.333 81 -102s46.834 -46 63.501 -58l-115 -90
c-14.667 9.33301 -37.667 26 -69 50s-66.333 56.167 -105 96.5s-78.5 89.166 -119.5 146.499s-78.333 124.166 -112 200.499s-61.334 162.5 -83.001 258.5s-32.5 202.667 -32.5 320z" />
    <glyph glyph-name="parenright" unicode=")" horiz-adv-x="904" 
d="M761 635c0 -102.667 -10.334 -197.67 -31.001 -285.003s-47.5 -167.166 -80.5 -239.499s-69.5 -137 -109.5 -194s-79.333 -106.167 -118 -147.5s-74.167 -75 -106.5 -101s-57.5 -44.333 -75.5 -55l-112 92c14 9.33301 32.5 24.5 55.5 45.5s47.667 48.667 74 83
s53 75.5 80 123.5s51.833 103.167 74.5 165.5s41.5 132.333 56.5 210s23.833 163.5 26.5 257.5c2.66699 104 -2.16602 199.833 -14.499 287.5s-29.5 167.5 -51.5 239.5s-47 136.333 -75 193s-56.167 105.667 -84.5 147s-55.333 75.333 -81 102s-46.834 46 -63.501 58l115 90
c14.667 -9.33301 37.667 -26 69 -50s66.333 -56.167 105 -96.5s78.5 -89.166 119.5 -146.499s78.333 -124.166 112 -200.499s61.334 -162.5 83.001 -258.5s32.5 -202.667 32.5 -320z" />
    <glyph glyph-name="asterisk" unicode="*" horiz-adv-x="1328" 
d="M118 978l276 119l208 57l-208 53l-280 112l125 223l238 -188l155 -148l-57 208l-50 300h259l-38 -297l-53 -208l149 153l239 188l128 -220l-277 -116l-207 -59l207 -51l282 -110l-131 -229l-233 187l-157 148l59 -208l50 -298l-260 -1l38 299l52 210l-147 -155l-238 -191
z" />
    <glyph glyph-name="plus" unicode="+" horiz-adv-x="1353" 
d="M209 718h191l178 -12l-7 151v228h212v-228l-9 -151l148 12h222v-212h-222l-148 7l9 -149v-240h-212v240l7 149l-178 -7h-191v212z" />
    <glyph glyph-name="comma" unicode="," horiz-adv-x="696" 
d="M175 170c0 26 5.16504 49.834 15.498 71.501s23.666 40 39.999 55s34.5 26.667 54.5 35s40 12.5 60 12.5h16c34 0 63.833 -7.16699 89.5 -21.5s47.334 -34 65.001 -59s30.834 -54 39.501 -87s13 -67.833 13 -104.5c0 -38 -3.83301 -76.5 -11.5 -115.5
s-18.334 -77.5 -32.001 -115.5s-30 -74.5 -49 -109.5s-39.333 -67.167 -61 -96.5s-44.667 -54.833 -69 -76.5s-48.833 -38.167 -73.5 -49.5h-3l-95 62v32c16 9.33301 32.833 23.5 50.5 42.5s34 41.333 49 67s27.5 54.167 37.5 85.5s15 64 15 98
c0 24.667 -3.66699 44.167 -11 58.5s-16.666 26.666 -27.999 36.999s-23.5 19.666 -36.5 27.999s-25.167 18.5 -36.5 30.5s-20.666 27.333 -27.999 46s-11 43.334 -11 74.001z" />
    <glyph glyph-name="hyphen" unicode="-" horiz-adv-x="1345" 
d="M230 718h885v-203h-885v203z" />
    <glyph glyph-name="period" unicode="." horiz-adv-x="717" 
d="M167 143c0 26.667 5.3291 51.668 15.9961 75.001s25.334 43.666 44.001 60.999s40.334 30.833 65.001 40.5s51 14.5 79 14.5c32.667 0 60.334 -4.33301 83.001 -13s41.167 -20.334 55.5 -35.001s24.666 -31.667 30.999 -51s9.5 -40 9.5 -62
c0 -28.667 -5.16699 -54.667 -15.5 -78s-24.666 -43.333 -42.999 -60s-40.333 -29.5 -66 -38.5s-53.5 -13.5 -83.5 -13.5c-23.333 0 -45.666 3.66699 -66.999 11s-40 18 -56 32s-28.667 30.833 -38 50.5s-14 41.834 -14 66.501z" />
    <glyph glyph-name="slash" unicode="/" horiz-adv-x="882" 
d="M608 1599h240l-573 -1962h-240z" />
    <glyph glyph-name="zero" unicode="0" horiz-adv-x="1310" 
d="M630 -20c-88.667 0 -166.167 14.9961 -232.5 44.9961s-121.5 73 -165.5 129s-76.833 124.167 -98.5 204.5s-32.5 170.5 -32.5 270.5c0.666992 112.667 16.834 210.334 48.501 293.001s74.167 151.334 127.5 206.001s115 95.334 185 122.001s144 40 222 40
c90 0 168 -14.167 234 -42.5s120.5 -69.5 163.5 -123.5s75 -120.5 96 -199.5s31.167 -169.167 30.5 -270.5c0 -112 -15.333 -210.167 -46 -294.5s-72.334 -154.666 -125.001 -210.999s-114 -98.5 -184 -126.5s-144.333 -42 -223 -42zM659 112.996
c41.333 0 76.001 10.668 104.001 32.001s50.5 53.5 67.5 96.5s29.167 96.667 36.5 161s11 139.833 11 226.5c0 92 -3.66699 171.333 -11 238s-19.5 121.334 -36.5 164.001s-39.833 74.167 -68.5 94.5s-64 30.5 -106 30.5c-41.333 0 -76.333 -10.333 -105 -31
s-51.834 -51.834 -69.501 -93.501s-30.5 -94 -38.5 -157s-12 -136.5 -12 -220.5c0 -90.667 4 -169.834 12 -237.501s21 -124 39 -169s41.5 -78.667 70.5 -101s64.5 -33.5 106.5 -33.5z" />
    <glyph glyph-name="one" unicode="1" horiz-adv-x="898" 
d="M112 126l227.001 27v825c-12.667 -4 -29.5 -8.16699 -50.5 -12.5s-42.833 -8.5 -65.5 -12.5s-44.834 -7.33301 -66.501 -10s-39.5 -4.33398 -53.5 -5.00098l-26 157c38.667 8 77.167 19.333 115.5 34s75.333 31.334 111 50.001s69.167 38.5 100.5 59.5
s59.333 41.833 84 62.5h1l164 -29v-1119l210 -27v-126h-751v126z" />
    <glyph glyph-name="two" unicode="2" horiz-adv-x="1227" 
d="M81 121c91.333 52 176 108.498 254 169.498s145.5 124 202.5 189s101.667 130.833 134 197.5s48.5 131.667 48.5 195c0 32 -5.33301 61.333 -16 88s-26 49.834 -46 69.501s-44.167 34.834 -72.5 45.501s-60.5 16 -96.5 16c-39.333 0 -75.333 -4.66699 -108 -14
s-62.167 -20.833 -88.5 -34.5s-49.666 -28.167 -69.999 -43.5s-37.833 -29.333 -52.5 -42l-81 121c18.667 24.667 45 50.167 79 76.5s73.333 50.5 118 72.5s93.667 40 147 54s108.666 21 165.999 21c76 0 141.5 -9.83301 196.5 -29.5s100.333 -46.167 136 -79.5
s62 -71.833 79 -115.5s25.5 -89.5 25.5 -137.5c0 -69.333 -17.5 -138 -52.5 -206s-82 -134.333 -141 -199s-127.333 -126.667 -205 -186s-159.5 -114.333 -245.5 -165l559 57l76 144l141 -29l-56 -356h-986z" />
    <glyph glyph-name="three" unicode="3" horiz-adv-x="1170" 
d="M122 -126c12.667 -4.66699 27.334 -8.66602 44.001 -11.999s34 -6 52 -8s36.333 -3.5 55 -4.5s36.667 -1.5 54 -1.5c64 0 121.667 8 173 24s94.833 38.333 130.5 67s63.167 62.834 82.5 102.501s29 83.167 29 130.5c0 30.667 -4.66699 61.167 -14 91.5
s-24.666 57.5 -45.999 81.5s-49.333 44 -84 60s-77.334 25.333 -128.001 28l-131 -24l-53 146c28 3.33301 56.333 9.83301 85 19.5s55.334 19.167 80.001 28.5c80.667 33.333 140.667 76.5 180 129.5s59.333 111.833 60 176.5c0 34.667 -5.5 64.167 -16.5 88.5
s-25.667 44.333 -44 60s-39.5 27 -63.5 34s-48.667 10.5 -74 10.5c-64.667 0 -121.167 -9 -169.5 -27s-92.5 -42 -132.5 -72l-74 130c16 16 39.167 34 69.5 54s65.5 38.5 105.5 55.5s83.833 31.333 131.5 43s96.834 17.5 147.501 17.5c61.333 0 118.5 -6.83301 171.5 -20.5
s99 -34.5 138 -62.5s69.5 -63.667 91.5 -107s33 -94.333 33 -153c0 -52.667 -8.33301 -101.667 -25 -147s-40.334 -86.833 -71.001 -124.5s-67.834 -71.334 -111.501 -101.001s-92.5 -54.834 -146.5 -75.501c69.333 4 130.5 -2.16699 183.5 -18.5s97.333 -39.5 133 -69.5
s62.834 -65.5 81.501 -106.5s28 -84.5 28 -130.5c0 -73.333 -15.333 -141.333 -46 -204s-76.167 -117 -136.5 -163s-134.833 -82 -223.5 -108s-190.667 -39 -306 -39c-20 0 -41.333 0.833008 -64 2.5s-44.834 4 -66.501 7s-42.334 6.66699 -62.001 11
s-36.5 8.83301 -50.5 13.5v167v0z" />
    <glyph glyph-name="four" unicode="4" horiz-adv-x="1339" 
d="M54 134l86 168l104 214l112 238.5l111.5 242.5l102.5 226.5l85 189.5h48l255 -132l-516 -941l-109 -169l439 28l10 336l265 21v-340l260 17v-233h-260v-376h-277v376h-633z" />
    <glyph glyph-name="five" unicode="5" horiz-adv-x="1242" 
d="M180 -193c19.333 -1.33301 38.8311 -2.33594 58.498 -3.00293s38.834 -1 57.501 -1c68 0 131.333 10.833 190 32.5s109.667 51.5 153 89.5s77.333 83.167 102 135.5s37 109.5 37 171.5c0 51.333 -6.16699 95.333 -18.5 132s-30.166 66.834 -53.499 90.501
s-51.666 41.167 -84.999 52.5s-71 17 -113 17c-22 0 -45.167 -1.5 -69.5 -4.5s-48.333 -6.83301 -72 -11.5s-46.5 -10.167 -68.5 -16.5s-41.667 -12.833 -59 -19.5l-72 52l101 757h626l21 39h147l-48 -297h-555l-71 -373c48.667 18.667 97.667 32.834 147 42.501
s96 14.5 140 14.5c70 0 132.5 -9.5 187.5 -28.5s101.5 -47.333 139.5 -85s67 -84.667 87 -141s30 -121.5 30 -195.5c0 -57.333 -9.33301 -112.333 -28 -165s-45.167 -101.834 -79.5 -147.501s-75.5 -87.167 -123.5 -124.5s-101.5 -69.166 -160.5 -95.499
s-122.667 -46.666 -191 -60.999s-139.833 -21.5 -214.5 -21.5c-22.667 0 -46.334 1 -71.001 3s-48.667 5.66699 -72 11l1 151v0z" />
    <glyph glyph-name="six" unicode="6" horiz-adv-x="1339" 
d="M118 617c0 89.333 11.833 174.835 35.5 256.502s56.167 158 97.5 229s89.833 136.167 145.5 195.5s115.667 111.166 180 155.499s131.333 80.666 201 108.999s139.167 46.833 208.5 55.5l61 -118c-76 -23.333 -145 -54.833 -207 -94.5s-116.833 -85.334 -164.5 -137.001
s-88.167 -108.334 -121.5 -170.001s-60 -125.5 -80 -191.5c15.333 13.333 33.5 26.5 54.5 39.5s45 24.5 72 34.5s57.167 18.167 90.5 24.5s70 9.5 110 9.5c67.333 0 127.666 -10.5 180.999 -31.5s98.333 -51.5 135 -91.5s64.667 -88.667 84 -146s29 -122 29 -194
c0 -74.667 -11.667 -146.667 -35 -216s-58 -130.5 -104 -183.5s-103.167 -95.333 -171.5 -127s-147.166 -47.5 -236.499 -47.5c-92.667 0 -174.167 16.667 -244.5 50s-129.333 78.833 -177 136.5s-83.5 125.334 -107.5 203.001s-36 160.834 -36 249.501zM690 113.002
c38.667 0 72.668 10.834 102.001 32.501s54 49.667 74 84s35 72.5 45 114.5s15 83.667 15 125c0 66 -5.5 122.667 -16.5 170s-26.167 86.166 -45.5 116.499s-42.333 52.666 -69 66.999s-56 21.5 -88 21.5c-34.667 0 -66.167 -3.5 -94.5 -10.5s-53.666 -15.833 -75.999 -26.5
s-41.666 -22.667 -57.999 -36s-29.833 -26 -40.5 -38c-4 -33.333 -6 -66 -6 -98c-1.33301 -75.333 2.16699 -144.833 10.5 -208.5s22.666 -118.667 42.999 -165s47.166 -82.666 80.499 -108.999s74.666 -39.5 123.999 -39.5z" />
    <glyph glyph-name="seven" unicode="7" horiz-adv-x="1210" 
d="M298 -279l164.5 341.5l159.5 350.5l147 337.5l128 301.5l-561 -8l-77 -235l-174 31l51 441h965l63 -72l-545 -1575l-321 87v0z" />
    <glyph glyph-name="eight" unicode="8" horiz-adv-x="1357" 
d="M127 385c0 38 5.83496 75.3291 17.502 111.996s29.5 71.5 53.5 104.5s54.667 64 92 93s81.666 55.167 132.999 78.5c-32 22.667 -61.833 47.334 -89.5 74.001s-51.667 56.5 -72 89.5s-36.5 69.333 -48.5 109s-18 84.167 -18 133.5c0 64.667 14.167 121.334 42.5 170.001
s65.5 89.334 111.5 122.001s98.333 57.167 157 73.5s118.334 24.5 179.001 24.5c79.333 0 148.166 -8.33301 206.499 -25s106.666 -40 144.999 -70s66.833 -65.667 85.5 -107s28 -86.666 28 -135.999c0 -71.333 -18.333 -140 -55 -206s-96 -124 -178 -174
c42.667 -24.667 83.667 -51 123 -79s74 -59.167 104 -93.5s53.833 -72.5 71.5 -114.5s26.5 -89 26.5 -141c0 -68 -14.667 -129.167 -44 -183.5s-70 -100.5 -122 -138.5s-113.167 -67 -183.5 -87s-146.5 -30 -228.5 -30c-66 0 -131.167 7.33301 -195.5 22
s-121.833 38 -172.5 70s-91.5 73.5 -122.5 124.5s-46.5 112.5 -46.5 184.5zM795.002 917.996c39.333 34 68.833 73.333 88.5 118s29.5 89.667 29.5 135c0 89.333 -20.5 158.166 -61.5 206.499s-98.833 72.5 -173.5 72.5c-29.333 0 -57 -4.33301 -83 -13
s-48.667 -21.5 -68 -38.5s-34.666 -38.167 -45.999 -63.5s-17 -54.333 -17 -87c0 -37.333 9.16699 -71.166 27.5 -101.499s42.666 -58.5 72.999 -84.5s65.5 -50.667 105.5 -74zM399.002 434.996c0 -47.333 5.33301 -90.834 16 -130.501s27.5 -74 50.5 -103
s52.5 -51.667 88.5 -68s79 -24.5 129 -24.5c30.667 0 60.667 5 90 15s55.5 24.833 78.5 44.5s41.667 43.834 56 72.501s21.5 61.667 21.5 99c0 44 -11.5 82.5 -34.5 115.5s-53.333 63.167 -91 90.5s-80 53.5 -127 78.5l-142.5 78.5c-40 -31.333 -72.5 -69.5 -97.5 -114.5
s-37.5 -96.167 -37.5 -153.5z" />
    <glyph glyph-name="nine" unicode="9" horiz-adv-x="1339" 
d="M329 -219c74 22.667 140.497 53.501 199.497 92.501s111 83.833 156 134.5s83 106.167 114 166.5s55.833 123.166 74.5 188.499c-14.667 -12.667 -31.334 -24.834 -50.001 -36.501s-40 -22.167 -64 -31.5s-50.667 -16.833 -80 -22.5s-61.333 -8.5 -96 -8.5
c-67.333 0 -129.5 11.5 -186.5 34.5s-106.167 55.667 -147.5 98s-73.666 93.333 -96.999 153s-35 126.5 -35 200.5c0 73.333 11.833 143.333 35.5 210s58.834 125.167 105.501 175.5s104.167 90.5 172.5 120.5s147.5 45 237.5 45c94.667 0 177.167 -15.667 247.5 -47
s128.833 -75 175.5 -131s81.667 -123 105 -201s35 -163.333 35 -256c0 -90 -11.167 -176.167 -33.5 -258.5s-53 -159 -92 -230s-85.333 -136.167 -139 -195.5s-111.667 -111.166 -174 -155.499s-127.666 -80.5 -195.999 -108.5s-137.166 -46.667 -206.499 -56z
M641.997 435.001c32 0 61.6699 3.00098 89.0029 9.00098s52.333 13.667 75 23s42.334 19.666 59.001 30.999s30.667 22.666 42 33.999c3.33301 21.333 5.5 42.833 6.5 64.5s1.83301 43.167 2.5 64.5c1.33301 74.667 -1.83398 143 -9.50098 205s-21.334 115.333 -41.001 160
s-46.334 79.167 -80.001 103.5s-75.5 36.5 -125.5 36.5c-38.667 0 -72.834 -10.5 -102.501 -31.5s-54.667 -48.333 -75 -82s-35.833 -71.167 -46.5 -112.5s-16 -82 -16 -122c0 -67.333 5.5 -125.166 16.5 -173.499s26.5 -88 46.5 -119s43.5 -53.833 70.5 -68.5
s56.5 -22 88.5 -22z" />
    <glyph glyph-name="colon" unicode=":" horiz-adv-x="717" 
d="M167 978c0 26.667 5.3291 51.668 15.9961 75.001s25.334 43.666 44.001 60.999s40.334 30.833 65.001 40.5s51 14.5 79 14.5c32.667 0 60.334 -4.33301 83.001 -13s41.167 -20.334 55.5 -35.001s24.666 -31.667 30.999 -51s9.5 -40 9.5 -62
c0 -28.667 -5.16699 -54.667 -15.5 -78s-24.666 -43.333 -42.999 -60s-40.333 -29.5 -66 -38.5s-53.5 -13.5 -83.5 -13.5c-23.333 0 -45.666 3.66699 -66.999 11s-40 18 -56 32s-28.667 30.833 -38 50.5s-14 41.834 -14 66.501zM166.996 143.001
c0 26.667 5.3291 51.668 15.9961 75.001s25.334 43.666 44.001 60.999s40.334 30.833 65.001 40.5s51 14.5 79 14.5c32.667 0 60.334 -4.33301 83.001 -13s41.167 -20.334 55.5 -35.001s24.666 -31.667 30.999 -51s9.5 -40 9.5 -62c0 -28.667 -5.16699 -54.667 -15.5 -78
s-24.666 -43.333 -42.999 -60s-40.333 -29.5 -66 -38.5s-53.5 -13.5 -83.5 -13.5c-23.333 0 -45.666 3.66699 -66.999 11s-40 18 -56 32s-28.667 30.833 -38 50.5s-14 41.834 -14 66.501z" />
    <glyph glyph-name="semicolon" unicode=";" horiz-adv-x="717" 
d="M175 170c0 26 5.16504 49.834 15.498 71.501s23.666 40 39.999 55s34.5 26.667 54.5 35s40 12.5 60 12.5h16c34 0 63.833 -7.16699 89.5 -21.5s47.334 -34 65.001 -59s30.834 -54 39.501 -87s13 -67.833 13 -104.5c0 -38 -3.83301 -76.5 -11.5 -115.5
s-18.334 -77.5 -32.001 -115.5s-30 -74.5 -49 -109.5s-39.333 -67.167 -61 -96.5s-44.667 -54.833 -69 -76.5s-48.833 -38.167 -73.5 -49.5h-3l-95 62v32c16 9.33301 32.833 23.5 50.5 42.5s34 41.333 49 67s27.5 54.167 37.5 85.5s15 64 15 98
c0 24.667 -3.66699 44.167 -11 58.5s-16.666 26.666 -27.999 36.999s-23.5 19.666 -36.5 27.999s-25.167 18.5 -36.5 30.5s-20.666 27.333 -27.999 46s-11 43.334 -11 74.001zM167.998 978.001c0 26.667 5.3291 51.668 15.9961 75.001s25.334 43.666 44.001 60.999
s40.334 30.833 65.001 40.5s51 14.5 79 14.5c32.667 0 60.334 -4.33301 83.001 -13s41.167 -20.334 55.5 -35.001s24.666 -31.667 30.999 -51s9.5 -40 9.5 -62c0 -28.667 -5.16699 -54.667 -15.5 -78s-24.666 -43.333 -42.999 -60s-40.333 -29.5 -66 -38.5
s-53.5 -13.5 -83.5 -13.5c-23.333 0 -45.666 3.66699 -66.999 11s-40 18 -56 32s-28.667 30.833 -38 50.5s-14 41.834 -14 66.501z" />
    <glyph glyph-name="less" unicode="&#x3c;" horiz-adv-x="1370" 
d="M168 683l968 495v-240l-668 -323l668 -325v-235l-968 494v134z" />
    <glyph glyph-name="equal" unicode="=" horiz-adv-x="1337" 
d="M210 988h917v-204h-917v204zM210 448h917v-204h-917v204z" />
    <glyph glyph-name="greater" unicode="&#x3e;" horiz-adv-x="1370" 
d="M1202 683l-968 495v-240l668 -323l-668 -325v-235l968 494v134z" />
    <glyph glyph-name="question" unicode="?" horiz-adv-x="1030" 
d="M345 502c-11.333 11.333 -23.167 29.002 -35.5 53.002s-24 50.167 -35 78.5s-20.333 56.833 -28 85.5s-12.167 53.334 -13.5 74.001c0 39.333 9.16699 73.333 27.5 102s42 54 71 76s61.333 41.833 97 59.5l105 52.5c34.333 17.333 66.166 35.5 95.499 54.5
s52 41.167 68 66.5c0 4.66699 0.166992 9.33398 0.5 14.001s0.5 9.66699 0.5 15c0 49.333 -8.66699 99 -26 149s-43.166 95.333 -77.499 136s-77 73.667 -128 99s-110.5 38 -178.5 38c-32 0 -62 -1.83301 -90 -5.5s-48.333 -6.83398 -61 -9.50098l-43 173
c6 4 18.667 8.33301 38 13s42.333 9 69 13s56 7.33301 88 10s63.667 4 95 4c105.333 0 195.333 -15.167 270 -45.5s135.5 -69.5 182.5 -117.5s81.333 -101.833 103 -161.5s32.5 -118.834 32.5 -177.501c0 -56.667 -9 -105.667 -27 -147s-41 -77.833 -69 -109.5
s-59.333 -59.334 -94 -83.001s-68.667 -45.667 -102 -66s-64.333 -40.5 -93 -60.5s-51 -41.667 -67 -65c-2 -5.33301 -3.83301 -12.833 -5.5 -22.5s-2.5 -19.167 -2.5 -28.5c0 -40.667 2.5 -79.834 7.5 -117.501s11.167 -73.5 18.5 -107.5zM376.999 208.002
c9.33301 17.333 20.833 32.1641 34.5 44.4971s28.834 21.833 45.501 28.5s34.667 9.83398 54 9.50098s39 -4.16602 59 -11.499c22.667 -10 40.167 -21.833 52.5 -35.5s20.166 -28 23.499 -43s3.33301 -30.5 0 -46.5s-9 -31 -17 -45
c-7.33301 -19.333 -17.833 -35.5 -31.5 -48.5s-29.167 -22.5 -46.5 -28.5s-36.333 -8.66699 -57 -8s-42 5.33398 -64 14.001c-32.667 18.667 -53.667 43.5 -63 74.5s-6 62.833 10 95.5z" />
    <glyph glyph-name="at" unicode="@" horiz-adv-x="2207" 
d="M160 331c0 120 14.1621 233.326 42.4951 339.993s67.666 204.667 117.999 294s110 169.5 179 240.5s144.333 131 226 180s168 86.667 259 113s183.5 39.5 277.5 39.5c104.667 0 201.167 -15.667 289.5 -47s164.5 -78.5 228.5 -141.5s113.833 -142 149.5 -237
s53.5 -206.5 53.5 -334.5c0 -93.333 -10.333 -178.666 -31 -255.999s-47.5 -146.666 -80.5 -207.999s-70.5 -115 -112.5 -161s-84.333 -84.333 -127 -115s-84 -53.5 -124 -68.5s-74.333 -22.5 -103 -22.5c-36 0 -66.167 15.667 -90.5 47s-39.166 76 -44.499 134
c-2.66699 27.333 -1.66699 64 3 110s13.334 105.333 26.001 178c-22.667 -60.667 -49.167 -120.167 -79.5 -178.5s-63.166 -110.5 -98.499 -156.5s-72.666 -83.167 -111.999 -111.5s-79.333 -42.5 -120 -42.5c-35.333 0 -70.833 9.66699 -106.5 29
s-67.834 47.333 -96.501 84s-52.167 81.5 -70.5 134.5s-27.5 112.833 -27.5 179.5c0 48 5.83301 98.5 17.5 151.5s28.5 105.333 50.5 157s49.167 100.834 81.5 147.501s68.833 87.834 109.5 123.501s85.667 64 135 85s102 31.5 158 31.5c36 0 74.833 -4.16699 116.5 -12.5
s81.167 -22.166 118.5 -41.499c4 12.667 9.66699 24.5 17 35.5s17.666 15.167 30.999 12.5c23.333 -6 46.666 -14.5 69.999 -25.5s49.333 -20.5 78 -28.5l-29.5 -136.5c-11 -52.333 -21.667 -107.166 -32 -164.499s-20 -115 -29 -173s-16.167 -111.333 -21.5 -160
c-2 -30 -2.83301 -57.833 -2.5 -83.5s1.5 -48 3.5 -67s4.66699 -34 8 -45s7 -16.5 11 -16.5c35.333 0 72.333 14.167 111 42.5s74 68 106 119s58.5 112 79.5 183s31.5 149.167 31.5 234.5c0 78 -8.33301 148 -25 210s-39.667 116.667 -69 164s-64.166 88 -104.499 122
s-84 61.833 -131 83.5s-96.333 37.5 -148 47.5s-103.834 15 -156.501 15c-69.333 0 -137.666 -10.333 -204.999 -31s-131.333 -50.667 -192 -90s-116.667 -87.666 -168 -144.999s-95.666 -122.333 -132.999 -195s-66.5 -152.834 -87.5 -240.501
s-31.5 -181.834 -31.5 -282.501c0 -127.333 17.5 -237.166 52.5 -329.499s81.833 -168.666 140.5 -228.999s126.5 -105 203.5 -134s157.833 -43.5 242.5 -43.5c33.333 0 69.333 2.16699 108 6.5s76.5 10.5 113.5 18.5s71.167 17.5 102.5 28.5s56.666 22.833 75.999 35.5
l48 -120c-25.333 -21.333 -55.666 -41 -90.999 -59s-74.166 -33.5 -116.499 -46.5s-87.166 -23.333 -134.499 -31s-95.666 -11.5 -144.999 -11.5c-123.333 0 -234.166 19.5 -332.499 58.5s-181.833 95.5 -250.5 169.5s-121.334 164.5 -158.001 271.5s-55 228.833 -55 365.5z
M828.995 417.993c0 -22 1.50195 -47.3301 4.50195 -75.9971s9 -55.667 18 -81s21.333 -46.666 37 -63.999s36.167 -26 61.5 -26c22 0 46.167 12.5 72.5 37.5s52.666 57.667 78.999 98s51.333 85.666 75 135.999s44.167 100.5 61.5 150.5
c23.333 68.667 38.666 130.334 45.999 185.001c-9.33301 10 -22.833 19.167 -40.5 27.5s-36.667 15.666 -57 21.999s-40.666 11.333 -60.999 15s-37.5 5.5 -51.5 5.5c-40 0 -75.333 -11.833 -106 -35.5s-56.334 -55.334 -77.001 -95.001s-36.167 -85.334 -46.5 -137.001
s-15.5 -105.834 -15.5 -162.501z" />
    <glyph glyph-name="A" unicode="A" horiz-adv-x="1441" 
d="M-51 137l129 28l482 1363h321l481 -1363l139 -28v-137h-649v137l163 28l-75 244h-543l-71 -245l165 -27v-137h-541zM892 565l-197 645l-35 146l-32 -146l-186 -645h450z" />
    <glyph glyph-name="B" unicode="B" horiz-adv-x="1441" 
d="M85 137l164.003 27v1193l-162 31v134h317c33.333 0 63.666 0.666992 90.999 2s53.333 2.83301 78 4.5s49.167 3.16699 73.5 4.5s50.166 2 77.499 2c95.333 0 177.833 -6.83301 247.5 -20.5s127.334 -34.5 173.001 -62.5s79.5 -63.667 101.5 -107s33 -94.666 33 -153.999
c0 -56 -8.16699 -106 -24.5 -150s-38.833 -82 -67.5 -114s-62.834 -58 -102.501 -78s-82.834 -33.667 -129.501 -41c60 -0.666992 116.167 -9.16699 168.5 -25.5s98 -39.666 137 -69.999s69.833 -67 92.5 -110s34 -91.5 34 -145.5c0 -60.667 -9.66699 -119.167 -29 -175.5
s-52.833 -106.333 -100.5 -150s-111.667 -78.5 -192 -104.5s-181.5 -39 -303.5 -39c-27.333 0 -53.333 0.666992 -78 2s-51 2.66602 -79 3.99902s-58.5 2.66602 -91.5 3.99902s-70.833 2 -113.5 2h-315v137zM564.003 864
c9.33301 -1.33301 21.6699 -2.49902 37.0029 -3.49902s31.166 -1.66699 47.499 -2s32.5 -0.5 48.5 -0.5h41c42 0 77.5 6 106.5 18s52.5 30 70.5 54s30.833 53.833 38.5 89.5s11.5 77.167 11.5 124.5c0 43.333 -4.5 81.166 -13.5 113.499s-23.833 59 -44.5 80
s-48 36.667 -82 47s-75.667 15.5 -125 15.5c-28.667 0 -55.834 -1.33301 -81.501 -4s-43.834 -4.66699 -54.501 -6v-526zM564.007 144.001c6 -3.33301 14.999 -6.16504 26.999 -8.49805s25.167 -4.16602 39.5 -5.49902s29.5 -2.33301 45.5 -3s31 -1 45 -1
c60 0 111.167 6.83301 153.5 20.5s76.833 33.334 103.5 59.001s46.167 57.167 58.5 94.5s18.5 79.666 18.5 126.999c0 53.333 -5.83301 98.666 -17.5 135.999s-30 67.666 -55 90.999s-57 40.333 -96 51s-85.833 16 -140.5 16h-44.5c-17.667 0 -35.5 -0.166992 -53.5 -0.5
s-34.667 -0.833008 -50 -1.5s-26.666 -1.33398 -33.999 -2.00098v-573z" />
    <glyph glyph-name="C" unicode="C" horiz-adv-x="1360" 
d="M57 754c0 118 19.998 225.167 59.998 321.5s95.333 178.833 166 247.5s154 121.667 250 159s199.667 56 311 56c48 0 93.667 -2.83301 137 -8.5s83.833 -12 121.5 -19s72 -14.167 103 -21.5s58.167 -12.333 81.5 -15l-23 -398h-205l-60 263
c-7.33301 8 -16 15.833 -26 23.5s-22.5 14.167 -37.5 19.5s-33.167 9.66602 -54.5 12.999s-46.666 5 -75.999 5c-57.333 0 -110 -12.5 -158 -37.5s-89.167 -62.667 -123.5 -113s-61 -113.5 -80 -189.5s-28.5 -165 -28.5 -267c0 -88 7.66699 -172.667 23 -254
s38.833 -153.166 70.5 -215.499s71.834 -112.166 120.501 -149.499s106.334 -56 173.001 -56c33.333 0 62 1.83301 86 5.5s44.667 8.5 62 14.5s31.666 13 42.999 21s21 16.667 29 26l91 221l176 -10l-24 -340c-28.667 -2 -57.667 -7.16699 -87 -15.5
s-62.333 -17.166 -99 -26.499s-79.167 -17.833 -127.5 -25.5s-105.833 -11.5 -172.5 -11.5c-118 0 -221.833 18.833 -311.5 56.5s-165 90.667 -226 159s-107 150.166 -138 245.499s-46.5 200.666 -46.5 315.999z" />
    <glyph glyph-name="D" unicode="D" horiz-adv-x="1593" 
d="M85 137l164.003 26.9941v1194l-157 30v134h312c37.333 0 71 0.666992 101 2s59.833 2.83301 89.5 4.5s60.667 3.16699 93 4.5s69.166 2 110.499 2c128 0 238 -16.167 330 -48.5s167.667 -79.166 227 -140.499s103 -136.5 131 -225.5s42 -190.5 42 -304.5
c0 -125.333 -18.5 -239.666 -55.5 -342.999s-89 -191.666 -156 -264.999s-147.667 -129.666 -242 -168.999s-198.5 -57.666 -312.5 -54.999c-25.333 0.666992 -53 1.83398 -83 3.50098s-60.833 3.5 -92.5 5.5s-62.834 3.66699 -93.501 5s-59.334 2 -86.001 2h-322v137z
M570.003 144.994c26.667 -9.33301 55.667 -15.002 87 -17.002s65.333 -2.33301 102 -1c64 0.666992 122.333 14.334 175 41.001s98 66.334 136 119.001s67.5 118.667 88.5 198s31.5 172 31.5 278c0 101.333 -9.16699 191.5 -27.5 270.5s-46.5 145.5 -84.5 199.5
s-86.5 95.167 -145.5 123.5s-129.167 42.5 -210.5 42.5c-38 0 -69.667 -1.5 -95 -4.5s-44.333 -5.5 -57 -7.5v-1242z" />
    <glyph glyph-name="E" unicode="E" horiz-adv-x="1379" 
d="M85 137l164 27v1193l-162 31v134h1101l23 -347h-171l-73 194l-398 20v-542l260 4l30 168h173v-491h-173l-30 168l-260 5v-548l479 23l123 264l171 -39l-58 -401h-1199v137z" />
    <glyph glyph-name="F" unicode="F" horiz-adv-x="1289" 
d="M89 137l160 27v1193l-166 31v134h1137l20 -377h-198l-77 224l-396 16v-551l264 3l41 162h167v-501h-167l-41 173l-264 5v-512l299 -27v-137h-779v137z" />
    <glyph glyph-name="G" unicode="G" horiz-adv-x="1551" 
d="M77 739c0 125.333 20.4941 237.501 61.4941 336.501s97.667 183 170 252s157.833 121.833 256.5 158.5s205.667 55 321 55c54.667 0 108.667 -2.5 162 -7.5s102.833 -11 148.5 -18s86.167 -14.167 121.5 -21.5l80 -17l-23 -386h-216l-60 251
c-7.33301 6.66699 -16.166 13.5 -26.499 20.5s-24.166 13.5 -41.499 19.5s-39 11 -65 15s-58 6 -96 6c-64.667 0 -123.667 -12.333 -177 -37s-99 -62.334 -137 -113.001s-67.5 -114.334 -88.5 -191.001s-31.5 -167 -31.5 -271c0 -58.667 3.5 -116 10.5 -172
s17.833 -108.833 32.5 -158.5s33.334 -95.5 56.001 -137.5s49.167 -78.167 79.5 -108.5s64.833 -54 103.5 -71s81.667 -25.5 129 -25.5c56.667 0 106.834 6.33301 150.501 19s76.167 30 97.5 52v414l-196 23v164h620v-164l-105 -19v-525
c-27.333 -1.33301 -60.666 -7.5 -99.999 -18.5l-134.5 -36c-50.333 -13 -105.666 -24.667 -165.999 -35s-125.5 -15.5 -195.5 -15.5c-118 0 -223 18.833 -315 56.5s-169.5 90.334 -232.5 158.001s-111 148 -144 241s-49.5 195.167 -49.5 306.5z" />
    <glyph glyph-name="H" unicode="H" horiz-adv-x="1728" 
d="M86 137l163 27v1193l-160 31v134h648v-134l-171 -31v-501h596v501l-162 31v134h639v-134l-160 -31v-1193l160 -27v-137h-637v137l160 27v534h-596v-534l171 -27v-137h-651v137z" />
    <glyph glyph-name="I" unicode="I" horiz-adv-x="845" 
d="M88 137l176 28v1192l-176 31v134h668v-134l-175 -31v-1192l175 -30v-135h-668v137z" />
    <glyph glyph-name="J" unicode="J" horiz-adv-x="798" 
d="M222 2c6.66699 22 12.332 45.166 16.999 69.499s8.5 52.833 11.5 85.5s5.16699 70.167 6.5 112.5s2 92.5 2 150.5v937l-176 31v134h668v-134l-174 -31v-788c0 -120 -1.66699 -224.833 -5 -314.5s-11.333 -160.5 -24 -212.5c-14 -56 -35.667 -107.333 -65 -154
s-65.666 -88.167 -108.999 -124.5s-93 -67.5 -149 -93.5s-117.333 -46.333 -184 -61l-72 116c26 10 51.5 22.833 76.5 38.5s48.5 34.834 70.5 57.501s42.167 49 60.5 79s33.5 64 45.5 102z" />
    <glyph glyph-name="K" unicode="K" horiz-adv-x="1537" 
d="M85 137l164.002 27.001v1193l-162 31v134h630v-134l-151 -31v-639l512 639l-160 31l-1 134h560v-134l-173 -31l-386 -432c24 -20.667 49.167 -47 75.5 -79s53 -67.167 80 -105.5l81 -121l78.5 -126l73 -119.5l64.5 -102.5c19.667 -30.333 37.167 -55.333 52.5 -75
s27.666 -31.834 36.999 -36.501l82 -25v-135h-371c-10.667 0 -23.167 7.66699 -37.5 23s-29.833 36 -46.5 62s-34.334 56.333 -53.001 91l-58.5 110l-62 118l-63 116.5c-21 37.667 -42 72.667 -63 105s-41.5 59.833 -61.5 82.5l-160 -186v-358l190 -29v-135h-671v137z" />
    <glyph glyph-name="L" unicode="L" horiz-adv-x="1348" 
d="M85 137l164 27v1193l-162 31v134h680v-134l-201 -31v-1189l419 21l126 374l195 -26l-64 -537h-1157v137z" />
    <glyph glyph-name="M" unicode="M" horiz-adv-x="2100" 
d="M1 137l175 27l154 1193l-202 31v134h631l267 -961l35 -185l29 185l247 961h635v-134l-216 -31l174 -1192l172 -28v-137h-661v137l166 27l-93 876l-42 374l-63 -298l-295 -1132h-209l-330 1072l-94 354l-18 -369l-82 -877l199 -27v-137h-579v137z" />
    <glyph glyph-name="N" unicode="N" horiz-adv-x="1649" 
d="M55 137l185 27v1193l-185 31v134h477l631 -889l106 -212v936l-195 31v134h557v-134l-177 -31v-1357h-228l-668 956l-133 254v-1045l205 -28v-137h-575v137z" />
    <glyph glyph-name="O" unicode="O" horiz-adv-x="1498" 
d="M738 -23c-116 -1.33301 -216.833 15.999 -302.5 51.999s-156.5 87.333 -212.5 154s-97.833 147.5 -125.5 242.5s-41.5 201.167 -41.5 318.5c0 120.667 17 230 51 328s82.167 181.833 144.5 251.5s137.166 123.334 224.499 161.001s184.333 56.5 291 56.5
c117.333 0 218.5 -17.833 303.5 -53.5s155 -86.834 210 -153.501s95.667 -147.167 122 -241.5s39.5 -200.166 39.5 -317.499c0 -120.667 -17 -230 -51 -328s-81.833 -181.667 -143.5 -251s-135.667 -123 -222 -161s-182.166 -57.333 -287.499 -58zM748 114.999
c52.667 0 100.501 13.6689 143.501 41.002s79.667 68.333 110 123s53.666 123.167 69.999 205.5s24.5 178.833 24.5 289.5c0 110 -8 204.833 -24 284.5s-38.833 145 -68.5 196s-65.834 88.667 -108.501 113s-91 36.5 -145 36.5c-53.333 0 -101.5 -13.5 -144.5 -40.5
s-79.667 -67.833 -110 -122.5s-53.666 -123.334 -69.999 -206.001s-24.5 -179.334 -24.5 -290.001c0 -111.333 8 -206.833 24 -286.5s39 -145 69 -196s66.333 -88.333 109 -112s91 -35.5 145 -35.5z" />
    <glyph glyph-name="P" unicode="P" horiz-adv-x="1366" 
d="M85 137l163.999 26.002v1194l-157 31v134h317c31.333 0 60 0.666992 86 2s52.333 2.83301 79 4.5s55.667 3 87 4s68 1.5 110 1.5c102.667 -0.666992 189.334 -10.334 260.001 -29.001s127.667 -46.5 171 -83.5s74.5 -83.333 93.5 -139s28.5 -120.834 28.5 -195.501
c0 -87.333 -14.333 -164.333 -43 -231s-69.667 -122.5 -123 -167.5s-118 -79 -194 -102s-161.333 -34.5 -256 -34.5c-16 0 -31.833 0.333008 -47.5 1s-30 1.5 -43 2.5s-24.167 2 -33.5 3s-16 1.83301 -20 2.5l-1 -397l280 -27v-137h-758v137zM562.999 700.002
c16.667 -4 35.665 -6.5 56.998 -7.5s50 -1.5 86 -1.5c36.667 0 72.334 6.5 107.001 19.5s65.167 34.667 91.5 65s47.5 70.666 63.5 120.999s24 112.833 24 187.5c0 212.667 -94.333 319 -283 319c-18 0 -34 -0.5 -48 -1.5s-26.833 -2.16699 -38.5 -3.5
s-22.167 -2.66602 -31.5 -3.99902s-18.666 -2.33301 -27.999 -3v-691z" />
    <glyph glyph-name="Q" unicode="Q" horiz-adv-x="1515" 
d="M746 -23c-116 -1.33301 -216.83 16 -302.497 52s-156.5 87.333 -212.5 154s-97.833 147.5 -125.5 242.5s-41.5 201.167 -41.5 318.5c0 120.667 17 230 51 328s82.167 181.833 144.5 251.5s137.166 123.334 224.499 161.001s184.333 56.5 291 56.5
c117.333 0 218.5 -17.833 303.5 -53.5s155 -86.834 210 -153.501s95.667 -147.167 122 -241.5s39.5 -200.166 39.5 -317.499c0 -100.667 -11.833 -193.5 -35.5 -278.5s-57.5 -160.5 -101.5 -226.5s-97.167 -121.5 -159.5 -166.5s-132.166 -78.167 -209.499 -99.5
c17.333 -35.333 41.333 -63.833 72 -85.5s65 -38.334 103 -50.001s77.833 -19.334 119.5 -23.001s82.5 -5.5 122.5 -5.5h13c6.66699 0 16.167 0.5 28.5 1.5s25 2.5 38 4.5s25.167 4.33301 36.5 7s19.333 5.66699 24 9v-253c-4 -4.66699 -12.333 -9.5 -25 -14.5
s-27.834 -9.5 -45.501 -13.5s-36.834 -7.5 -57.501 -10.5s-41.334 -4.5 -62.001 -4.5h-4c-77.333 0 -147 10.333 -209 31s-115 49.334 -159 86.001s-78.5 80.167 -103.5 130.5s-39.167 105.5 -42.5 165.5c-8 -0.666992 -15.833 -1.16699 -23.5 -1.5s-15.5 -0.5 -23.5 -0.5z
M756.003 115c52.667 0 100.501 13.6689 143.501 41.002s79.667 68.333 110 123s53.666 123.167 69.999 205.5s24.5 178.833 24.5 289.5c0 110 -8 204.833 -24 284.5s-38.833 145 -68.5 196s-65.834 88.667 -108.501 113s-91 36.5 -145 36.5
c-53.333 0 -101.5 -13.5 -144.5 -40.5s-79.667 -67.833 -110 -122.5s-53.666 -123.334 -69.999 -206.001s-24.5 -179.334 -24.5 -290.001c0 -111.333 8 -206.833 24 -286.5s39 -145 69 -196s66.333 -88.333 109 -112s91 -35.5 145 -35.5z" />
    <glyph glyph-name="R" unicode="R" horiz-adv-x="1463" 
d="M85 137l163.998 26v1194l-157 31v134h311c31.333 0 60.166 0.666992 86.499 2s52.5 2.83301 78.5 4.5s53.333 3.16699 82 4.5s61.334 2 98.001 2c103.333 0 190.333 -8.5 261 -25.5s127.834 -42.333 171.501 -76s75 -75.334 94 -125.001s28.5 -107.167 28.5 -172.5
c0 -42.667 -5.83301 -86.167 -17.5 -130.5s-29.667 -85.666 -54 -123.999s-55 -72.166 -92 -101.499s-80.833 -50.666 -131.5 -63.999c34.667 -14.667 66.167 -37.834 94.5 -69.501s54.333 -67.167 78 -106.5s45.334 -80.333 65.001 -123l56.5 -118
c18 -36 35.333 -66.5 52 -91.5s33.667 -39.5 51 -43.5l84 -27v-137h-368c-16.667 0 -33.667 14.167 -51 42.5s-35.5 64.5 -54.5 108.5s-38.667 92.333 -59 145s-41.333 103.5 -63 152.5s-44.167 92.833 -67.5 131.5s-47.333 65.667 -72 81h-56.5
c-19.667 0 -38.5 0.166992 -56.5 0.5s-34.167 0.666016 -48.5 0.999023s-24.833 0.833008 -31.5 1.5v-501l177 -26v-137h-653v137zM560.998 801c6.66699 -2 17.499 -3.33301 32.499 -4s30.833 -1 47.5 -1h49h38c38.667 0 73.334 6.5 104.001 19.5s56.667 33 78 60
s37.833 61 49.5 102s17.5 89.5 17.5 145.5c0 44 -5.16699 83.167 -15.5 117.5s-26.833 63.333 -49.5 87s-52 41.667 -88 54s-79.333 18.5 -130 18.5c-20.667 0 -38.167 -0.333008 -52.5 -1s-26.5 -1.5 -36.5 -2.5s-18.5 -2.16699 -25.5 -3.5s-13.167 -2.33301 -18.5 -3v-589
z" />
    <glyph glyph-name="S" unicode="S" horiz-adv-x="1238" 
d="M133 447l179.993 0.00683594l44 -248c8.66699 -10 20.334 -19.667 35.001 -29s32 -17.666 52 -24.999s42.5 -13.333 67.5 -18s52.167 -7 81.5 -7c46.667 0 86.334 5.5 119.001 16.5s59.167 26.333 79.5 46s35 42.667 44 69s13.5 54.833 13.5 85.5
c0 35.333 -7.66699 67.166 -23 95.499s-37.333 55 -66 80s-63.667 49 -105 72s-88 47.167 -140 72.5c-26.667 12.667 -54.667 27 -84 43s-58.166 34.167 -86.499 54.5s-55.5 43.166 -81.5 68.499s-48.833 53.833 -68.5 85.5s-35.334 66.667 -47.001 105
s-17.5 80.5 -17.5 126.5c0 54.667 11.167 106.167 33.5 154.5s55.5 90.833 99.5 127.5s98.667 65.667 164 87s141 32 227 32c46 0 91 -3.33301 135 -10s85 -14.334 123 -23.001s71.5 -16.834 100.5 -24.501s51.167 -12.834 66.5 -15.501l-13 -345h-176l-41 227
c-5.33301 6 -14.166 12.167 -26.499 18.5s-26.666 12.166 -42.999 17.499s-34.166 9.66602 -53.499 12.999s-39 5 -59 5c-41.333 0 -76.666 -4.5 -105.999 -13.5s-53.166 -21.833 -71.499 -38.5s-31.833 -36.334 -40.5 -59.001s-13 -47.667 -13 -75
c0 -38.667 8.66699 -72.834 26 -102.501s41.5 -57 72.5 -82s67.833 -49 110.5 -72l140 -72.5c44 -22 89 -46.833 135 -74.5s88 -59.5 126 -95.5s69 -77 93 -123s36 -98.667 36 -158c0 -53.333 -10.333 -107.166 -31 -161.499s-53.667 -103.833 -99 -148.5
s-104 -81 -176 -109s-159.333 -42 -262 -42c-62 0 -119.167 4.5 -171.5 13.5s-99.5 19 -141.5 30s-78 21.333 -108 31s-53.333 15.167 -70 16.5z" />
    <glyph glyph-name="T" unicode="T" horiz-adv-x="1465" 
d="M303 137l275 28v1211l-280 -18l-76 -425h-186l30 589h1336l31 -589h-187l-74 425l-273 18v-1212l292 -27v-137h-888v137z" />
    <glyph glyph-name="U" unicode="U" horiz-adv-x="1525" 
d="M167 1356l-140 32.001v134h641v-134l-171 -31v-766c0 -78 7.33301 -146.333 22 -205s35.5 -107.334 62.5 -146.001s60 -67.667 99 -87s82.5 -29 130.5 -29c60.667 0 113 12.167 157 36.5s80 57.5 108 99.5s48.667 91.5 62 148.5s20 118.167 20 183.5v765l-169 31v134h510
v-134l-137 -30v-758c0 -108 -14.5 -200.833 -43.5 -278.5s-69 -141.5 -120 -191.5s-111.5 -86.833 -181.5 -110.5s-145.667 -35.5 -227 -35.5c-209.333 0 -365.5 52 -468.5 156s-154.5 266 -154.5 486v730z" />
    <glyph glyph-name="V" unicode="V" horiz-adv-x="1398" 
d="M88 1358l-127 30v134h641v-134l-173 -31l292 -905l52 -189l46 189l284 905l-156 31v134h507v-134l-134 -31l-474 -1372h-255z" />
    <glyph glyph-name="W" unicode="W" horiz-adv-x="2080" 
d="M74 1356l-122 32v134h624v-134l-169 -32l253 -913l39 -204l39 204l218 734l-59 180l-134 31v134h638v-134l-176 -32l251 -913l46 -222l39 222l239 913l-191 32v134h517v-134l-133 -32l-400 -1366h-285l-271 919l-263 -919h-278z" />
    <glyph glyph-name="X" unicode="X" horiz-adv-x="1513" 
d="M1 137l167 28l406 599l-420 594l-133 30v134h663v-134l-142 -31l292 -453l283 454l-167 30v134h549v-134l-177 -32l-399 -551l457 -641l138 -27v-137h-682v137l157 27l-324 497l-286 -498l180 -26v-137h-562v137z" />
    <glyph glyph-name="Y" unicode="Y" horiz-adv-x="1359" 
d="M303 137l227 27v433l-445 760l-122 31v134h621v-134l-140 -31l263 -516l43 -130l54 125l248 521l-165 31v134h506v-134l-143 -31l-383 -758v-435l238 -27v-137h-802v137z" />
    <glyph glyph-name="Z" unicode="Z" horiz-adv-x="1384" 
d="M50 119l763 1143l115 133l-503 -26l-115 -276l-173 25l49 410h1049l54 -120l-745 -1144l-126 -126l595 42l121 306l170 -34l-54 -452h-1131z" />
    <glyph glyph-name="bracketleft" unicode="[" horiz-adv-x="872" 
d="M173 1416c0 49.333 5.33301 89.1699 16 119.503s26.5 53.666 47.5 69.999s47 27.333 78 33s66.833 8.5 107.5 8.5c55.333 0 106.333 -4.66699 153 -14s91.667 -19.333 135 -30v-120h-281v-1598h281v-122c-43.333 -12 -88.333 -22.333 -135 -31s-97.667 -13 -153 -13
c-40.667 0 -76.5 2.83301 -107.5 8.5s-57 16.667 -78 33s-36.833 39.666 -47.5 69.999s-16 70.166 -16 119.499v1466z" />
    <glyph glyph-name="backslash" unicode="\" horiz-adv-x="882" 
d="M268 1599h-240l573 -1962h240z" />
    <glyph glyph-name="bracketright" unicode="]" horiz-adv-x="872" 
d="M699 1416c0 49.333 -5.33301 89.1699 -16 119.503s-26.5 53.666 -47.5 69.999s-47 27.333 -78 33s-66.833 8.5 -107.5 8.5c-55.333 0 -106.333 -4.66699 -153 -14s-91.667 -19.333 -135 -30v-120h281v-1598h-281v-122c43.333 -12 88.333 -22.333 135 -31
s97.667 -13 153 -13c40.667 0 76.5 2.83301 107.5 8.5s57 16.667 78 33s36.833 39.666 47.5 69.999s16 70.166 16 119.499v1466z" />
    <glyph glyph-name="asciicircum" unicode="^" horiz-adv-x="1363" 
d="M577 1531h204l397 -1118h-214l-284 793l-283 -793h-212z" />
    <glyph glyph-name="underscore" unicode="_" horiz-adv-x="1711" 
d="M1731 -251v-154h-1751v154h1751z" />
    <glyph glyph-name="grave" unicode="`" horiz-adv-x="681" 
d="M421 1309c-18 6.66699 -39.5 17.3311 -64.5 31.998s-51.5 31.834 -79.5 51.501s-56.5 41.334 -85.5 65.001s-56.333 47.5 -82 71.5s-48.667 47.5 -69 70.5s-35.833 44.167 -46.5 63.5l189 173h1l351 -429l-113 -98h-1v0z" />
    <glyph glyph-name="a" unicode="a" horiz-adv-x="1167" 
d="M62 304c0 48.667 8.8291 92.001 26.4961 130.001s42 71.333 73 100s67.5 53 109.5 73s87.333 36.5 136 49.5s99.334 22.5 152.001 28.5s105.334 9.66699 158.001 11v48c0 38 -3.83301 70.5 -11.5 97.5s-19.5 49 -35.5 66s-36.5 29.333 -61.5 37s-55.167 11.5 -90.5 11.5
c-36 0 -72.167 -2.83301 -108.5 -8.5s-71.166 -12.667 -104.499 -21s-64.166 -17.666 -92.499 -27.999s-52.5 -20.166 -72.5 -29.499h-1l-59 134c14 11.333 37.667 26.166 71 44.499s73.333 36.166 120 53.499s98.334 32.333 155.001 45s115 19 175 19
c74 0 136.833 -8 188.5 -24s93.667 -40.667 126 -74s56 -75.5 71 -126.5s22.5 -111.167 22.5 -180.5v-624h124v-123c-12.667 -3.33301 -28.334 -7 -47.001 -11s-39.334 -7.83301 -62.001 -11.5s-47 -6.83398 -73 -9.50098s-52.667 -4 -80 -4c-24 0 -44.5 1 -61.5 3
s-30.667 6.66699 -41 14s-17.833 17.833 -22.5 31.5s-7 32.167 -7 55.5v58c-11.333 -15.333 -27 -32.333 -47 -51s-44.167 -36.334 -72.5 -53.001s-60.5 -30.5 -96.5 -41.5s-75.667 -16.5 -119 -16.5c-47.333 0 -91.666 6.33301 -132.999 19s-77.5 32.334 -108.5 59.001
s-55.5 60.5 -73.5 101.5s-27 90.167 -27 147.5zM378.996 352.001c0 -59.333 13.4971 -104.5 40.4971 -135.5s66.5 -46.5 118.5 -46.5c10.667 0 23.834 1.66699 39.501 5s31.834 8 48.501 14s33 13.167 49 21.5s30 17.833 42 28.5v331c-65.333 0 -119.666 -6 -162.999 -18
s-78 -28 -104 -48s-44.333 -43.167 -55 -69.5s-16 -53.833 -16 -82.5z" />
    <glyph glyph-name="b" unicode="b" horiz-adv-x="1278" 
d="M151 1489l-150 24.999v117l390 49h4l63 -41v-595c16 16 34.667 31.333 56 46s44.833 27.834 70.5 39.501s53.667 21 84 28s62.5 10.5 96.5 10.5c60 0 116.667 -10 170 -30s100.166 -52.333 140.499 -97s72.333 -102.667 96 -174s35.5 -158.333 35.5 -261
c0 -88.667 -13.5 -171.334 -40.5 -248.001s-66 -143.167 -117 -199.5s-113.167 -100.666 -186.5 -132.999s-156.333 -48.5 -249 -48.5c-65.333 0 -124.666 3 -177.999 9s-99.833 13.333 -139.5 22s-72 17.5 -97 26.5s-41.167 16.167 -48.5 21.5v1433zM458 160.999
c8.66699 -15.333 26.667 -27.5029 54 -36.5029s58.333 -13.5 93 -13.5c45.333 0 84.666 12 117.999 36s61 56.833 83 98.5s38.5 90.334 49.5 146.001s16.833 115.167 17.5 178.5c0.666992 65.333 -3.66602 123.833 -12.999 175.5s-23.666 95.334 -42.999 131.001
s-43.833 62.834 -73.5 81.501s-64.834 28 -105.501 28c-41.333 0 -77.5 -7.66699 -108.5 -23s-54.833 -32.333 -71.5 -51v-751z" />
    <glyph glyph-name="c" unicode="c" horiz-adv-x="1067" 
d="M72 559c0 90 13.502 172.33 40.502 246.997s65.5 138.834 115.5 192.501s110.5 95.334 181.5 125.001s150.5 44.5 238.5 44.5c44.667 0 85.667 -2.5 123 -7.5s70.666 -10.833 99.999 -17.5s54.666 -13.5 75.999 -20.5s38.666 -12.5 51.999 -16.5l-10 -341h-176l-58 176
c-14.667 28 -32.667 50 -54 66s-47.333 24 -78 24c-30 0 -58.5 -7.5 -85.5 -22.5s-51 -38.667 -72 -71s-37.833 -74.166 -50.5 -125.499s-19 -113.333 -19 -186c0 -83.333 6.5 -153.5 19.5 -210.5s32 -103.167 57 -138.5s55.333 -60.833 91 -76.5s76.167 -23.5 121.5 -23.5
c30.667 0 59.5 2.33301 86.5 7s51.833 10.667 74.5 18s43.334 15.666 62.001 24.999s35.667 19 51 29l53 -121c-14 -15.333 -34.167 -32.166 -60.5 -50.499s-57 -35.5 -92 -51.5s-73.667 -29.333 -116 -40s-86.5 -16 -132.5 -16c-94 0 -175 14.667 -243 44
s-123.833 70 -167.5 122s-76 113.5 -97 184.5s-31.5 148.167 -31.5 231.5z" />
    <glyph glyph-name="d" unicode="d" horiz-adv-x="1302" 
d="M513 -22c-62 0 -119.834 11.167 -173.501 33.5s-100.5 56.833 -140.5 103.5s-71.333 105.334 -94 176.001s-34 154.667 -34 252c0 91.333 13.5 175.166 40.5 251.499s66 142.166 117 197.499s113.167 98.5 186.5 129.5s156.333 46.5 249 46.5
c28 0 55.167 -1.33301 81.5 -4s51.5 -6.66699 75.5 -12v340l-183 31v114l423 43h5l62 -47v-1494h111v-126c-33.333 -7.33301 -71.333 -15.166 -114 -23.499s-89.334 -12.5 -140.001 -12.5c-41.333 0 -73.166 9 -95.499 27s-33.5 50.667 -33.5 98v39
c-16.667 -21.333 -36.5 -41.833 -59.5 -61.5s-49 -37 -78 -52s-60.667 -27 -95 -36s-71.166 -13.5 -110.499 -13.5zM639.999 159c40.667 0 76.8291 7.66797 108.496 23.001s55.834 32.666 72.501 51.999v754c-11.333 12 -30 22.667 -56 32s-57 14 -93 14
s-70 -7.66699 -102 -23s-60 -40.833 -84 -76.5s-43.167 -82.5 -57.5 -140.5s-22.166 -129.667 -23.499 -215c-1.33301 -74.667 3.33398 -138.5 14.001 -191.5s26.167 -96.5 46.5 -130.5s45.333 -58.833 75 -74.5s62.834 -23.5 99.501 -23.5z" />
    <glyph glyph-name="e" unicode="e" horiz-adv-x="1126" 
d="M70 569c0 92.667 13.1699 176 39.5029 250s63.5 136.833 111.5 188.5s105.667 91.167 173 118.5s142 41 224 41c276.667 0 421 -135 433 -405c1.33301 -46 1.16602 -87.5 -0.500977 -124.5s-5.16699 -68.167 -10.5 -93.5h-652c3.33301 -66 13 -122.333 29 -169
s37 -84.667 63 -114s56.833 -50.666 92.5 -63.999s74.834 -20 117.501 -20c33.333 0 64.666 2.66699 93.999 8s56.5 12 81.5 20s47.5 17 67.5 27s37.667 19.667 53 29l52 -121c-16.667 -17.333 -39.834 -35.5 -69.501 -54.5s-63.667 -36.5 -102 -52.5
s-79.666 -29.333 -123.999 -40s-89.5 -16 -135.5 -16c-94 0 -174.833 14.667 -242.5 44s-123.334 70.166 -167.001 122.499s-75.834 114.833 -96.501 187.5s-31 152 -31 238zM745.003 679c0 3.33301 0.166992 8 0.5 14s0.666016 12.333 0.999023 19s0.5 12.834 0.5 18.501
v13.5c0 34 -2.33301 68.333 -7 103s-13.167 65.667 -25.5 93s-29.333 49.666 -51 66.999s-49.5 26 -83.5 26c-25.333 0 -49.166 -4.83301 -71.499 -14.5s-42 -27.5 -59 -53.5s-31 -62 -42 -108s-17.833 -105.333 -20.5 -178h358z" />
    <glyph glyph-name="f" unicode="f" horiz-adv-x="845" 
d="M72 132l160 26.999v806h-176v120l176 50v58c0 52.667 7.5 101.834 22.5 147.501s35.5 87.667 61.5 126s56.333 72.5 91 102.5s71.834 55.167 111.501 75.5s80.5 36 122.5 47s83.667 16.5 125 16.5c34 0 59.667 -2 77 -6s30.666 -7.66699 39.999 -11v-299
c-9.33301 8.66699 -21.666 17.667 -36.999 27s-32.833 17.5 -52.5 24.5s-40.834 12.833 -63.501 17.5s-45.667 7 -69 7c-18 0 -34.333 -2 -49 -6s-27.167 -11.167 -37.5 -21.5s-18.333 -24.333 -24 -42s-8.5 -40.167 -8.5 -67.5l1 -196h257v-170h-257v-812l222 -21v-132
h-693v132z" />
    <glyph glyph-name="g" unicode="g" horiz-adv-x="1287" 
d="M81 -220c0 30.667 5.66602 59.5 16.999 86.5s26.333 51.667 45 74s40.334 41.833 65.001 58.5s50.667 29.667 78 39c-38.667 20 -68.334 45.333 -89.001 76s-31 66.667 -31 108c0 25.333 3.5 48.5 10.5 69.5s16.833 40.5 29.5 58.5s27.667 34.667 45 50
s36.333 29.666 57 42.999c-68 30.667 -118.167 74 -150.5 130s-48.5 122.667 -48.5 200c0 60 13.5 114.333 40.5 163s63.667 90.167 110 124.5s100.666 60.833 162.999 79.5s128.833 28 199.5 28h1c166.667 0 290.334 -32 371.001 -96c9.33301 10.667 22 22 38 34
s34.333 22.667 55 32s43.667 17.166 69 23.499s52 9.5 80 9.5h47v-224h-197c7.33301 -21.333 13.166 -43.666 17.499 -66.999s6.5 -48.666 6.5 -75.999c0 -60 -12.5 -115.167 -37.5 -165.5s-60.333 -93.833 -106 -130.5s-100.167 -65.334 -163.5 -86.001s-133 -31 -209 -31
h-1c-55.333 0 -106 4 -152 12c-11.333 -11.333 -20.666 -24.5 -27.999 -39.5s-11 -32.5 -11 -52.5c0 -23.333 4.33301 -42 13 -56s22.334 -24.833 41.001 -32.5s42.5 -12.834 71.5 -15.501s63.833 -4 104.5 -4h200c72 0 134.667 -5.83301 188 -17.5
s97.833 -30.167 133.5 -55.5s62.167 -57.666 79.5 -96.999s26 -86.666 26 -141.999c0 -67.333 -17.5 -128.333 -52.5 -183s-82.167 -101.167 -141.5 -139.5s-128 -68 -206 -89s-159.667 -31.5 -245 -31.5h-1c-94 0 -174.667 8.33301 -242 25s-122.5 39.667 -165.5 69
s-74.5 64.333 -94.5 105s-30 85 -30 133zM617.999 524c34 0 62.167 6.83301 84.5 20.5s39.833 32.167 52.5 55.5s21.5 51 26.5 83s7.5 66 7.5 102c0 88 -14.167 151.833 -42.5 191.5s-74.833 59.5 -139.5 59.5h-1c-63.333 0 -109 -20 -137 -60s-42 -101 -42 -183
c0 -40 3 -76.5 9 -109.5s16.333 -61.333 31 -85s34.167 -42 58.5 -55s54.833 -19.5 91.5 -19.5h1zM366.999 -159c0 -44.667 6 -82.498 18 -113.498s29.667 -56.333 53 -76s52.166 -33.834 86.499 -42.501s74.166 -13 119.499 -13h2c40.667 0 80.334 4.66699 119.001 14
s73.167 23.5 103.5 42.5s54.666 42.833 72.999 71.5s27.5 62 27.5 100c0 29.333 -3.16699 54.333 -9.5 75s-17.666 37.5 -33.999 50.5s-38.666 22.5 -66.999 28.5s-64.5 9 -108.5 9h-208c-43.333 0 -83.333 3 -120 9c-13.333 -14.667 -25.833 -33.834 -37.5 -57.501
s-17.5 -56.167 -17.5 -97.5z" />
    <glyph glyph-name="h" unicode="h" horiz-adv-x="1392" 
d="M71 134l123.001 19.999v1335l-150 25v117l389 49h5l61 -47l2 -471l-16 -159c18 16.667 40.5 34.334 67.5 53.001s57.5 35.834 91.5 51.501s71.167 28.667 111.5 39s82.833 15.5 127.5 15.5c64.667 0 118.5 -9 161.5 -27s77 -45.667 102 -83s42.667 -84.5 53 -141.5
s15.5 -124.5 15.5 -202.5v-554l141 -20v-134h-560v130l111 22v559c0 46 -2.33301 85.833 -7 119.5s-13.5 61.167 -26.5 82.5s-31 37.166 -54 47.499s-52.5 15.5 -88.5 15.5c-20.667 0 -42 -2.33301 -64 -7s-43.333 -10.5 -64 -17.5s-39.834 -15.167 -57.501 -24.5
s-32.5 -18.333 -44.5 -27v-746l137 -20v-134h-567v134z" />
    <glyph glyph-name="i" unicode="i" horiz-adv-x="735" 
d="M82 134l146 19v770l-135 43v150l367 49h5l73 -43v-968l145 -20v-134h-601v134zM348 1334c-23.333 0 -44.167 4.33203 -62.5 12.999s-33.666 20.167 -45.999 34.5s-21.666 31.333 -27.999 51s-9.5 40.5 -9.5 62.5c0 26 3.5 50.5 10.5 73.5s17.833 43.167 32.5 60.5
s32.667 31 54 41s46.666 15 75.999 15h1c26.667 0 50 -4.5 70 -13.5s36.667 -21 50 -36s23.166 -32.167 29.499 -51.5s9.5 -39.666 9.5 -60.999c0 -26.667 -3.66699 -51.5 -11 -74.5s-18.5 -43 -33.5 -60s-34.333 -30.333 -58 -40s-51.5 -14.5 -83.5 -14.5h-1v0z" />
    <glyph glyph-name="j" unicode="j" horiz-adv-x="700" 
d="M232 919l-136 41.998l1 155l365 49h5l71 -43v-1100c0 -85.333 -11.333 -160 -34 -224s-52.667 -117.5 -90 -160.5s-80.5 -75.833 -129.5 -98.5s-99.833 -35 -152.5 -37c-7.33301 0 -17 0.166992 -29 0.5s-24.167 0.833008 -36.5 1.5s-23.833 1.5 -34.5 2.5
s-18 2.16699 -22 3.5l-15 138c4.66699 -0.666992 11 -0.5 19 0.5s16.5 2.5 25.5 4.5s18.5 4.5 28.5 7.5s19.333 6.5 28 10.5c28.667 12 52 29.833 70 53.5s32 52.834 42 87.501s16.667 74.334 20 119.001s5 94 5 148zM348 1334c-23.333 0 -44.167 4.33203 -62.5 12.999
s-33.666 20.167 -45.999 34.5s-21.666 31.333 -27.999 51s-9.5 40.5 -9.5 62.5c0 26 3.5 50.5 10.5 73.5s17.833 43.167 32.5 60.5s32.667 31 54 41s46.666 15 75.999 15h1c26.667 0 50 -4.5 70 -13.5s36.667 -21 50 -36s23.166 -32.167 29.499 -51.5
s9.5 -39.666 9.5 -60.999c0 -26.667 -3.66699 -51.5 -11 -74.5s-18.5 -43 -33.5 -60s-34.333 -30.333 -58 -40s-51.5 -14.5 -83.5 -14.5h-1v0z" />
    <glyph glyph-name="k" unicode="k" horiz-adv-x="1358" 
d="M63 134l130 19v1336l-145 25v117l387 49h3l63 -47v-895l-5 -155l389 400l-156 27v136h564v-136l-186 -36l-248 -227l386 -593l123 -20v-134h-566v134l101 22l-245 418l-162 -156l5 -119v-145l137 -20v-134h-575v134z" />
    <glyph glyph-name="l" unicode="l" horiz-adv-x="708" 
d="M57 134l145 20v1335l-149 25v117l391 49h3l63 -47v-1479l151 -20v-134h-604v134z" />
    <glyph glyph-name="m" unicode="m" horiz-adv-x="2107" 
d="M99 130l125.001 23.002v770l-136 42v151l354 49h5l53 -43v-119c22 20.667 49.167 40.667 81.5 60s67 36.333 104 51s74.833 26.334 113.5 35.001s75.334 13 110.001 13c76.667 0 137.667 -12.333 183 -37s79.666 -64 102.999 -118c18.667 16.667 43.167 34.167 73.5 52.5
s63.833 35 100.5 50s75.167 27.5 115.5 37.5s79.5 15 117.5 15c62.667 0 115 -8 157 -24s75.667 -42 101 -78s43.333 -82.833 54 -140.5s16 -127.834 16 -210.501v-556l141 -23v-130h-554v130l105 23v547c0 51.333 -2.83301 94.833 -8.5 130.5s-15.167 64.5 -28.5 86.5
s-31.333 38 -54 48s-51 15 -85 15c-16.667 0 -35 -2.33301 -55 -7s-40 -10.5 -60 -17.5s-39.333 -14.833 -58 -23.5s-35 -17.334 -49 -26.001c5.33301 -28 9 -58.5 11 -91.5s3 -68.833 3 -107.5v-555l133 -22v-130h-560v130l120 22v559c0 46 -2.66699 85.833 -8 119.5
s-14.5 61.167 -27.5 82.5s-30.667 37.166 -53 47.499s-50.5 15.5 -84.5 15.5c-20 0 -40.833 -2.33301 -62.5 -7s-42.834 -10.5 -63.501 -17.5s-39.667 -15.167 -57 -24.5s-32 -18.333 -44 -27v-747l135 -23v-130h-567v130z" />
    <glyph glyph-name="n" unicode="n" horiz-adv-x="1417" 
d="M95 134l129 20.001v769l-136 42v151l358 49h5l53 -43v-119c22 20 48 39.667 78 59s62.5 36.333 97.5 51s71.833 26.5 110.5 35.5s77.667 13.5 117 13.5c64 0 117.5 -8.5 160.5 -25.5s77.167 -43.667 102.5 -80s43.333 -83.333 54 -141s16 -127.167 16 -208.5v-554
l142 -19v-134h-563v134l109 19v558c0 46 -2.33301 85.833 -7 119.5s-13.167 61.167 -25.5 82.5s-29.333 37.166 -51 47.499s-49.5 15.5 -83.5 15.5c-22.667 0 -45 -2.5 -67 -7.5s-42.833 -11.5 -62.5 -19.5s-37.667 -16.833 -54 -26.5s-30.5 -19.167 -42.5 -28.5v-740
l134 -20v-134h-574v134z" />
    <glyph glyph-name="o" unicode="o" horiz-adv-x="1232" 
d="M65 566c0 101.333 15.6689 189.667 47.002 265s73 138 125 188s112.167 87.333 180.5 112s139.5 37 213.5 37c86.667 0 163.334 -13.5 230.001 -40.5s122.667 -65.833 168 -116.5s79.666 -112.334 102.999 -185.001s35 -155 35 -247c0 -104 -15.667 -194 -47 -270
s-73 -138.5 -125 -187.5s-112 -85.333 -180 -109s-139 -35.5 -213 -35.5c-86.667 0 -163.334 13.5 -230.001 40.5s-122.834 65.833 -168.501 116.5s-80.167 112.334 -103.5 185.001s-35 155 -35 247zM619.002 115.001c36.667 0 68.332 8.16797 94.999 24.501
s48.834 42 66.501 77s30.667 79.833 39 134.5s12.5 120 12.5 196c0 78 -3.83301 147.167 -11.5 207.5s-20 110.833 -37 151.5s-39.333 71.5 -67 92.5s-61.5 31.5 -101.5 31.5c-36.667 0 -68.5 -8.16699 -95.5 -24.5s-49.5 -42 -67.5 -77s-31.333 -79.833 -40 -134.5
s-13 -120 -13 -196c0 -156.667 16.833 -276.334 50.5 -359.001s90.167 -124 169.5 -124z" />
    <glyph glyph-name="p" unicode="p" horiz-adv-x="1340" 
d="M214 -344v1267l-136 42v151l358 49h5l51 -43v-106c16.667 19.333 36.334 38.166 59.001 56.499s48 34.5 76 48.5s58.667 25.333 92 34s69.333 13 108 13c61.333 0 118.833 -10.333 172.5 -31s100.5 -53.5 140.5 -98.5s71.5 -103.167 94.5 -174.5s34.5 -157.333 34.5 -258
c0 -88.667 -13.5 -171.334 -40.5 -248.001s-65.833 -143.167 -116.5 -199.5s-112.334 -100.666 -185.001 -132.999s-154.667 -48.5 -246 -48.5c-33.333 0 -65.5 2.33301 -96.5 7s-54.167 8.66699 -69.5 12l6 -166v-174l198 -25v-127h-655v127zM521 159.001
c11.333 -12.667 29.6699 -23.833 55.0029 -33.5s56 -14.5 92 -14.5s70.167 7.83301 102.5 23.5s60.5 41.5 84.5 77.5s43.333 83.333 58 142s22.667 130.667 24 216c0.666992 75.333 -4.33301 139.333 -15 192s-26.334 95.667 -47.001 129s-45.834 57.5 -75.501 72.5
s-62.834 22.5 -99.501 22.5c-40 0 -75.667 -7.16699 -107 -21.5s-55.333 -30.5 -72 -48.5v-757z" />
    <glyph glyph-name="q" unicode="q" horiz-adv-x="1274" 
d="M513 -22c-61.333 0 -118.832 11.1689 -172.499 33.502s-100.5 56.5 -140.5 102.5s-71.5 104.667 -94.5 176s-34.5 156 -34.5 254c0 91.333 13.5 175.166 40.5 251.499s66 142.166 117 197.499s113.167 98.333 186.5 129s156.333 46 249 46c44 0 87.667 -4 131 -12
s82 -17.667 116 -29l163 38h3l51 -43v-1465l138 -26v-127h-655v127l210 25v296l7 157c-17.333 -18 -37 -34.833 -59 -50.5s-46.167 -29.5 -72.5 -41.5s-54.833 -21.5 -85.5 -28.5s-63.334 -10.5 -98.001 -10.5zM640.001 159.002c40.667 0 76.8301 7.66797 108.497 23.001
s55.834 32.666 72.501 51.999v753c-10 12 -28.333 22.833 -55 32.5s-58 14.5 -94 14.5s-70 -7.5 -102 -22.5s-60.167 -40.167 -84.5 -75.5s-43.833 -82 -58.5 -140s-22.667 -130 -24 -216c-1.33301 -74 3.33398 -137.5 14.001 -190.5s26.5 -96.667 47.5 -131
s46.333 -59.5 76 -75.5s62.834 -24 99.501 -24z" />
    <glyph glyph-name="r" unicode="r" horiz-adv-x="979" 
d="M88 134l144 19.001v770l-136 42v151l342 49h6l53 -43v-83l-1 -156h4c5.33301 14.667 13.666 31.667 24.999 51s25 39.666 41 60.999s34.333 42.333 55 63s43.5 39.167 68.5 55.5s51.667 29.5 80 39.5s58.5 15 90.5 15c20.667 0 36.5 -0.833008 47.5 -2.5
s20.167 -3.83398 27.5 -6.50098v-346c-4 2.66699 -11 5.66699 -21 9s-22.333 6.33301 -37 9s-31.334 4.83398 -50.001 6.50098s-38.667 2.5 -60 2.5c-23.333 0 -46.666 -1.33301 -69.999 -4s-45.166 -6.16699 -65.499 -10.5s-38.5 -9.5 -54.5 -15.5s-28.333 -12 -37 -18
v-638l249 -24v-130h-701v134z" />
    <glyph glyph-name="s" unicode="s" horiz-adv-x="1075" 
d="M112 345l183.999 0.00195312l52 -156c6 -8.66699 15.167 -17.334 27.5 -26.001s27 -16.334 44 -23.001s36.167 -12.167 57.5 -16.5s43.666 -6.5 66.999 -6.5c32.667 0 59.667 4 81 12s38.333 18.167 51 30.5s21.334 26.166 26.001 41.499s7 30.666 7 45.999
c0 28 -7.16699 52.167 -21.5 72.5s-34.666 39 -60.999 56s-58.166 33.333 -95.499 49l-124 52.5c-46 18.667 -87.333 39.5 -124 62.5s-67.834 48.833 -93.501 77.5s-45.5 60.667 -59.5 96s-21 75 -21 119c0 46.667 9.83301 90.334 29.5 131.001
s48.834 75.834 87.501 105.501s86.667 53 144 70s123.666 25.5 198.999 25.5c44 0 83.167 -2.66699 117.5 -8s65.5 -11.5 93.5 -18.5s53.667 -14.333 77 -22s46 -13.5 68 -17.5v-276l-174 3l-47 133c-9.33301 15.333 -27 30.166 -53 44.499s-59 21.833 -99 22.5
c-30 0 -55.167 -3.33301 -75.5 -10s-36.666 -15.667 -48.999 -27s-21.166 -23.833 -26.499 -37.5s-8 -27.5 -8 -41.5c0 -34.667 9 -63.167 27 -85.5s40.667 -41.166 68 -56.499s57.333 -28.833 90 -40.5s63.667 -24.167 93 -37.5c44 -19.333 86 -39.833 126 -61.5
s75.5 -46.834 106.5 -75.501s55.667 -61.834 74 -99.501s27.5 -82.5 27.5 -134.5c0 -48.667 -9.5 -93.834 -28.5 -135.501s-47.667 -77.667 -86 -108s-86.333 -54.166 -144 -71.499s-125.167 -26 -202.5 -26c-52.667 0 -100.834 3.66699 -144.501 11
s-83.334 15.833 -119.001 25.5s-67.5 19.334 -95.5 29.001s-52.333 16.834 -73 21.501v281z" />
    <glyph glyph-name="t" unicode="t" horiz-adv-x="851" 
d="M197 976l-141 -0.00195312v114c5.33301 1.33301 13.833 4.16602 25.5 8.49902l36 13.5c12.333 4.66699 23.5 9.16699 33.5 13.5s16.333 7.5 19 9.5c22.667 18 46.334 50 71.001 96c6.66699 12.667 14 28 22 46s15.833 36.667 23.5 56s14.834 38.5 21.501 57.5
s12.334 36.167 17.001 51.5h178l3 -296h294v-170h-294v-554c0 -53.333 0.833008 -95.666 2.5 -126.999s5.66699 -55 12 -71s16.166 -26.333 29.499 -31s31.666 -7 54.999 -7h1c16 0 32.833 1.33301 50.5 4s35 5.83398 52 9.50098s32.667 7.66699 47 12
s26.166 8.16602 35.499 11.499h1l47 -117c-20 -15.333 -44.5 -30.666 -73.5 -45.999s-61 -29.166 -96 -41.499s-72 -22.333 -111 -30s-78.167 -11.5 -117.5 -11.5h-2c-44 0 -81.5 5.66699 -112.5 17s-56 28.166 -75 50.499s-32.833 49.833 -41.5 82.5
s-13 70.334 -13 113.001v736z" />
    <glyph glyph-name="u" unicode="u" horiz-adv-x="1340" 
d="M174 982l-100 36.998v117l360 29h1l46 -28v-732c0 -44 2.83301 -81.167 8.5 -111.5s15.167 -55.166 28.5 -74.499s31 -33.333 53 -42s49.333 -13 82 -13c24.667 0 47.834 2.5 69.501 7.5s41 11.333 58 19s31.833 15.667 44.5 24s23 15.833 31 22.5v745l-138 39v118
l388 26h2l55 -28v-1001h111v-124c-25.333 -6 -59 -13.333 -101 -22s-89.333 -13 -142 -13c-48.667 0 -84.334 10.667 -107.001 32s-34 53 -34 95v36c-17.333 -20 -38.5 -39.667 -63.5 -59s-52.5 -36.833 -82.5 -52.5s-62 -28.167 -96 -37.5s-68 -14 -102 -14
c-65.333 0 -121.5 7.83301 -168.5 23.5s-85.5 40.834 -115.5 75.501s-52.167 79.5 -66.5 134.5s-21.5 122.167 -21.5 201.5v570z" />
    <glyph glyph-name="v" unicode="v" horiz-adv-x="1207" 
d="M83 990l-95 28v128h585v-128l-149 -28l187 -574l66 -228l56 222l179 580l-146 28v128h454v-128l-102 -28l-373 -1006h-261z" />
    <glyph glyph-name="w" unicode="w" horiz-adv-x="1834" 
d="M102 990l-111 28v128h570v-128l-156 -29l138 -521l52 -232l50 232l196 678h262l199 -678l50 -222l46 221l142 521l-161 30v128h481v-128l-119 -29l-312 -1005h-250l-209 664l-43 179l-38 -179l-203 -664h-252z" />
    <glyph glyph-name="x" unicode="x" horiz-adv-x="1253" 
d="M24 119l120 24l313 436l-302 411l-110 28v128h599v-128l-131 -28l143 -202l65 -105l45 99l151 208l-132 28v128h438v-128l-117 -28l-291 -408l325 -440l106 -23v-119h-597v119l122 24l-158 237l-60 97l-45 -103l-151 -231l140 -24v-119h-473v119z" />
    <glyph glyph-name="y" unicode="y" horiz-adv-x="1228" 
d="M166 -251c10 -4.66699 29.8311 -10.167 59.498 -16.5s64.5 -9.5 104.5 -9.5c20 0 41.833 2.33301 65.5 7s48.167 16.334 73.5 35.001s51 46.5 77 83.5s51.333 87.5 76 151.5h-180l-360 990l-91 28v128h579v-128l-151 -29l191 -592l78 -272l68 272l152 592l-130 29v128
h442v-128l-92 -28l-61.5 -196.5l-65.5 -213l-65 -209.5l-58 -186l-45.5 -143c-13 -39.333 -22.5 -66 -28.5 -80c-28 -77.333 -58.5 -145.333 -91.5 -204s-69 -107.834 -108 -147.501s-81.667 -69.667 -128 -90s-96.833 -30.5 -151.5 -30.5c-13.333 0 -28 0.333008 -44 1
s-31.667 1.66699 -47 3s-29.166 2.83301 -41.499 4.5s-21.166 3.5 -26.499 5.5v245v0z" />
    <glyph glyph-name="z" unicode="z" horiz-adv-x="1161" 
d="M52 101l543 765l128 140l-362 -15l-43 -190h-173v345h898l47 -96l-528 -772l-126 -140l420 24l80 216l165 -16l-30 -362h-969z" />
    <glyph glyph-name="braceleft" unicode="{" horiz-adv-x="1037" 
d="M277 -18c0 47.333 7.16699 90.335 21.5 129.002s30.333 76 48 112s33.667 72.167 48 108.5s21.5 75.5 21.5 117.5c0 22.667 -4.66699 43 -14 61s-25.833 33.333 -49.5 46s-55.334 22.334 -95.001 29.001s-89.834 10 -150.501 10v197c60.667 0 110.834 2.5 150.501 7.5
s71.334 12.667 95.001 23s40.167 23.666 49.5 39.999s14 35.5 14 57.5c0 42 -7.16699 81.167 -21.5 117.5s-30.333 72.5 -48 108.5s-33.667 73.333 -48 112s-21.5 81.667 -21.5 129c0 42 5.33301 79.167 16 111.5s28.667 59.5 54 81.5s58.833 38.667 100.5 50
s93.5 17 155.5 17c54.667 0 105.834 -3 153.501 -9s93.834 -14.333 138.501 -25v-119h-163c-23.333 0 -45.333 -1.83301 -66 -5.5s-39 -10.834 -55 -21.501s-28.667 -25.667 -38 -45s-14 -45 -14 -77c0 -28.667 4.5 -60.5 13.5 -95.5s19 -71.167 30 -108.5
s21 -75.166 30 -113.499s13.5 -74.833 13.5 -109.5c0 -36 -7 -67 -21 -93s-33 -48.167 -57 -66.5s-52.167 -33.166 -84.5 -44.499s-66.5 -20 -102.5 -26c36 -6 70.167 -15 102.5 -27s60.5 -27.5 84.5 -46.5s43 -42 57 -69s21 -58.5 21 -94.5c0 -35.333 -4.5 -72 -13.5 -110
s-19 -75.833 -30 -113.5s-21 -73.834 -30 -108.501s-13.5 -66.334 -13.5 -95.001c0 -32 4.66699 -57.667 14 -77s22 -34.333 38 -45s34.333 -17.834 55 -21.501s42.667 -5.5 66 -5.5h163v-119c-44.667 -10.667 -90.834 -19 -138.501 -25s-98.834 -9 -153.501 -9
c-62 0 -113.833 5.66699 -155.5 17s-75.167 28 -100.5 50s-43.333 49.167 -54 81.5s-16 69.5 -16 111.5z" />
    <glyph glyph-name="bar" unicode="|" horiz-adv-x="865" 
d="M318 1780h230v-1966h-230v1966z" />
    <glyph glyph-name="braceright" unicode="}" horiz-adv-x="1037" 
d="M760 -18c0 47.333 -7.16699 90.335 -21.5 129.002s-30.333 76 -48 112s-33.667 72.167 -48 108.5s-21.5 75.5 -21.5 117.5c0 22.667 4.66699 43 14 61s25.833 33.333 49.5 46s55.334 22.334 95.001 29.001s89.834 10 150.501 10v197c-60.667 0 -110.834 2.5 -150.501 7.5
s-71.334 12.667 -95.001 23s-40.167 23.666 -49.5 39.999s-14 35.5 -14 57.5c0 42 7.16699 81.167 21.5 117.5s30.333 72.5 48 108.5s33.667 73.333 48 112s21.5 81.667 21.5 129c0 42 -5.33301 79.167 -16 111.5s-28.667 59.5 -54 81.5s-58.833 38.667 -100.5 50
s-93.5 17 -155.5 17c-54.667 0 -105.834 -3 -153.501 -9s-93.834 -14.333 -138.501 -25v-119h163c23.333 0 45.333 -1.83301 66 -5.5s39 -10.834 55 -21.501s28.667 -25.667 38 -45s14 -45 14 -77c0 -28.667 -4.5 -60.5 -13.5 -95.5s-19 -71.167 -30 -108.5
s-21 -75.166 -30 -113.499s-13.5 -74.833 -13.5 -109.5c0 -36 7 -67 21 -93s33 -48.167 57 -66.5s52.167 -33.166 84.5 -44.499s66.5 -20 102.5 -26c-36 -6 -70.167 -15 -102.5 -27s-60.5 -27.5 -84.5 -46.5s-43 -42 -57 -69s-21 -58.5 -21 -94.5
c0 -35.333 4.5 -72 13.5 -110s19 -75.833 30 -113.5s21 -73.834 30 -108.501s13.5 -66.334 13.5 -95.001c0 -32 -4.66699 -57.667 -14 -77s-22 -34.333 -38 -45s-34.333 -17.834 -55 -21.501s-42.667 -5.5 -66 -5.5h-163v-119c44.667 -10.667 90.834 -19 138.501 -25
s98.834 -9 153.501 -9c62 0 113.833 5.66699 155.5 17s75.167 28 100.5 50s43.333 49.167 54 81.5s16 69.5 16 111.5z" />
    <glyph glyph-name="asciitilde" unicode="~" horiz-adv-x="1426" 
d="M202 594c12.667 22 30.002 44.832 52.002 68.499s47.5 45.334 76.5 65.001s61.167 35.667 96.5 48s73 18.5 113 18.5c31.333 0 59.666 -4.16699 84.999 -12.5s48.833 -18.833 70.5 -31.5s41.667 -26.5 60 -41.5s36.333 -28.833 54 -41.5s35.334 -23.167 53.001 -31.5
s36.167 -12.5 55.5 -12.5c24.667 0 47.167 2.66699 67.5 8s38.666 12.666 54.999 21.999s31.333 20.333 45 33s26.167 26 37.5 40l101 -124c-14 -23.333 -32.167 -47.166 -54.5 -71.499s-47.833 -46.5 -76.5 -66.5s-60.5 -36.333 -95.5 -49s-72.5 -19 -112.5 -19
c-28.667 0 -55 4.33301 -79 13s-46.667 19.5 -68 32.5s-41.5 27 -60.5 42s-37.667 29 -56 42s-37 23.833 -56 32.5s-38.833 13 -59.5 13c-42 0 -79.833 -9.66699 -113.5 -29s-63.834 -42.333 -90.501 -69z" />
    <glyph glyph-name="DEL" 
 />
    <glyph glyph-name="nonbreakingspace" unicode="&#xa0;" horiz-adv-x="670" 
 />
    <glyph glyph-name="exclamdown" unicode="&#xa1;" horiz-adv-x="723" 
d="M541 -364h-338l73 1236h186zM555 1273c0 -26.667 -5.3291 -51.666 -15.9961 -74.999s-25.334 -43.666 -44.001 -60.999s-40.334 -30.833 -65.001 -40.5s-51 -14.5 -79 -14.5c-32.667 0 -60.334 4.33301 -83.001 13s-41.167 20.334 -55.5 35.001
s-24.666 31.667 -30.999 51s-9.5 40 -9.5 62c0 29.333 5.16699 55.666 15.5 78.999s24.666 43.166 42.999 59.499s40.333 29 66 38s53.5 13.5 83.5 13.5c23.333 0 45.666 -3.66699 66.999 -11s40 -18 56 -32s28.667 -30.833 38 -50.5s14 -41.834 14 -66.501z" />
    <glyph glyph-name="cent" unicode="&#xa2;" horiz-adv-x="1196" 
d="M525 -8c-68 14.667 -126.501 39 -175.501 73s-89.333 75.667 -121 125s-55.167 105.333 -70.5 168s-23 129.667 -23 201c0 80.667 10.833 155.334 32.5 224.001s52.834 129 93.501 181s90.167 94.833 148.5 128.5s124.166 56.167 197.499 67.5l11 215h171l-11 -209
c35.333 -2 67.833 -5.66699 97.5 -11s56.5 -11 80.5 -17s44.833 -11.833 62.5 -17.5s32.167 -10.5 43.5 -14.5l-10 -341h-176l-58 176c-14.667 28 -32.667 50 -54 66s-47.333 24 -78 24c-30 0 -58.5 -7.5 -85.5 -22.5s-51 -38.667 -72 -71s-37.833 -74.166 -50.5 -125.499
s-19 -113.333 -19 -186c0 -83.333 6.5 -153.5 19.5 -210.5s32 -103.167 57 -138.5s55.333 -60.833 91 -76.5s76.167 -23.5 121.5 -23.5c30.667 0 59.5 2.33301 86.5 7s51.833 10.667 74.5 18s43.334 15.666 62.001 24.999s35.667 19 51 29l53 -121
c-14 -14.667 -33.333 -30.834 -58 -48.501s-53.5 -34.167 -86.5 -49.5s-69.5 -28.5 -109.5 -39.5s-82 -17.5 -126 -19.5l-11 -221h-171l12 235v0z" />
    <glyph glyph-name="sterling" unicode="&#xa3;" horiz-adv-x="1553" 
d="M109 107c0 23.333 5.83887 45.834 17.5059 67.501s28.667 40.834 51 57.501s49.666 29.667 81.999 39s68.833 13.333 109.5 12c6 7.33301 11.167 18.833 15.5 34.5s7.83301 33.5 10.5 53.5s4.66699 40.667 6 62s2 41.666 2 60.999v255h-182v143h182v133
c0 78.667 15 149.667 45 213s70 117.166 120 161.499s107.833 78.5 173.5 102.5s134.167 36 205.5 36s137 -8.66699 197 -26s112 -42.333 156 -75l-131 -221c-5.33301 8.66699 -14.833 21 -28.5 37s-31.5 31.667 -53.5 47s-48 28.833 -78 40.5s-63.333 17.5 -100 17.5
c-28 0 -54 -3 -78 -9s-45 -18.667 -63 -38s-32.167 -47 -42.5 -83s-15.5 -83.667 -15.5 -143v-193h301v-143h-301v-135c0 -52 -4.83301 -98.167 -14.5 -138.5s-21.667 -75.5 -36 -105.5s-29.5 -55.5 -45.5 -76.5s-30.333 -38.833 -43 -53.5
c33.333 -3.33301 66.5 -8.83301 99.5 -16.5l99.5 -23c33.333 -7.66699 67.166 -14.5 101.499 -20.5s69.833 -9 106.5 -9c40 0 73 3.83301 99 11.5s46.5 18.834 61.5 33.501s25.5 32.334 31.5 53.001s9 44 9 70c0 20 -1.83301 39.833 -5.5 59.5s-8.33398 37.667 -14.001 54
s-11.834 30.833 -18.501 43.5s-13.334 22.667 -20.001 30h303c4.66699 -6 10 -14.5 16 -25.5s11.5 -24.167 16.5 -39.5s9.16699 -32.833 12.5 -52.5s5 -41.834 5 -66.501c0 -42.667 -7.33301 -85.334 -22 -128.001s-39 -81 -73 -115s-78.5 -61.5 -133.5 -82.5
s-122.833 -31.5 -203.5 -31.5c-64 0 -122.5 7.33301 -175.5 22s-102.167 30.834 -147.5 48.501l-127.5 49c-39.667 15 -78.834 22.833 -117.501 23.5c-21.333 -22.667 -41.333 -42.334 -60 -59.001s-37.334 -30.5 -56.001 -41.5s-37.5 -19.167 -56.5 -24.5
s-39.167 -8 -60.5 -8c-15.333 0 -30.666 2.16699 -45.999 6.5s-29.5 11 -42.5 20s-23.5 20.5 -31.5 34.5s-12 31 -12 51z" />
    <glyph glyph-name="currency" unicode="&#xa4;" horiz-adv-x="1547" 
d="M399 508c-24 36 -42.499 75.333 -55.499 118s-19.5 88 -19.5 136c0 50 7 97.667 21 143s33.667 87 59 125l-226 227l132 134l228 -230c34 21.333 70.333 38 109 50s79.667 18 123 18s85 -5.5 125 -16.5s77.333 -26.5 112 -46.5l228 227l133 -133l-221 -221
c25.333 -36 45 -75.5 59 -118.5s21 -88.5 21 -136.5c0 -50 -7.5 -98 -22.5 -144s-36.167 -88.333 -63.5 -127l223 -223l-133 -133l-227 227c-34 -21.333 -70.833 -37.833 -110.5 -49.5s-80.834 -17.5 -123.501 -17.5c-44 0 -85.5 5.33301 -124.5 16s-75.5 26 -109.5 46
l-225 -226l-133 133zM772.001 542c38 0 70.499 5.83301 97.499 17.5s49.333 27.834 67 48.501s30.5 44.667 38.5 72s12 56.666 12 87.999c0 30.667 -6 60.334 -18 89.001s-28 54 -48 76s-43.333 39.5 -70 52.5s-55 19.5 -85 19.5c-36 0 -67.333 -6.5 -94 -19.5
s-48.667 -30.5 -66 -52.5s-30.166 -47.333 -38.499 -76s-12.5 -58.334 -12.5 -89.001c0 -31.333 5.66699 -60.666 17 -87.999s26.833 -51.333 46.5 -72s42.667 -36.834 69 -48.501s54.5 -17.5 84.5 -17.5z" />
    <glyph glyph-name="yen" unicode="&#xa5;" horiz-adv-x="1560" 
d="M215 460h439v210l-5 7h-434v128h352l-364 567l-135 32v118h629v-118l-152 -31l244 -441l55 -114l59 112l234 443l-166 31v118h517v-118l-162 -34l-330 -565h350v-128h-425v-217h425v-128h-425v-183l248 -28v-121h-751v121l236 29v182h-439v128z" />
    <glyph glyph-name="brokenbar" unicode="&#xa6;" horiz-adv-x="865" 
d="M318 1780h230v-830h-230v830zM318 641h230v-827h-230v827z" />
    <glyph glyph-name="section" unicode="&#xa7;" horiz-adv-x="1385" 
d="M220 246l182.997 -0.00195312l44 -223c8 -10.667 19.5 -21.167 34.5 -31.5s32.5 -19.666 52.5 -27.999s42.333 -15 67 -20s50.667 -7.5 78 -7.5c46.667 0 86.667 4 120 12s60.833 18.833 82.5 32.5s37.5 29.834 47.5 48.501s15 38.667 15 60
c0 31.333 -7.16699 58 -21.5 80s-34.833 41.833 -61.5 59.5s-58.667 34.334 -96 50.001l-125 52.5c-67.333 30 -129.333 59.833 -186 89.5s-105.5 63.5 -146.5 101.5s-73 81.833 -96 131.5s-34.5 109.167 -34.5 178.5c0 28.667 4.16699 56.167 12.5 82.5s19.5 51 33.5 74
s29.833 44 47.5 63s35.834 35.833 54.501 50.5c-28.667 31.333 -51.667 67 -69 107s-26 86.333 -26 139c0 49.333 10.667 94.5 32 135.5s52.5 76.333 93.5 106s90.833 52.667 149.5 69s125.667 24.5 201 24.5c46.667 0 90.834 -3.33301 132.501 -10
s79.5 -14.334 113.5 -23.001s63.667 -16.834 89 -24.501s45.666 -12.834 60.999 -15.501l-13 -326h-164l-58 195c-3.33301 5.33301 -9.66602 11.333 -18.999 18s-21.5 13 -36.5 19s-32.667 11 -53 15s-43.166 6 -68.499 6c-74.667 0 -129.834 -12.667 -165.501 -38
s-53.5 -59 -53.5 -101c0 -32 6.5 -59.167 19.5 -81.5s31.5 -42.333 55.5 -60s52.833 -34.5 86.5 -50.5l112.5 -52l83.5 -37c32.333 -14 66 -30.333 101 -49s69.5 -40 103.5 -64s64.5 -51.167 91.5 -81.5s48.833 -64.166 65.5 -101.499s25 -78.333 25 -123
c0 -35.333 -3.5 -67.833 -10.5 -97.5s-16.667 -57.167 -29 -82.5s-27 -48.666 -44 -69.999s-35.5 -41.333 -55.5 -60c32.667 -32 59.167 -68 79.5 -108s30.5 -86 30.5 -138c0 -42.667 -10.167 -84.667 -30.5 -126s-51.666 -78.166 -93.999 -110.499s-96 -58.5 -161 -78.5
s-142.167 -30 -231.5 -30c-58.667 0 -113 4.66699 -163 14s-94.667 19.666 -134 30.999s-73.333 22 -102 32s-51 15.667 -67 17zM751.997 575.998l102 -45.5029c36 -16.333 71.333 -35.166 106 -56.499c24 38.667 36 84 36 136c0 37.333 -8.5 69.833 -25.5 97.5
s-40.833 52.834 -71.5 75.501s-67.5 43.834 -110.5 63.501s-90.833 40.5 -143.5 62.5c-34 14 -69.833 29.833 -107.5 47.5s-74.5 38.167 -110.5 61.5c-31.333 -36 -47 -79.667 -47 -131c0 -36.667 9.16699 -69 27.5 -97s44 -54 77 -78s72.333 -46.667 118 -68z" />
    <glyph glyph-name="dieresis" unicode="&#xa8;" horiz-adv-x="1022" 
d="M747 1334c-23.333 0 -43.998 4.33203 -61.998 12.999s-33.333 20.167 -46 34.5s-22.167 31.333 -28.5 51s-9.5 40.5 -9.5 62.5c0 26 3.5 50.5 10.5 73.5s17.833 43.167 32.5 60.5s32.667 31 54 41s46.666 15 75.999 15h1c26.667 0 50 -4.5 70 -13.5s36.667 -21 50 -36
s23.166 -32.167 29.499 -51.5s9.5 -39.666 9.5 -60.999c0 -26.667 -3.66699 -51.5 -11 -74.5s-18.5 -43 -33.5 -60s-34.333 -30.333 -58 -40s-51.5 -14.5 -83.5 -14.5h-1zM237.002 1334c-23.333 0 -44.1709 4.33203 -62.5039 12.999s-33.666 20.167 -45.999 34.5
s-21.666 31.333 -27.999 51s-9.5 40.5 -9.5 62.5c0 26 3.5 50.5 10.5 73.5s17.667 43.167 32 60.5s32.333 31 54 41s47.167 15 76.5 15h1c26.667 0 50 -4.5 70 -13.5s36.5 -21 49.5 -36s22.833 -32.167 29.5 -51.5s10 -39.666 10 -60.999
c0 -26.667 -3.66699 -51.5 -11 -74.5s-18.666 -43 -33.999 -60s-34.666 -30.333 -57.999 -40s-51 -14.5 -83 -14.5h-1z" />
    <glyph glyph-name="copyright" unicode="&#xa9;" horiz-adv-x="2129" 
d="M194 1003c0 80.667 10.1729 158.5 30.5059 233.5s49.333 145 87 210s82.834 124.167 135.501 177.5s111.167 99 175.5 137s133.666 67.333 207.999 88s152.166 31 233.499 31s159.166 -10.333 233.499 -31s143.833 -50 208.5 -88s123.334 -83.667 176.001 -137
s97.667 -112.5 135 -177.5s66.333 -135 87 -210s31 -152.833 31 -233.5c0 -81.333 -10.333 -159.5 -31 -234.5s-49.667 -145.167 -87 -210.5s-82.333 -124.833 -135 -178.5s-111.334 -99.5 -176.001 -137.5s-134.334 -67.5 -209.001 -88.5s-152.334 -31.5 -233.001 -31.5
s-158.334 10.5 -233.001 31.5s-144.167 50.5 -208.5 88.5s-122.833 83.833 -175.5 137.5s-97.834 113.167 -135.501 178.5s-66.667 135.5 -87 210.5s-30.5 153.167 -30.5 234.5zM366.006 1003c0 -66.667 8 -131 24 -193s38.667 -120.5 68 -175.5
s64.833 -105.167 106.5 -150.5s88.334 -84.333 140.001 -117s107.667 -58 168 -76s124.166 -27 191.499 -27c66.667 0 130.334 9 191.001 27s116.834 43.333 168.501 76s98.334 71.667 140.001 117s77.167 95.5 106.5 150.5s52 113.5 68 175.5s24 126.333 24 193
c0 66 -8 130.167 -24 192.5s-38.667 120.833 -68 175.5s-64.833 104.667 -106.5 150s-88.334 84.333 -140.001 117s-107.834 58 -168.501 76s-124.334 27 -191.001 27c-67.333 0 -131.166 -9 -191.499 -27s-116.333 -43.333 -168 -76s-98.334 -71.667 -140.001 -117
s-77.167 -95.333 -106.5 -150s-52 -113.167 -68 -175.5s-24 -126.5 -24 -192.5zM612.006 994c0 71.333 13 138.168 39 200.501s62.167 116.666 108.5 162.999s101.166 82.833 164.499 109.5s132.333 40 207 40c22.667 0 47 -1.33301 73 -4s51.333 -6.66699 76 -12
s47 -11.833 67 -19.5s35 -16.5 45 -26.5l-8 -267h-133l-49 149c-6.66699 4.66699 -13.667 9.16699 -21 13.5s-16.5 7.83301 -27.5 10.5s-24.5 4.83398 -40.5 6.50098s-36.333 2.5 -61 2.5c-35.333 0 -66.333 -7.66699 -93 -23s-49.167 -37.333 -67.5 -66
s-32.166 -63 -41.499 -103s-14 -84.667 -14 -134c0 -52 7.83301 -99.5 23.5 -142.5s37.167 -80 64.5 -111s59.666 -55.167 96.999 -72.5s77.666 -26 120.999 -26c42 0 80 7.33301 114 22s64 33.667 90 57l56 -101c-14.667 -18 -33.334 -36.167 -56.001 -54.5
s-48.5 -35 -77.5 -50s-60.333 -27.167 -94 -36.5s-68.5 -14 -104.5 -14c-75.333 0 -141.666 12.167 -198.999 36.5s-105.166 58.166 -143.499 101.499s-67.166 94.833 -86.499 154.5s-29 125.167 -29 196.5z" />
    <glyph glyph-name="ordfeminine" unicode="&#xaa;" horiz-adv-x="1051" 
d="M393 669c-49.333 0 -92.501 7.1709 -129.501 21.5039s-67.833 33.666 -92.5 57.999s-43.334 53.166 -56.001 86.499s-19 69 -19 107c0 50.667 12 94.167 36 130.5s59.833 66.166 107.5 89.499s107 41 178 53s153.833 19 248.5 21v24c0 36.667 -2.66699 67 -8 91
s-14.666 43 -27.999 57s-31.166 23.667 -53.499 29s-50.5 8 -84.5 8c-28.667 0 -56.5 -2.33301 -83.5 -7s-52.667 -10.5 -77 -17.5s-47.166 -14.667 -68.499 -23s-41 -16.5 -59 -24.5l-73 137c20 12.667 46.167 25.667 78.5 39s67.166 25.5 104.499 36.5s75.5 20 114.5 27
s74.833 10.5 107.5 10.5c58.667 0 111.5 -5.83301 158.5 -17.5s86.833 -30.667 119.5 -57s57.834 -61 75.501 -104s26.5 -95.833 26.5 -158.5v-483h103v-103c-12 -3.33301 -26.167 -6.66602 -42.5 -9.99902s-34 -6.66602 -53 -9.99902s-38.333 -6 -58 -8
s-38.834 -3 -57.501 -3s-36 0.666992 -52 2s-29.667 4.66602 -41 9.99902s-20.333 13.5 -27 24.5s-10 26.5 -10 46.5v40c-15.333 -14.667 -32.5 -29.334 -51.5 -44.001s-40.333 -27.834 -64 -39.501s-49.667 -21.167 -78 -28.5s-58.833 -11 -91.5 -11zM499.999 829.004
c16 0 32.5 1.83301 49.5 5.5s33 8.5 48 14.5s28.333 13 40 21s20.834 16 27.501 24l1 -1v234c-60 -2 -109.333 -6.66699 -148 -14s-69.334 -17.5 -92.001 -30.5s-38.5 -29.167 -47.5 -48.5s-13.5 -42 -13.5 -68c0 -39.333 12 -72 36 -98s57 -39 99 -39z" />
    <glyph glyph-name="guillemotleft" unicode="&#xab;" horiz-adv-x="1944" 
d="M992 693l654 451l85 -133l-403 -399l406 -393l-88 -130l-654 439v165zM228 693l654 451l85 -133l-403 -399l406 -393l-88 -130l-654 439v165z" />
    <glyph glyph-name="logicalnot" unicode="&#xac;" horiz-adv-x="1410" 
d="M210 717h990v-557h-215v362h-775v195z" />
    <glyph glyph-name="uni00AD" unicode="&#xad;" horiz-adv-x="1345" 
d="M230 718h885v-203h-885v203z" />
    <glyph glyph-name="registered" unicode="&#xae;" horiz-adv-x="2129" 
d="M194 1003c0 80.667 10.1729 158.5 30.5059 233.5s49.333 145 87 210s82.834 124.167 135.501 177.5s111.167 99 175.5 137s133.666 67.333 207.999 88s152.166 31 233.499 31s159.166 -10.333 233.499 -31s143.833 -50 208.5 -88s123.334 -83.667 176.001 -137
s97.667 -112.5 135 -177.5s66.333 -135 87 -210s31 -152.833 31 -233.5c0 -81.333 -10.333 -159.5 -31 -234.5s-49.667 -145.167 -87 -210.5s-82.333 -124.833 -135 -178.5s-111.334 -99.5 -176.001 -137.5s-134.334 -67.5 -209.001 -88.5s-152.334 -31.5 -233.001 -31.5
s-158.334 10.5 -233.001 31.5s-144.167 50.5 -208.5 88.5s-122.833 83.833 -175.5 137.5s-97.834 113.167 -135.501 178.5s-66.667 135.5 -87 210.5s-30.5 153.167 -30.5 234.5zM366.006 1003c0 -66.667 8 -131 24 -193s38.667 -120.5 68 -175.5
s64.833 -105.167 106.5 -150.5s88.334 -84.333 140.001 -117s107.667 -58 168 -76s124.166 -27 191.499 -27c66.667 0 130.334 9 191.001 27s116.834 43.333 168.501 76s98.334 71.667 140.001 117s77.167 95.5 106.5 150.5s52 113.5 68 175.5s24 126.333 24 193
c0 66 -8 130.167 -24 192.5s-38.667 120.833 -68 175.5s-64.833 104.667 -106.5 150s-88.334 84.333 -140.001 117s-107.834 58 -168.501 76s-124.334 27 -191.001 27c-67.333 0 -131.166 -9 -191.499 -27s-116.333 -43.333 -168 -76s-98.334 -71.667 -140.001 -117
s-77.167 -95.333 -106.5 -150s-52 -113.167 -68 -175.5s-24 -126.5 -24 -192.5zM670.006 621l91.999 27.998v694l-92 24v114h160c20 -0.666992 36.667 -1 50 -1s28.166 0.333008 44.499 1l60.5 2.5c24 1 57 1.83301 99 2.5c56.667 0 108 -5.66699 154 -17
s85.333 -27.5 118 -48.5s57.667 -46.833 75 -77.5s26 -65 26 -103c0 -80 -20 -145 -60 -195s-94.333 -83.667 -163 -101c28.667 -11.333 51.834 -26.666 69.501 -45.999s32.667 -40 45 -62s23.166 -44.667 32.499 -68s19.833 -44.666 31.5 -63.999
s25.834 -35.833 42.501 -49.5s38.667 -22.167 66 -25.5v-110h-175c-31.333 0 -55.5 7.83301 -72.5 23.5s-30.667 35.667 -41 60s-18.833 51.5 -25.5 81.5s-15.5 59.5 -26.5 88.5s-25.667 56 -44 81s-44.166 44.5 -77.499 58.5c-5.33301 0 -12.833 0.166992 -22.5 0.5l-30 1
l-30 1c-9.66699 0.333008 -17.167 0.5 -22.5 0.5v-272l89 -22v-102h-373v102zM954.005 1052c17.333 -4 35.334 -6.50293 54.001 -7.50293s41 -1.5 67 -1.5c24.667 0 47.167 4.33301 67.5 13s38 20.334 53 35.001s26.667 31.834 35 51.501s12.5 40.834 12.5 63.501
c0 56 -15.333 96.167 -46 120.5s-80.334 36.5 -149.001 36.5h-24c-6.66699 0 -13.167 -0.166992 -19.5 -0.5s-13.333 -1.33301 -21 -3s-17.5 -4.16699 -29.5 -7.5v-300z" />
    <glyph glyph-name="macron" unicode="&#xaf;" horiz-adv-x="681" 
d="M51 1614h578v-193h-578v193z" />
    <glyph glyph-name="degree" unicode="&#xb0;" horiz-adv-x="916" 
d="M457 931c-49.333 0 -96 9.49902 -140 28.499s-82.5 45 -115.5 78s-59.167 71.5 -78.5 115.5s-29 90.667 -29 140c0 52 9.66699 100 29 144s45.5 82.167 78.5 114.5s71.5 57.5 115.5 75.5s90.667 27 140 27c53.333 0 102.333 -9.5 147 -28.5s83.167 -45 115.5 -78
s57.5 -71.333 75.5 -115s27 -90.167 27 -139.5c0 -52 -9.5 -100.167 -28.5 -144.5s-45 -82.666 -78 -114.999s-71.667 -57.5 -116 -75.5s-91.833 -27 -142.5 -27zM459 1110c26 0 49.6641 4.50098 70.9971 13.501s39.5 21.667 54.5 38s26.667 35.666 35 57.999
s12.5 46.833 12.5 73.5c0 24.667 -4.5 48 -13.5 70s-21.5 41.333 -37.5 58s-34.667 30 -56 40s-44.333 15 -69 15c-25.333 0 -48.666 -4.66699 -69.999 -14s-39.666 -22.333 -54.999 -39s-27.166 -36 -35.499 -58s-12.5 -46 -12.5 -72c0 -24 4.66699 -47.167 14 -69.5
s22 -41.833 38 -58.5s34.667 -30 56 -40s44 -15 68 -15z" />
    <glyph glyph-name="plusminus" unicode="&#xb1;" horiz-adv-x="1353" 
d="M233 204h332v188l7 143l-172 -7h-191v224h191l172 -12l-7 146v228h223v-228l-9 -146l143 12h222v-224h-222l-143 7l9 -143v-188h330v-204h-885v204z" />
    <glyph glyph-name="two.superior" unicode="&#xb2;" horiz-adv-x="1049" 
d="M94 819c37.333 22.667 76.1689 48.3311 116.502 76.998s79.666 59.334 117.999 92.001s74.666 66.667 108.999 102s64.5 71.333 90.5 108s46.5 73.167 61.5 109.5s22.5 71.833 22.5 106.5c0 50 -15 89.667 -45 119s-76.667 44 -140 44c-30 0 -58.167 -3.33301 -84.5 -10
s-50.333 -15 -72 -25s-41 -20.833 -58 -32.5s-31.167 -22.167 -42.5 -31.5l-74 102c12.667 18 32.5 37.167 59.5 57.5s58.667 39 95 56s76 31 119 42s87.5 16.5 133.5 16.5c64 0 118.5 -8.33301 163.5 -25s81.833 -38.834 110.5 -66.501s49.5 -59.5 62.5 -95.5
s19.5 -73.333 19.5 -112c0 -53.333 -15.167 -107.166 -45.5 -161.499s-70.5 -107.666 -120.5 -159.999s-107.167 -102.5 -171.5 -150.5s-130.5 -92.333 -198.5 -133l421 43l89 148l123 -25l-51 -311h-767z" />
    <glyph glyph-name="three.superior" unicode="&#xb3;" horiz-adv-x="1049" 
d="M142 860c14.667 -6.66699 32 -12.6719 52 -18.0049s40.667 -10 62 -14s42.333 -7 63 -9s38.667 -3 54 -3c90 0 159.333 15.333 208 46s73 77.334 73 140.001c0 18.667 -4.5 37.5 -13.5 56.5s-22.167 36.167 -39.5 51.5s-39.166 28 -65.499 38s-56.5 15 -90.5 15l-110 -34
l-42 121c20.667 3.33301 45.167 9.33301 73.5 18s54.5 18.334 78.5 29.001c48.667 23.333 85 48.5 109 75.5s36 62.167 36 105.5c0 16.667 -2.66699 31.834 -8 45.501s-14.333 25.334 -27 35.001s-29.167 17.167 -49.5 22.5s-45.5 8 -75.5 8
c-44.667 0 -87.667 -8.33301 -129 -25s-75.333 -37 -102 -61l-66 125c14.667 14 34.5 28.333 59.5 43s53.167 28 84.5 40s64.666 21.833 99.999 29.5s71 11.5 107 11.5c54 0 102.833 -5.83301 146.5 -17.5s81 -28 112 -49s54.833 -46.167 71.5 -75.5s25 -62 25 -98
c0 -30 -4.16699 -58.833 -12.5 -86.5s-22 -53.667 -41 -78s-44 -46.5 -75 -66.5s-69.167 -37.333 -114.5 -52c57.333 2.66699 106.166 -3 146.499 -17s73.333 -33 99 -57s44.334 -51.167 56.001 -81.5s17.5 -60.166 17.5 -89.499c0 -46.667 -11 -89.667 -33 -129
s-54.167 -73.333 -96.5 -102s-94.5 -51.167 -156.5 -67.5s-132.667 -24.5 -212 -24.5c-20.667 0 -43.5 1.5 -68.5 4.5s-50 7.33301 -75 13s-49 12 -72 19s-42.833 14.5 -59.5 22.5v140z" />
    <glyph glyph-name="acute" unicode="&#xb4;" horiz-adv-x="681" 
d="M167 1407l351 429.003h1l188 -173c-10.667 -19.333 -26.167 -40.5 -46.5 -63.5s-43.333 -46.5 -69 -70.5s-53 -47.833 -82 -71.5s-57.5 -45.334 -85.5 -65.001s-54.5 -36.834 -79.5 -51.501s-46.5 -25.334 -64.5 -32.001h-2z" />
    <glyph glyph-name="mu" unicode="&#xb5;" horiz-adv-x="1398" 
d="M211 457l-0.00390625 3.99805v512l-117 58v100l378 26l45 -28v-751c0 -26.667 2.66699 -52.834 8 -78.501s14.333 -48.667 27 -69s29.834 -36.666 51.501 -48.999s48.5 -18.5 80.5 -18.5c31.333 0 58.333 3 81 9s41.834 13.167 57.501 21.5s28.334 17 38.001 26
s17.167 16.833 22.5 23.5v730l-130 49l-1 110l394 25l42 -27v-994h110v-127c-10 -5.33301 -25.5 -10.166 -46.5 -14.499s-43.833 -8.16602 -68.5 -11.499s-49 -6 -73 -8s-44 -3 -60 -3c-46 0 -79.333 11 -100 33s-31 51 -31 87v54c-14 -20 -29.833 -40 -47.5 -60
s-37.667 -37.833 -60 -53.5s-47.166 -28.5 -74.499 -38.5s-57.333 -15 -90 -15c-30 0 -58.167 3 -84.5 9s-50.5 13.667 -72.5 23v-384h-279v830z" />
    <glyph glyph-name="paragraph" unicode="&#xb6;" horiz-adv-x="1605" 
d="M338 133l200.997 26.998v619c-73.333 0 -137.166 10.833 -191.499 32.5s-99.333 52.834 -135 93.501s-62.167 90 -79.5 148s-26 123.667 -26 197c0 65.333 12.167 126 36.5 182s60 104.667 107 146s105 73.833 174 97.5s147.833 35.5 236.5 35.5
c44 0 81.667 -0.5 113 -1.5s59.833 -2.16699 85.5 -3.5s50.5 -3 74.5 -5s50.833 -3.66699 80.5 -5s64.167 -2.5 103.5 -3.5s87 -1.5 143 -1.5h171v-135l-156 -23v-1373l132 -27v-133h-380v1531l-40 4.5c-15.333 1.66699 -31.666 3.16699 -48.999 4.5s-35.333 2.5 -54 3.5
s-37 1.5 -55 1.5c-8 0 -16.167 -0.166992 -24.5 -0.5s-14.166 -1.16602 -17.499 -2.49902v-1542h-450v133z" />
    <glyph glyph-name="periodcentered" unicode="&#xb7;" horiz-adv-x="711" 
d="M170 718c0 26.667 5.3291 51.668 15.9961 75.001s25.334 43.666 44.001 60.999s40.334 30.833 65.001 40.5s51 14.5 79 14.5c32.667 0 60.334 -4.33301 83.001 -13s41.167 -20.334 55.5 -35.001s24.666 -31.667 30.999 -51s9.5 -40 9.5 -62
c0 -28.667 -5.16699 -54.667 -15.5 -78s-24.666 -43.333 -42.999 -60s-40.333 -29.5 -66 -38.5s-53.5 -13.5 -83.5 -13.5c-23.333 0 -45.666 3.66699 -66.999 11s-40 18 -56 32s-28.667 30.833 -38 50.5s-14 41.834 -14 66.501z" />
    <glyph glyph-name="cedilla" unicode="&#xb8;" horiz-adv-x="615" 
d="M287 14l43.998 -7.99902c10.667 -10 24.334 -25.167 41.001 -45.5s32.5 -44.333 47.5 -72s27.5 -57.834 37.5 -90.501s14 -66 12 -100c-2 -42.667 -9.83301 -78.167 -23.5 -106.5s-32.834 -51 -57.501 -68s-54.667 -29.167 -90 -36.5s-75.333 -11 -120 -11h-1
c-11.333 0 -23.666 0.666992 -36.999 2s-26.5 3.33301 -39.5 6s-25.333 5.66699 -37 9s-21.834 7 -30.501 11l1 188c14 -4.66699 29.333 -8 46 -10s28.667 -3 36 -3h1c22 0 41.5 1.33301 58.5 4s31.333 8.66699 43 18s20.334 23.333 26.001 42s8.5 43.667 8.5 75
c0 17.333 -2.16699 35.5 -6.5 54.5s-9.66602 37.167 -15.999 54.5s-13 33 -20 47s-12.833 24.667 -17.5 32z" />
    <glyph glyph-name="one.superior" unicode="&#xb9;" horiz-adv-x="1049" 
d="M171 835l265 24v630c-20 -7.33301 -41 -14.166 -63 -20.499s-43.833 -12 -65.5 -17s-42.5 -9.33301 -62.5 -13s-38.333 -6.83398 -55 -9.50098l-41 138c28 8 60 17.833 96 29.5s73.167 25.167 111.5 40.5s75.833 32.5 112.5 51.5s69.667 39.833 99 62.5h4l102 -17v-875
l226 -24v-132h-729v132z" />
    <glyph glyph-name="ordmasculine" unicode="&#xba;" horiz-adv-x="1049" 
d="M525 672c-66 0 -127.332 9.83105 -183.999 29.498s-105.667 49.5 -147 89.5s-73.666 90.5 -96.999 151.5s-34.333 132.5 -33 214.5c1.33301 81.333 16.166 151.333 44.499 210s64.666 106.834 108.999 144.501s94.5 65.334 150.5 83.001s112 26.5 168 26.5
c72 0 136 -10.333 192 -31s103.167 -51 141.5 -91s67.333 -89.5 87 -148.5s29.167 -126.833 28.5 -203.5c-0.666992 -84.667 -15 -157 -43 -217s-63.833 -109 -107.5 -147s-92.667 -66 -147 -84s-108.5 -27 -162.5 -27zM522.001 794.998
c30.667 0 57.1699 3.99902 79.5029 11.999s40.666 24 54.999 48s24.833 58 31.5 102s10 102 10 174c0 58.667 -3.66699 111 -11 157s-18.333 84.833 -33 116.5s-32.834 55.834 -54.501 72.501s-46.5 24.667 -74.5 24c-28.667 -0.666992 -53.834 -7.16699 -75.501 -19.5
s-39.834 -32 -54.501 -59s-25.667 -61.667 -33 -104s-11 -93.833 -11 -154.5c0 -59.333 4.5 -112 13.5 -158s21.333 -84.667 37 -116s33.834 -55 54.501 -71s42.667 -24 66 -24z" />
    <glyph glyph-name="guillemotright" unicode="&#xbb;" horiz-adv-x="1899" 
d="M1672 693l-654 451l-85 -133l403 -399l-406 -393l88 -130l654 439v165zM961 693l-654 451l-85 -133l403 -399l-406 -393l88 -130l654 439v165z" />
    <glyph glyph-name="onequarter" unicode="&#xbc;" horiz-adv-x="2469" 
d="M171 661l265 24v630c-20 -7.33301 -41 -14.166 -63 -20.499s-43.833 -12 -65.5 -17s-42.5 -9.33301 -62.5 -13s-38.333 -6.83398 -55 -9.50098l-41 138c28 8 60 17.833 96 29.5s73.167 25.167 111.5 40.5s75.833 32.5 112.5 51.5s69.667 39.833 99 62.5h4l102 -17v-875
l226 -24v-132h-729v132zM1470 266c5.33301 10.667 15.166 28.833 29.499 54.5l51 91l65 116l73 130l74.5 133l69 125.5l57 106.5c16.667 31.667 29.334 57.167 38.001 76.5h74l169 -84l-381 -572l-85 -131l315 18l15 239l210 17v-243l178 10l1 -181h-179v-224h-226v224h-477
zM773 -172.001l712 1832l196 -16l-711 -1829z" />
    <glyph glyph-name="onehalf" unicode="&#xbd;" horiz-adv-x="2469" 
d="M171 661l265 24v630c-20 -7.33301 -41 -14.166 -63 -20.499s-43.833 -12 -65.5 -17s-42.5 -9.33301 -62.5 -13s-38.333 -6.83398 -55 -9.50098l-41 138c28 8 60 17.833 96 29.5s73.167 25.167 111.5 40.5s75.833 32.5 112.5 51.5s69.667 39.833 99 62.5h4l102 -17v-875
l226 -24v-132h-729v132zM773 -172l712 1832l196 -16l-711 -1829zM1513 117c37.333 22.667 76.1689 48.3311 116.502 76.998s79.666 59.334 117.999 92.001s74.666 66.667 108.999 102s64.5 71.333 90.5 108s46.5 73.167 61.5 109.5s22.5 71.833 22.5 106.5
c0 50 -15 89.667 -45 119s-76.667 44 -140 44c-30 0 -58.167 -3.33301 -84.5 -10s-50.333 -15 -72 -25s-41 -20.833 -58 -32.5s-31.167 -22.167 -42.5 -31.5l-74 102c12.667 18 32.5 37.167 59.5 57.5s58.667 39 95 56s76 31 119 42s87.5 16.5 133.5 16.5
c64 0 118.5 -8.33301 163.5 -25s81.833 -38.834 110.5 -66.501s49.5 -59.5 62.5 -95.5s19.5 -73.333 19.5 -112c0 -53.333 -15.167 -107.166 -45.5 -161.499s-70.5 -107.666 -120.5 -159.999s-107.167 -102.5 -171.5 -150.5s-130.5 -92.333 -198.5 -133l421 43l89 148
l123 -25l-51 -311h-767z" />
    <glyph glyph-name="threequarters" unicode="&#xbe;" horiz-adv-x="2481" 
d="M148 686c14.667 -6.66699 32 -12.6719 52 -18.0049s40.667 -10 62 -14s42.333 -7 63 -9s38.667 -3 54 -3c90 0 159.333 15.333 208 46s73 77.334 73 140.001c0 18.667 -4.5 37.5 -13.5 56.5s-22.167 36.167 -39.5 51.5s-39.166 28 -65.499 38s-56.5 15 -90.5 15l-110 -34
l-42 121c20.667 3.33301 45.167 9.33301 73.5 18s54.5 18.334 78.5 29.001c48.667 23.333 85 48.5 109 75.5s36 62.167 36 105.5c0 16.667 -2.66699 31.834 -8 45.501s-14.333 25.334 -27 35.001s-29.167 17.167 -49.5 22.5s-45.5 8 -75.5 8
c-44.667 0 -87.667 -8.33301 -129 -25s-75.333 -37 -102 -61l-66 125c14.667 14 34.5 28.333 59.5 43s53.167 28 84.5 40s64.666 21.833 99.999 29.5s71 11.5 107 11.5c54 0 102.833 -5.83301 146.5 -17.5s81 -28 112 -49s54.833 -46.167 71.5 -75.5s25 -62 25 -98
c0 -30 -4.16699 -58.833 -12.5 -86.5s-22 -53.667 -41 -78s-44 -46.5 -75 -66.5s-69.167 -37.333 -114.5 -52c57.333 2.66699 106.166 -3 146.499 -17s73.333 -33 99 -57s44.334 -51.167 56.001 -81.5s17.5 -60.166 17.5 -89.499c0 -46.667 -11 -89.667 -33 -129
s-54.167 -73.333 -96.5 -102s-94.5 -51.167 -156.5 -67.5s-132.667 -24.5 -212 -24.5c-20.667 0 -43.5 1.5 -68.5 4.5s-50 7.33301 -75 13s-49 12 -72 19s-42.833 14.5 -59.5 22.5v140zM1470 265.995c5.33301 10.667 15.166 28.833 29.499 54.5l51 91l65 116l73 130
l74.5 133l69 125.5l57 106.5c16.667 31.667 29.334 57.167 38.001 76.5h74l169 -84l-381 -572l-85 -131l315 18l15 239l210 17v-243l178 10l1 -181h-179v-224h-226v224h-477zM773 -172.006l712 1832l196 -16l-711 -1829z" />
    <glyph glyph-name="questiondown" unicode="&#xbf;" horiz-adv-x="1030" 
d="M685 919c11.333 -11.333 23.167 -29.002 35.5 -53.002s24 -50.167 35 -78.5s20.333 -56.833 28 -85.5s12.167 -53.334 13.5 -74.001c0 -39.333 -9.16699 -73.333 -27.5 -102s-42 -54 -71 -76s-61.333 -41.833 -97 -59.5l-105 -52.5
c-34.333 -17.333 -66.166 -35.5 -95.499 -54.5s-52 -41.167 -68 -66.5c0 -4.66699 -0.166992 -9.33398 -0.5 -14.001s-0.5 -9.66699 -0.5 -15c0 -49.333 8.66699 -99 26 -149s43.166 -95.333 77.499 -136s77 -73.667 128 -99s110.5 -38 178.5 -38c32 0 62 1.83301 90 5.5
s48.333 6.83398 61 9.50098l43 -173c-6 -4 -18.667 -8.33301 -38 -13s-42.333 -9 -69 -13s-56 -7.33301 -88 -10s-63.667 -4 -95 -4c-105.333 0 -195.333 15.167 -270 45.5s-135.5 69.5 -182.5 117.5s-81.333 101.833 -103 161.5s-32.5 118.834 -32.5 177.501
c0 56.667 9 105.667 27 147s41 77.833 69 109.5s59.333 59.334 94 83.001s68.667 45.667 102 66s64.333 40.5 93 60.5s51 41.667 67 65c2 5.33301 3.83301 12.833 5.5 22.5s2.5 19.167 2.5 28.5c0 40.667 -2.5 79.834 -7.5 117.501s-11.167 73.5 -18.5 107.5zM653.001 1213
c-9.33301 -17.333 -20.833 -32.1641 -34.5 -44.4971s-28.834 -21.833 -45.501 -28.5s-34.667 -9.83398 -54 -9.50098s-39 4.16602 -59 11.499c-22.667 10 -40.167 21.833 -52.5 35.5s-20.166 28 -23.499 43s-3.33301 30.5 0 46.5s9 31 17 45
c7.33301 19.333 17.833 35.5 31.5 48.5s29.167 22.5 46.5 28.5s36.333 8.66699 57 8s42 -5.33398 64 -14.001c32.667 -18.667 53.667 -43.5 63 -74.5s6 -62.833 -10 -95.5z" />
    <glyph glyph-name="Agrave" unicode="&#xc0;" horiz-adv-x="1441" 
d="M-48 137l129 28l482 1363h321l481 -1363l139 -28v-137h-649v137l163 28l-75 244h-543l-71 -245l165 -27v-137h-541zM895 565l-197 645l-35 146l-32 -146l-186 -645h450zM850 1604c-14.667 4 -33.168 11 -55.501 21s-46.166 21.833 -71.499 35.5s-51.5 29 -78.5 46
s-52.667 34.833 -77 53.5s-46.5 37.5 -66.5 56.5s-35.667 37.833 -47 56.5l197 141h1l317 -322l-118 -88h-1v0z" />
    <glyph glyph-name="Aacute" unicode="&#xc1;" horiz-adv-x="1441" 
d="M-48 137l129 28l482 1363h321l481 -1363l139 -28v-137h-649v137l163 28l-75 244h-543l-71 -245l165 -27v-137h-541zM895 565l-197 645l-35 146l-32 -146l-186 -645h450zM567 1692l316.999 322h1l197 -141c-11.333 -18.667 -27 -37.5 -47 -56.5
s-42.167 -37.833 -66.5 -56.5s-50 -36.5 -77 -53.5s-53.167 -32.333 -78.5 -46s-49.166 -25.5 -71.499 -35.5s-40.833 -17 -55.5 -21h-1z" />
    <glyph glyph-name="Acircumflex" unicode="&#xc2;" horiz-adv-x="1441" 
d="M-48 137l129 28l482 1363h321l481 -1363l139 -28v-137h-649v137l163 28l-75 244h-543l-71 -245l165 -27v-137h-541zM895 565l-197 645l-35 146l-32 -146l-186 -645h450zM330 1701l293 313h200l294 -312l-108 -86l-286 197l-288 -197z" />
    <glyph glyph-name="Atilde" unicode="&#xc3;" horiz-adv-x="1441" 
d="M-48 137l129 28l482 1363h321l481 -1363l139 -28v-137h-649v137l163 28l-75 244h-543l-71 -245l165 -27v-137h-541zM895 565l-197 645l-35 146l-32 -146l-186 -645h450zM267 1794c8.66699 20.667 21.8301 43.667 39.4971 69s39.334 48.666 65.001 69.999
s55.5 39.333 89.5 54s71.667 22 113 22c28.667 0 54.667 -4.16699 78 -12.5s45 -18.666 65 -30.999s38.667 -25.833 56 -40.5s34.333 -28.167 51 -40.5s33.5 -22.666 50.5 -30.999s35.167 -12.5 54.5 -12.5c22.667 0 42 3.66699 58 11s29.667 16.5 41 27.5s21 22.667 29 35
s15.667 23.166 23 32.499l105 -88c-12.667 -26 -27.667 -52 -45 -78s-37.666 -49.167 -60.999 -69.5s-50 -36.833 -80 -49.5s-63.667 -19 -101 -19c-28 0 -53.833 4.16699 -77.5 12.5s-45.667 18.833 -66 31.5s-39.666 26.167 -57.999 40.5s-36.5 27.833 -54.5 40.5
s-36.333 23.167 -55 31.5s-38.334 12.5 -59.001 12.5c-21.333 0 -40.166 -4 -56.499 -12s-30.833 -17.667 -43.5 -29s-23.667 -23 -33 -35l-24 -30z" />
    <glyph glyph-name="Adieresis" unicode="&#xc4;" horiz-adv-x="1441" 
d="M-48 137l129 28l482 1363h321l481 -1363l139 -28v-137h-649v137l163 28l-75 244h-543l-71 -245l165 -27v-137h-541zM895 565l-197 645l-35 146l-32 -146l-186 -645h450zM970 1645c-23.333 0 -44.1709 4.33008 -62.5039 12.9971s-33.666 20.334 -45.999 35.001
s-21.666 31.834 -27.999 51.501s-9.5 40.5 -9.5 62.5c0 26 3.5 50.5 10.5 73.5s17.667 43 32 60s32.333 30.5 54 40.5s47.167 15 76.5 15h1c26.667 0 50 -4.33301 70 -13s36.5 -20.5 49.5 -35.5s22.833 -32.167 29.5 -51.5s10 -39.666 10 -60.999
c0 -26.667 -3.66699 -51.667 -11 -75s-18.666 -43.5 -33.999 -60.5s-34.666 -30.333 -57.999 -40s-51 -14.5 -83 -14.5h-1zM441.995 1645c-23.333 0 -43.998 4.33008 -61.998 12.9971s-33.333 20.334 -46 35.001s-22.167 31.834 -28.5 51.501s-9.5 40.5 -9.5 62.5
c0 26 3.5 50.5 10.5 73.5s17.833 43 32.5 60s32.667 30.5 54 40.5s46.666 15 75.999 15h1c26.667 0 50 -4.33301 70 -13s36.667 -20.5 50 -35.5s23.166 -32.167 29.499 -51.5s9.5 -39.666 9.5 -60.999c0 -26.667 -3.66699 -51.667 -11 -75s-18.5 -43.5 -33.5 -60.5
s-34.333 -30.333 -58 -40s-51.5 -14.5 -83.5 -14.5h-1z" />
    <glyph glyph-name="Aring" unicode="&#xc5;" horiz-adv-x="1441" 
d="M-51 137l129 28l478 1352c-32 10.667 -59.333 24.167 -82 40.5s-41.334 35 -56.001 56s-25.334 43.667 -32.001 68s-9.66699 49.5 -9 75.5c0.666992 41.333 11.334 78 32.001 110s47.834 58.833 81.501 80.5s72 38.167 115 49.5s87.5 17 133.5 17h1
c57.333 0 107.333 -6.66699 150 -20s78 -31.833 106 -55.5s48.833 -51.5 62.5 -83.5s20.5 -66.333 20.5 -103c-1.33301 -58.667 -19.833 -107.5 -55.5 -146.5s-82.167 -68.167 -139.5 -87.5l478 -1353l139 -28v-137h-649v137l163 28l-75 244h-543l-71 -245l165 -27v-137
h-541zM730 1607c30 0 54.835 3.16602 74.502 9.49902s35.5 15.5 47.5 27.5s20.333 26.5 25 43.5s7 36.167 7 57.5c0 20.667 -2.5 40.334 -7.5 59.001s-13.5 35 -25.5 49s-27.833 25.167 -47.5 33.5s-43.834 12.5 -72.501 12.5h-1c-30 0 -55 -3.33301 -75 -10
s-36.167 -16.334 -48.5 -29.001s-21 -27.667 -26 -45s-7.5 -36.666 -7.5 -57.999c0 -18.667 2.66699 -37 8 -55s14.166 -34 26.499 -48s28.5 -25.333 48.5 -34s44.333 -13 73 -13h1zM892.002 564.999l-197 645l-35 146l-32 -146l-186 -645h450z" />
    <glyph glyph-name="AE" unicode="&#xc6;" horiz-adv-x="1934" 
d="M-131 135l146 29l490 1193l-263 31v134h1503l27 -350h-175l-73 201l-401 16v-542l257 4l30 169h167v-492h-167l-30 167l-257 6v-552l485 27l130 266l171 -41l-68 -401h-1195v126l165 25v268h-457l-90 -256l148 -28v-135h-543v135zM811 576v798h-121l-97 -274l-184 -524
h402z" />
    <glyph glyph-name="Ccedilla" unicode="&#xc7;" horiz-adv-x="1370" 
d="M544 -308c14 -4.66699 29.3311 -7.99902 45.998 -9.99902s28.667 -3 36 -3h1c22 0 41.5 1.33301 58.5 4s31.333 8.66699 43 18s20.334 23.333 26.001 42s8.5 43.667 8.5 75c0 14 -1.5 28.333 -4.5 43s-6.66699 29.167 -11 43.5s-9.33301 28 -15 41l-15.5 34.5
c-106 7.33301 -199.667 31.166 -281 71.499s-149.333 94.166 -204 161.499s-96 146.833 -124 238.5s-42 192.5 -42 302.5c0 118 20 225.167 60 321.5s95.333 178.833 166 247.5s154 121.667 250 159s199.667 56 311 56c48 0 93.667 -2.83301 137 -8.5s83.833 -12 121.5 -19
s72 -14.167 103 -21.5s58.167 -12.333 81.5 -15l-23 -398h-205l-60 263c-7.33301 8 -16 15.833 -26 23.5s-22.5 14.167 -37.5 19.5s-33.167 9.66602 -54.5 12.999s-46.666 5 -75.999 5c-57.333 0 -110 -12.5 -158 -37.5s-89.167 -62.667 -123.5 -113s-61 -113.5 -80 -189.5
s-28.5 -165 -28.5 -267c0 -88 7.66699 -172.667 23 -254s38.833 -153.166 70.5 -215.499s71.834 -112.166 120.501 -149.499s106.334 -56 173.001 -56c33.333 0 62 1.83301 86 5.5s44.667 8.5 62 14.5s31.666 13 42.999 21s21 16.667 29 26l91 221l176 -10l-24 -340
c-26 -2 -51.833 -6.5 -77.5 -13.5l-86 -23c-31.667 -8.33301 -67.167 -16.5 -106.5 -24.5s-85.333 -13.333 -138 -16c12 -14 25 -31.167 39 -51.5s26.667 -42.833 38 -67.5s20.5 -50.667 27.5 -78s9.83301 -55.333 8.5 -84c-2 -42.667 -9.83301 -78.167 -23.5 -106.5
s-32.834 -51 -57.501 -68s-54.667 -29.167 -90 -36.5s-75.333 -11 -120 -11h-1c-11.333 0 -23.666 0.666992 -36.999 2s-26.5 3.33301 -39.5 6s-25.333 5.66699 -37 9s-21.834 7 -30.501 11l1 188v0z" />
    <glyph glyph-name="Egrave" unicode="&#xc8;" horiz-adv-x="1379" 
d="M741 1604c-14.667 4 -33.168 11 -55.501 21s-46.166 21.833 -71.499 35.5s-51.5 29 -78.5 46s-52.667 34.833 -77 53.5s-46.5 37.5 -66.5 56.5s-35.667 37.833 -47 56.5l197 141h1l317 -322l-118 -88h-1v0zM84.999 137l164 27v1193l-162 31v134h1101l23 -347h-171
l-73 194l-398 20v-542l260 4l30 168h173v-491h-173l-30 168l-260 5v-548l479 23l123 264l171 -39l-58 -401h-1199v137z" />
    <glyph glyph-name="Eacute" unicode="&#xc9;" horiz-adv-x="1379" 
d="M544 1692l316.999 322h1l197 -141c-11.333 -18.667 -27 -37.5 -47 -56.5s-42.167 -37.833 -66.5 -56.5s-50 -36.5 -77 -53.5s-53.167 -32.333 -78.5 -46s-49.166 -25.5 -71.499 -35.5s-40.833 -17 -55.5 -21h-1zM84.999 137l164 27v1193l-162 31v134h1101l23 -347h-171
l-73 194l-398 20v-542l260 4l30 168h173v-491h-173l-30 168l-260 5v-548l479 23l123 264l171 -39l-58 -401h-1199v137z" />
    <glyph glyph-name="Ecircumflex" unicode="&#xca;" horiz-adv-x="1379" 
d="M85 137l164 27v1193l-162 31v134h1101l23 -347h-171l-73 194l-398 20v-542l260 4l30 168h173v-491h-173l-30 168l-260 5v-548l479 23l123 264l171 -39l-58 -401h-1199v137zM301 1701l293 313h200l294 -312l-108 -86l-286 197l-288 -197z" />
    <glyph glyph-name="Edieresis" unicode="&#xcb;" horiz-adv-x="1379" 
d="M940 1645c-23.333 0 -44.1709 4.33008 -62.5039 12.9971s-33.666 20.334 -45.999 35.001s-21.666 31.834 -27.999 51.501s-9.5 40.5 -9.5 62.5c0 26 3.5 50.5 10.5 73.5s17.667 43 32 60s32.333 30.5 54 40.5s47.167 15 76.5 15h1c26.667 0 50 -4.33301 70 -13
s36.5 -20.5 49.5 -35.5s22.833 -32.167 29.5 -51.5s10 -39.666 10 -60.999c0 -26.667 -3.66699 -51.667 -11 -75s-18.666 -43.5 -33.999 -60.5s-34.666 -30.333 -57.999 -40s-51 -14.5 -83 -14.5h-1zM411.995 1645c-23.333 0 -43.998 4.33008 -61.998 12.9971
s-33.333 20.334 -46 35.001s-22.167 31.834 -28.5 51.501s-9.5 40.5 -9.5 62.5c0 26 3.5 50.5 10.5 73.5s17.833 43 32.5 60s32.667 30.5 54 40.5s46.666 15 75.999 15h1c26.667 0 50 -4.33301 70 -13s36.667 -20.5 50 -35.5s23.166 -32.167 29.499 -51.5
s9.5 -39.666 9.5 -60.999c0 -26.667 -3.66699 -51.667 -11 -75s-18.5 -43.5 -33.5 -60.5s-34.333 -30.333 -58 -40s-51.5 -14.5 -83.5 -14.5h-1zM84.9971 136.994l164 27v1193l-162 31v134h1101l23 -347h-171l-73 194l-398 20v-542l260 4l30 168h173v-491h-173l-30 168
l-260 5v-548l479 23l123 264l171 -39l-58 -401h-1199v137z" />
    <glyph glyph-name="Igrave" unicode="&#xcc;" horiz-adv-x="845" 
d="M88 137l176 28v1192l-176 31v134h668v-134l-175 -31v-1192l175 -30v-135h-668v137zM558 1604c-14.667 4 -33.168 11 -55.501 21s-46.166 21.833 -71.499 35.5s-51.5 29 -78.5 46s-52.667 34.833 -77 53.5s-46.5 37.5 -66.5 56.5s-35.667 37.833 -47 56.5l197 141h1
l317 -322l-118 -88h-1v0z" />
    <glyph glyph-name="Iacute" unicode="&#xcd;" horiz-adv-x="845" 
d="M88 137l176 28v1192l-176 31v134h668v-134l-175 -31v-1192l175 -30v-135h-668v137zM278 1692l316.999 322h1l197 -141c-11.333 -18.667 -27 -37.5 -47 -56.5s-42.167 -37.833 -66.5 -56.5s-50 -36.5 -77 -53.5s-53.167 -32.333 -78.5 -46s-49.166 -25.5 -71.499 -35.5
s-40.833 -17 -55.5 -21h-1z" />
    <glyph glyph-name="Icircumflex" unicode="&#xce;" horiz-adv-x="845" 
d="M88 137l176 28v1192l-176 31v134h668v-134l-175 -31v-1192l175 -30v-135h-668v137zM41 1701l293 313h200l294 -312l-108 -86l-286 197l-288 -197z" />
    <glyph glyph-name="Idieresis" unicode="&#xcf;" horiz-adv-x="845" 
d="M88 137l176 28v1192l-176 31v134h668v-134l-175 -31v-1192l175 -30v-135h-668v137zM680 1645c-23.333 0 -44.1709 4.33008 -62.5039 12.9971s-33.666 20.334 -45.999 35.001s-21.666 31.834 -27.999 51.501s-9.5 40.5 -9.5 62.5c0 26 3.5 50.5 10.5 73.5s17.667 43 32 60
s32.333 30.5 54 40.5s47.167 15 76.5 15h1c26.667 0 50 -4.33301 70 -13s36.5 -20.5 49.5 -35.5s22.833 -32.167 29.5 -51.5s10 -39.666 10 -60.999c0 -26.667 -3.66699 -51.667 -11 -75s-18.666 -43.5 -33.999 -60.5s-34.666 -30.333 -57.999 -40s-51 -14.5 -83 -14.5h-1z
M151.995 1645c-23.333 0 -43.998 4.33008 -61.998 12.9971s-33.333 20.334 -46 35.001s-22.167 31.834 -28.5 51.501s-9.5 40.5 -9.5 62.5c0 26 3.5 50.5 10.5 73.5s17.833 43 32.5 60s32.667 30.5 54 40.5s46.666 15 75.999 15h1c26.667 0 50 -4.33301 70 -13
s36.667 -20.5 50 -35.5s23.166 -32.167 29.499 -51.5s9.5 -39.666 9.5 -60.999c0 -26.667 -3.66699 -51.667 -11 -75s-18.5 -43.5 -33.5 -60.5s-34.333 -30.333 -58 -40s-51.5 -14.5 -83.5 -14.5h-1z" />
    <glyph glyph-name="Eth" unicode="&#xd0;" horiz-adv-x="1593" 
d="M85 137l164.003 26.9941v551h-156v146h156v497l-157 30v134h312c37.333 0 71 0.666992 101 2s59.833 2.83301 89.5 4.5s60.667 3.16699 93 4.5s69.166 2 110.499 2c128 0 238 -16.167 330 -48.5s167.667 -79.166 227 -140.499s103 -136.5 131 -225.5s42 -190.5 42 -304.5
c0 -125.333 -18.5 -239.666 -55.5 -342.999s-89 -191.666 -156 -264.999s-147.667 -129.666 -242 -168.999s-198.5 -57.666 -312.5 -54.999c-25.333 0.666992 -53 1.83398 -83 3.50098s-60.833 3.5 -92.5 5.5s-62.834 3.66699 -93.501 5s-59.334 2 -86.001 2h-322v137z
M570.003 144.994c26.667 -9.33301 55.667 -15.002 87 -17.002s65.333 -2.33301 102 -1c64 0.666992 122.333 14.334 175 41.001s98 66.334 136 119.001s67.5 118.667 88.5 198s31.5 172 31.5 278c0 101.333 -9.16699 191.5 -27.5 270.5s-46.5 145.5 -84.5 199.5
s-86.5 95.167 -145.5 123.5s-129.167 42.5 -210.5 42.5c-38 0 -69.667 -1.5 -95 -4.5s-44.333 -5.5 -57 -7.5v-526h280v-146h-280v-570z" />
    <glyph glyph-name="Ntilde" unicode="&#xd1;" horiz-adv-x="1649" 
d="M406 1794c8.66699 20.667 21.8301 43.667 39.4971 69s39.334 48.666 65.001 69.999s55.5 39.333 89.5 54s71.667 22 113 22c28.667 0 54.667 -4.16699 78 -12.5s45 -18.666 65 -30.999s38.667 -25.833 56 -40.5s34.333 -28.167 51 -40.5s33.5 -22.666 50.5 -30.999
s35.167 -12.5 54.5 -12.5c22.667 0 42 3.66699 58 11s29.667 16.5 41 27.5s21 22.667 29 35s15.667 23.166 23 32.499l105 -88c-12.667 -26 -27.667 -52 -45 -78s-37.666 -49.167 -60.999 -69.5s-50 -36.833 -80 -49.5s-63.667 -19 -101 -19
c-28 0 -53.833 4.16699 -77.5 12.5s-45.667 18.833 -66 31.5s-39.666 26.167 -57.999 40.5s-36.5 27.833 -54.5 40.5s-36.333 23.167 -55 31.5s-38.334 12.5 -59.001 12.5c-21.333 0 -40.166 -4 -56.499 -12s-30.833 -17.667 -43.5 -29s-23.667 -23 -33 -35l-24 -30z
M54.9961 137l185 27v1193l-185 31v134h477l631 -889l106 -212v936l-195 31v134h557v-134l-177 -31v-1357h-228l-668 956l-133 254v-1045l205 -28v-137h-575v137z" />
    <glyph glyph-name="Ograve" unicode="&#xd2;" horiz-adv-x="1515" 
d="M886 1604c-14.667 4 -33.168 11 -55.501 21s-46.166 21.833 -71.499 35.5s-51.5 29 -78.5 46s-52.667 34.833 -77 53.5s-46.5 37.5 -66.5 56.5s-35.667 37.833 -47 56.5l197 141h1l317 -322l-118 -88h-1v0zM745.999 -23c-116 -1.33301 -216.833 15.999 -302.5 51.999
s-156.5 87.333 -212.5 154s-97.833 147.5 -125.5 242.5s-41.5 201.167 -41.5 318.5c0 120.667 17 230 51 328s82.167 181.833 144.5 251.5s137.166 123.334 224.499 161.001s184.333 56.5 291 56.5c117.333 0 218.5 -17.833 303.5 -53.5s155 -86.834 210 -153.501
s95.667 -147.167 122 -241.5s39.5 -200.166 39.5 -317.499c0 -120.667 -17 -230 -51 -328s-81.833 -181.667 -143.5 -251s-135.667 -123 -222 -161s-182.166 -57.333 -287.499 -58zM755.999 114.999c52.667 0 100.501 13.6689 143.501 41.002s79.667 68.333 110 123
s53.666 123.167 69.999 205.5s24.5 178.833 24.5 289.5c0 110 -8 204.833 -24 284.5s-38.833 145 -68.5 196s-65.834 88.667 -108.501 113s-91 36.5 -145 36.5c-53.333 0 -101.5 -13.5 -144.5 -40.5s-79.667 -67.833 -110 -122.5s-53.666 -123.334 -69.999 -206.001
s-24.5 -179.334 -24.5 -290.001c0 -111.333 8 -206.833 24 -286.5s39 -145 69 -196s66.333 -88.333 109 -112s91 -35.5 145 -35.5z" />
    <glyph glyph-name="Oacute" unicode="&#xd3;" horiz-adv-x="1515" 
d="M603 1692l316.999 322h1l197 -141c-11.333 -18.667 -27 -37.5 -47 -56.5s-42.167 -37.833 -66.5 -56.5s-50 -36.5 -77 -53.5s-53.167 -32.333 -78.5 -46s-49.166 -25.5 -71.499 -35.5s-40.833 -17 -55.5 -21h-1zM745.999 -23
c-116 -1.33301 -216.833 15.999 -302.5 51.999s-156.5 87.333 -212.5 154s-97.833 147.5 -125.5 242.5s-41.5 201.167 -41.5 318.5c0 120.667 17 230 51 328s82.167 181.833 144.5 251.5s137.166 123.334 224.499 161.001s184.333 56.5 291 56.5
c117.333 0 218.5 -17.833 303.5 -53.5s155 -86.834 210 -153.501s95.667 -147.167 122 -241.5s39.5 -200.166 39.5 -317.499c0 -120.667 -17 -230 -51 -328s-81.833 -181.667 -143.5 -251s-135.667 -123 -222 -161s-182.166 -57.333 -287.499 -58zM755.999 114.999
c52.667 0 100.501 13.6689 143.501 41.002s79.667 68.333 110 123s53.666 123.167 69.999 205.5s24.5 178.833 24.5 289.5c0 110 -8 204.833 -24 284.5s-38.833 145 -68.5 196s-65.834 88.667 -108.501 113s-91 36.5 -145 36.5c-53.333 0 -101.5 -13.5 -144.5 -40.5
s-79.667 -67.833 -110 -122.5s-53.666 -123.334 -69.999 -206.001s-24.5 -179.334 -24.5 -290.001c0 -111.333 8 -206.833 24 -286.5s39 -145 69 -196s66.333 -88.333 109 -112s91 -35.5 145 -35.5z" />
    <glyph glyph-name="Ocircumflex" unicode="&#xd4;" horiz-adv-x="1515" 
d="M746 -23c-116 -1.33301 -216.833 15.999 -302.5 51.999s-156.5 87.333 -212.5 154s-97.833 147.5 -125.5 242.5s-41.5 201.167 -41.5 318.5c0 120.667 17 230 51 328s82.167 181.833 144.5 251.5s137.166 123.334 224.499 161.001s184.333 56.5 291 56.5
c117.333 0 218.5 -17.833 303.5 -53.5s155 -86.834 210 -153.501s95.667 -147.167 122 -241.5s39.5 -200.166 39.5 -317.499c0 -120.667 -17 -230 -51 -328s-81.833 -181.667 -143.5 -251s-135.667 -123 -222 -161s-182.166 -57.333 -287.499 -58zM756 114.999
c52.667 0 100.501 13.6689 143.501 41.002s79.667 68.333 110 123s53.666 123.167 69.999 205.5s24.5 178.833 24.5 289.5c0 110 -8 204.833 -24 284.5s-38.833 145 -68.5 196s-65.834 88.667 -108.501 113s-91 36.5 -145 36.5c-53.333 0 -101.5 -13.5 -144.5 -40.5
s-79.667 -67.833 -110 -122.5s-53.666 -123.334 -69.999 -206.001s-24.5 -179.334 -24.5 -290.001c0 -111.333 8 -206.833 24 -286.5s39 -145 69 -196s66.333 -88.333 109 -112s91 -35.5 145 -35.5zM366.001 1701l293 313h200l294 -312l-108 -86l-286 197l-288 -197z" />
    <glyph glyph-name="Otilde" unicode="&#xd5;" horiz-adv-x="1515" 
d="M303 1794c8.66699 20.667 21.8301 43.667 39.4971 69s39.334 48.666 65.001 69.999s55.5 39.333 89.5 54s71.667 22 113 22c28.667 0 54.667 -4.16699 78 -12.5s45 -18.666 65 -30.999s38.667 -25.833 56 -40.5s34.333 -28.167 51 -40.5s33.5 -22.666 50.5 -30.999
s35.167 -12.5 54.5 -12.5c22.667 0 42 3.66699 58 11s29.667 16.5 41 27.5s21 22.667 29 35s15.667 23.166 23 32.499l105 -88c-12.667 -26 -27.667 -52 -45 -78s-37.666 -49.167 -60.999 -69.5s-50 -36.833 -80 -49.5s-63.667 -19 -101 -19
c-28 0 -53.833 4.16699 -77.5 12.5s-45.667 18.833 -66 31.5s-39.666 26.167 -57.999 40.5s-36.5 27.833 -54.5 40.5s-36.333 23.167 -55 31.5s-38.334 12.5 -59.001 12.5c-21.333 0 -40.166 -4 -56.499 -12s-30.833 -17.667 -43.5 -29s-23.667 -23 -33 -35l-24 -30z
M745.996 -23c-116 -1.33301 -216.833 15.999 -302.5 51.999s-156.5 87.333 -212.5 154s-97.833 147.5 -125.5 242.5s-41.5 201.167 -41.5 318.5c0 120.667 17 230 51 328s82.167 181.833 144.5 251.5s137.166 123.334 224.499 161.001s184.333 56.5 291 56.5
c117.333 0 218.5 -17.833 303.5 -53.5s155 -86.834 210 -153.501s95.667 -147.167 122 -241.5s39.5 -200.166 39.5 -317.499c0 -120.667 -17 -230 -51 -328s-81.833 -181.667 -143.5 -251s-135.667 -123 -222 -161s-182.166 -57.333 -287.499 -58zM755.996 114.999
c52.667 0 100.501 13.6689 143.501 41.002s79.667 68.333 110 123s53.666 123.167 69.999 205.5s24.5 178.833 24.5 289.5c0 110 -8 204.833 -24 284.5s-38.833 145 -68.5 196s-65.834 88.667 -108.501 113s-91 36.5 -145 36.5c-53.333 0 -101.5 -13.5 -144.5 -40.5
s-79.667 -67.833 -110 -122.5s-53.666 -123.334 -69.999 -206.001s-24.5 -179.334 -24.5 -290.001c0 -111.333 8 -206.833 24 -286.5s39 -145 69 -196s66.333 -88.333 109 -112s91 -35.5 145 -35.5z" />
    <glyph glyph-name="Odieresis" unicode="&#xd6;" horiz-adv-x="1515" 
d="M1006 1645c-23.333 0 -44.1709 4.33008 -62.5039 12.9971s-33.666 20.334 -45.999 35.001s-21.666 31.834 -27.999 51.501s-9.5 40.5 -9.5 62.5c0 26 3.5 50.5 10.5 73.5s17.667 43 32 60s32.333 30.5 54 40.5s47.167 15 76.5 15h1c26.667 0 50 -4.33301 70 -13
s36.5 -20.5 49.5 -35.5s22.833 -32.167 29.5 -51.5s10 -39.666 10 -60.999c0 -26.667 -3.66699 -51.667 -11 -75s-18.666 -43.5 -33.999 -60.5s-34.666 -30.333 -57.999 -40s-51 -14.5 -83 -14.5h-1zM477.995 1645c-23.333 0 -43.998 4.33008 -61.998 12.9971
s-33.333 20.334 -46 35.001s-22.167 31.834 -28.5 51.501s-9.5 40.5 -9.5 62.5c0 26 3.5 50.5 10.5 73.5s17.833 43 32.5 60s32.667 30.5 54 40.5s46.666 15 75.999 15h1c26.667 0 50 -4.33301 70 -13s36.667 -20.5 50 -35.5s23.166 -32.167 29.499 -51.5
s9.5 -39.666 9.5 -60.999c0 -26.667 -3.66699 -51.667 -11 -75s-18.5 -43.5 -33.5 -60.5s-34.333 -30.333 -58 -40s-51.5 -14.5 -83.5 -14.5h-1zM745.997 -23.0059c-116 -1.33301 -216.833 15.999 -302.5 51.999s-156.5 87.333 -212.5 154s-97.833 147.5 -125.5 242.5
s-41.5 201.167 -41.5 318.5c0 120.667 17 230 51 328s82.167 181.833 144.5 251.5s137.166 123.334 224.499 161.001s184.333 56.5 291 56.5c117.333 0 218.5 -17.833 303.5 -53.5s155 -86.834 210 -153.501s95.667 -147.167 122 -241.5s39.5 -200.166 39.5 -317.499
c0 -120.667 -17 -230 -51 -328s-81.833 -181.667 -143.5 -251s-135.667 -123 -222 -161s-182.166 -57.333 -287.499 -58zM755.997 114.993c52.667 0 100.501 13.6689 143.501 41.002s79.667 68.333 110 123s53.666 123.167 69.999 205.5s24.5 178.833 24.5 289.5
c0 110 -8 204.833 -24 284.5s-38.833 145 -68.5 196s-65.834 88.667 -108.501 113s-91 36.5 -145 36.5c-53.333 0 -101.5 -13.5 -144.5 -40.5s-79.667 -67.833 -110 -122.5s-53.666 -123.334 -69.999 -206.001s-24.5 -179.334 -24.5 -290.001
c0 -111.333 8 -206.833 24 -286.5s39 -145 69 -196s66.333 -88.333 109 -112s91 -35.5 145 -35.5z" />
    <glyph glyph-name="multiply" unicode="&#xd7;" horiz-adv-x="1240" 
d="M135 300l338 316l-342 316l174 182l315 -351l314 351l171 -181l-338 -317l338 -316l-171 -180l-314 349l-314 -349z" />
    <glyph glyph-name="Oslash" unicode="&#xd8;" horiz-adv-x="1511" 
d="M412 43c-58.667 28 -109.832 64.332 -153.499 108.999s-79.834 96.834 -108.501 156.501s-50.167 126 -64.5 199s-21.5 151.833 -21.5 236.5c0 120.667 17 230 51 328s82.167 181.833 144.5 251.5s137.166 123.334 224.499 161.001s184.333 56.5 291 56.5
c68.667 0 133.334 -6.66699 194.001 -20l83 220l141 -48l-86 -219c58.667 -28 109.667 -64.333 153 -109s79 -96.667 107 -156s48.833 -125.333 62.5 -198s20.5 -151.334 20.5 -236.001c0 -120.667 -17 -230 -51 -328s-81.833 -181.667 -143.5 -251s-135.667 -123 -222 -161
s-182.166 -57.333 -287.499 -58c-34 0 -66.333 1.33301 -97 4s-60.334 7 -89.001 13l-93 -232l-150 46zM911.002 1363c-44 27.333 -95 41.001 -153 41.001c-53.333 0 -101.5 -13.5 -144.5 -40.5s-79.667 -67.833 -110 -122.5s-53.666 -123.334 -69.999 -206.001
s-24.5 -179.334 -24.5 -290.001c0 -121.333 9.16699 -223.666 27.5 -306.999s45.166 -150 80.499 -200zM612.002 150c40.667 -23.333 88.6689 -34.999 144.002 -34.999c52.667 0 100.5 13.667 143.5 41s79.667 68.333 110 123s53.666 123.167 69.999 205.5
s24.5 178.833 24.5 289.5c0 116.667 -8.83301 215.667 -26.5 297s-42.834 147.666 -75.501 198.999z" />
    <glyph glyph-name="Ugrave" unicode="&#xd9;" horiz-adv-x="1525" 
d="M957 1604c-14.667 4 -33.168 11 -55.501 21s-46.166 21.833 -71.499 35.5s-51.5 29 -78.5 46s-52.667 34.833 -77 53.5s-46.5 37.5 -66.5 56.5s-35.667 37.833 -47 56.5l197 141h1l317 -322l-118 -88h-1v0zM166.999 1356l-140 32.001v134h641v-134l-171 -31v-766
c0 -78 7.33301 -146.333 22 -205s35.5 -107.334 62.5 -146.001s60 -67.667 99 -87s82.5 -29 130.5 -29c60.667 0 113 12.167 157 36.5s80 57.5 108 99.5s48.667 91.5 62 148.5s20 118.167 20 183.5v765l-169 31v134h510v-134l-137 -30v-758
c0 -108 -14.5 -200.833 -43.5 -278.5s-69 -141.5 -120 -191.5s-111.5 -86.833 -181.5 -110.5s-145.667 -35.5 -227 -35.5c-209.333 0 -365.5 52 -468.5 156s-154.5 266 -154.5 486v730z" />
    <glyph glyph-name="Uacute" unicode="&#xda;" horiz-adv-x="1525" 
d="M674 1692l316.999 322h1l197 -141c-11.333 -18.667 -27 -37.5 -47 -56.5s-42.167 -37.833 -66.5 -56.5s-50 -36.5 -77 -53.5s-53.167 -32.333 -78.5 -46s-49.166 -25.5 -71.499 -35.5s-40.833 -17 -55.5 -21h-1zM166.999 1356l-140 32.001v134h641v-134l-171 -31v-766
c0 -78 7.33301 -146.333 22 -205s35.5 -107.334 62.5 -146.001s60 -67.667 99 -87s82.5 -29 130.5 -29c60.667 0 113 12.167 157 36.5s80 57.5 108 99.5s48.667 91.5 62 148.5s20 118.167 20 183.5v765l-169 31v134h510v-134l-137 -30v-758
c0 -108 -14.5 -200.833 -43.5 -278.5s-69 -141.5 -120 -191.5s-111.5 -86.833 -181.5 -110.5s-145.667 -35.5 -227 -35.5c-209.333 0 -365.5 52 -468.5 156s-154.5 266 -154.5 486v730z" />
    <glyph glyph-name="Ucircumflex" unicode="&#xdb;" horiz-adv-x="1525" 
d="M167 1356l-140 32.001v134h641v-134l-171 -31v-766c0 -78 7.33301 -146.333 22 -205s35.5 -107.334 62.5 -146.001s60 -67.667 99 -87s82.5 -29 130.5 -29c60.667 0 113 12.167 157 36.5s80 57.5 108 99.5s48.667 91.5 62 148.5s20 118.167 20 183.5v765l-169 31v134h510
v-134l-137 -30v-758c0 -108 -14.5 -200.833 -43.5 -278.5s-69 -141.5 -120 -191.5s-111.5 -86.833 -181.5 -110.5s-145.667 -35.5 -227 -35.5c-209.333 0 -365.5 52 -468.5 156s-154.5 266 -154.5 486v730zM437 1701l293 313h200l294 -312l-108 -86l-286 197l-288 -197z" />
    <glyph glyph-name="Udieresis" unicode="&#xdc;" horiz-adv-x="1525" 
d="M1077 1645c-23.333 0 -44.1709 4.33008 -62.5039 12.9971s-33.666 20.334 -45.999 35.001s-21.666 31.834 -27.999 51.501s-9.5 40.5 -9.5 62.5c0 26 3.5 50.5 10.5 73.5s17.667 43 32 60s32.333 30.5 54 40.5s47.167 15 76.5 15h1c26.667 0 50 -4.33301 70 -13
s36.5 -20.5 49.5 -35.5s22.833 -32.167 29.5 -51.5s10 -39.666 10 -60.999c0 -26.667 -3.66699 -51.667 -11 -75s-18.666 -43.5 -33.999 -60.5s-34.666 -30.333 -57.999 -40s-51 -14.5 -83 -14.5h-1zM548.995 1645c-23.333 0 -43.998 4.33008 -61.998 12.9971
s-33.333 20.334 -46 35.001s-22.167 31.834 -28.5 51.501s-9.5 40.5 -9.5 62.5c0 26 3.5 50.5 10.5 73.5s17.833 43 32.5 60s32.667 30.5 54 40.5s46.666 15 75.999 15h1c26.667 0 50 -4.33301 70 -13s36.667 -20.5 50 -35.5s23.166 -32.167 29.499 -51.5
s9.5 -39.666 9.5 -60.999c0 -26.667 -3.66699 -51.667 -11 -75s-18.5 -43.5 -33.5 -60.5s-34.333 -30.333 -58 -40s-51.5 -14.5 -83.5 -14.5h-1zM166.997 1355.99l-140 32.001v134h641v-134l-171 -31v-766c0 -78 7.33301 -146.333 22 -205s35.5 -107.334 62.5 -146.001
s60 -67.667 99 -87s82.5 -29 130.5 -29c60.667 0 113 12.167 157 36.5s80 57.5 108 99.5s48.667 91.5 62 148.5s20 118.167 20 183.5v765l-169 31v134h510v-134l-137 -30v-758c0 -108 -14.5 -200.833 -43.5 -278.5s-69 -141.5 -120 -191.5s-111.5 -86.833 -181.5 -110.5
s-145.667 -35.5 -227 -35.5c-209.333 0 -365.5 52 -468.5 156s-154.5 266 -154.5 486v730z" />
    <glyph glyph-name="Yacute" unicode="&#xdd;" horiz-adv-x="1359" 
d="M303 137l227 27v433l-445 760l-122 31v134h621v-134l-140 -31l263 -516l43 -130l54 125l248 521l-165 31v134h506v-134l-143 -31l-383 -758v-435l238 -27v-137h-802v137zM552 1692l316.999 322h1l197 -141c-11.333 -18.667 -27 -37.5 -47 -56.5
s-42.167 -37.833 -66.5 -56.5s-50 -36.5 -77 -53.5s-53.167 -32.333 -78.5 -46s-49.166 -25.5 -71.499 -35.5s-40.833 -17 -55.5 -21h-1z" />
    <glyph glyph-name="Thorn" unicode="&#xde;" horiz-adv-x="1409" 
d="M85 126l164 26.999v1215l-162 31v123h649v-123l-172 -31v-196c26.667 2 52 4.16699 76 6.5s48.5 4.5 73.5 6.5s51 3.66699 78 5s57.167 2 90.5 2c160.667 0 283.334 -32 368.001 -96s127 -164.333 127 -301c0 -79.333 -12.833 -148 -38.5 -206
s-62.5 -105.833 -110.5 -143.5s-106.333 -65.667 -175 -84s-146 -27.5 -232 -27.5c-58.667 0 -109.334 1.33301 -152.001 4s-77.667 5.33398 -105 8.00098v-193l205 -27v-126h-684v126zM564 477.999c40 -5.33301 76.334 -8.16504 109.001 -8.49805s65 -0.5 97 -0.5
c38 0 73.5 5.16699 106.5 15.5s61.667 27.666 86 51.999s43.5 56.5 57.5 96.5s21 89.667 21 149c0 43.333 -5.33301 81.666 -16 114.999s-28 61.333 -52 84s-55.167 39.667 -93.5 51s-85.166 16.666 -140.499 15.999c-34.667 -0.666992 -66.834 -2.66699 -96.501 -6
s-55.834 -6.66602 -78.501 -9.99902v-554z" />
    <glyph glyph-name="germandbls" unicode="&#xdf;" horiz-adv-x="1334" 
d="M34 137l130.998 23.0049v787c0 97.333 15.5 186.666 46.5 267.999s74 151.166 129 209.499s120.5 103.833 196.5 136.5s159.333 49 250 49c66.667 0 124.167 -6.83301 172.5 -20.5s88.166 -33 119.499 -58s54.5 -55.167 69.5 -90.5s22.5 -75 22.5 -119
c0 -36.667 -5.33301 -69 -16 -97s-24 -53.167 -40 -75.5s-33.167 -42.833 -51.5 -61.5l-51.5 -53.5c-16 -17 -29.333 -34.333 -40 -52s-16 -36.5 -16 -56.5c0 -26.667 8.5 -51.834 25.5 -75.501s38.167 -47.834 63.5 -72.501l82.5 -77.5c29.667 -27 57.167 -57.333 82.5 -91
s46.5 -71.5 63.5 -113.5s25.5 -90 25.5 -144c0 -57.333 -11 -109.166 -33 -155.499s-53.667 -85.833 -95 -118.5s-92 -57.667 -152 -75s-128 -26 -204 -26c-12 0 -26.333 0.833008 -43 2.5s-33.334 3.66699 -50.001 6s-32.167 4.83301 -46.5 7.5s-25.166 5 -32.499 7v175
c19.333 -8.66699 43.833 -16 73.5 -22s59.834 -9 90.501 -9c28 0 52.667 3.83301 74 11.5s39.166 18 53.499 31s25.166 28.333 32.499 46s11 36.834 11 57.501c0 41.333 -7.16699 78.166 -21.5 110.499s-32.166 62.5 -53.499 90.5s-44.5 54.667 -69.5 80
s-48.167 51.5 -69.5 78.5s-39.166 55.833 -53.499 86.5s-21.5 65 -21.5 103c0 29.333 4.66699 55 14 77s21 42.833 35 62.5s29.167 39.167 45.5 58.5s31.5 40.666 45.5 63.999s25.667 49.666 35 78.999s14 64.333 14 105c0 118 -52 177 -156 177
c-43.333 0 -80.666 -10.667 -111.999 -32s-57.166 -52.333 -77.499 -93s-35.333 -90.5 -45 -149.5s-14.5 -125.833 -14.5 -200.5v-987h-439v137z" />
    <glyph glyph-name="agrave" unicode="&#xe0;" horiz-adv-x="1167" 
d="M62 304c0 48.667 8.8291 92.001 26.4961 130.001s42 71.333 73 100s67.5 53 109.5 73s87.333 36.5 136 49.5s99.334 22.5 152.001 28.5s105.334 9.66699 158.001 11v48c0 38 -3.83301 70.5 -11.5 97.5s-19.5 49 -35.5 66s-36.5 29.333 -61.5 37s-55.167 11.5 -90.5 11.5
c-36 0 -72.167 -2.83301 -108.5 -8.5s-71.166 -12.667 -104.499 -21s-64.166 -17.666 -92.499 -27.999s-52.5 -20.166 -72.5 -29.499h-1l-59 134c14 11.333 37.667 26.166 71 44.499s73.333 36.166 120 53.499s98.334 32.333 155.001 45s115 19 175 19
c74 0 136.833 -8 188.5 -24s93.667 -40.667 126 -74s56 -75.5 71 -126.5s22.5 -111.167 22.5 -180.5v-624h124v-123c-12.667 -3.33301 -28.334 -7 -47.001 -11s-39.334 -7.83301 -62.001 -11.5s-47 -6.83398 -73 -9.50098s-52.667 -4 -80 -4c-24 0 -44.5 1 -61.5 3
s-30.667 6.66699 -41 14s-17.833 17.833 -22.5 31.5s-7 32.167 -7 55.5v58c-11.333 -15.333 -27 -32.333 -47 -51s-44.167 -36.334 -72.5 -53.001s-60.5 -30.5 -96.5 -41.5s-75.667 -16.5 -119 -16.5c-47.333 0 -91.666 6.33301 -132.999 19s-77.5 32.334 -108.5 59.001
s-55.5 60.5 -73.5 101.5s-27 90.167 -27 147.5zM378.996 352.001c0 -59.333 13.4971 -104.5 40.4971 -135.5s66.5 -46.5 118.5 -46.5c10.667 0 23.834 1.66699 39.501 5s31.834 8 48.501 14s33 13.167 49 21.5s30 17.833 42 28.5v331c-65.333 0 -119.666 -6 -162.999 -18
s-78 -28 -104 -48s-44.333 -43.167 -55 -69.5s-16 -53.833 -16 -82.5zM649.993 1309c-18 6.66699 -39.5 17.3311 -64.5 31.998s-51.5 31.834 -79.5 51.501s-56.5 41.334 -85.5 65.001s-56.333 47.5 -82 71.5s-48.667 47.5 -69 70.5s-35.833 44.167 -46.5 63.5l189 173h1
l351 -429l-113 -98h-1v0z" />
    <glyph glyph-name="aacute" unicode="&#xe1;" horiz-adv-x="1167" 
d="M62 304c0 48.667 8.8291 92.001 26.4961 130.001s42 71.333 73 100s67.5 53 109.5 73s87.333 36.5 136 49.5s99.334 22.5 152.001 28.5s105.334 9.66699 158.001 11v48c0 38 -3.83301 70.5 -11.5 97.5s-19.5 49 -35.5 66s-36.5 29.333 -61.5 37s-55.167 11.5 -90.5 11.5
c-36 0 -72.167 -2.83301 -108.5 -8.5s-71.166 -12.667 -104.499 -21s-64.166 -17.666 -92.499 -27.999s-52.5 -20.166 -72.5 -29.499h-1l-59 134c14 11.333 37.667 26.166 71 44.499s73.333 36.166 120 53.499s98.334 32.333 155.001 45s115 19 175 19
c74 0 136.833 -8 188.5 -24s93.667 -40.667 126 -74s56 -75.5 71 -126.5s22.5 -111.167 22.5 -180.5v-624h124v-123c-12.667 -3.33301 -28.334 -7 -47.001 -11s-39.334 -7.83301 -62.001 -11.5s-47 -6.83398 -73 -9.50098s-52.667 -4 -80 -4c-24 0 -44.5 1 -61.5 3
s-30.667 6.66699 -41 14s-17.833 17.833 -22.5 31.5s-7 32.167 -7 55.5v58c-11.333 -15.333 -27 -32.333 -47 -51s-44.167 -36.334 -72.5 -53.001s-60.5 -30.5 -96.5 -41.5s-75.667 -16.5 -119 -16.5c-47.333 0 -91.666 6.33301 -132.999 19s-77.5 32.334 -108.5 59.001
s-55.5 60.5 -73.5 101.5s-27 90.167 -27 147.5zM378.996 352.001c0 -59.333 13.4971 -104.5 40.4971 -135.5s66.5 -46.5 118.5 -46.5c10.667 0 23.834 1.66699 39.501 5s31.834 8 48.501 14s33 13.167 49 21.5s30 17.833 42 28.5v331c-65.333 0 -119.666 -6 -162.999 -18
s-78 -28 -104 -48s-44.333 -43.167 -55 -69.5s-16 -53.833 -16 -82.5zM395.993 1407l351 429.003h1l188 -173c-10.667 -19.333 -26.167 -40.5 -46.5 -63.5s-43.333 -46.5 -69 -70.5s-53 -47.833 -82 -71.5s-57.5 -45.334 -85.5 -65.001s-54.5 -36.834 -79.5 -51.501
s-46.5 -25.334 -64.5 -32.001h-2z" />
    <glyph glyph-name="acircumflex" unicode="&#xe2;" horiz-adv-x="1167" 
d="M62 304c0 48.667 8.8291 92.001 26.4961 130.001s42 71.333 73 100s67.5 53 109.5 73s87.333 36.5 136 49.5s99.334 22.5 152.001 28.5s105.334 9.66699 158.001 11v48c0 38 -3.83301 70.5 -11.5 97.5s-19.5 49 -35.5 66s-36.5 29.333 -61.5 37s-55.167 11.5 -90.5 11.5
c-36 0 -72.167 -2.83301 -108.5 -8.5s-71.166 -12.667 -104.499 -21s-64.166 -17.666 -92.499 -27.999s-52.5 -20.166 -72.5 -29.499h-1l-59 134c14 11.333 37.667 26.166 71 44.499s73.333 36.166 120 53.499s98.334 32.333 155.001 45s115 19 175 19
c74 0 136.833 -8 188.5 -24s93.667 -40.667 126 -74s56 -75.5 71 -126.5s22.5 -111.167 22.5 -180.5v-624h124v-123c-12.667 -3.33301 -28.334 -7 -47.001 -11s-39.334 -7.83301 -62.001 -11.5s-47 -6.83398 -73 -9.50098s-52.667 -4 -80 -4c-24 0 -44.5 1 -61.5 3
s-30.667 6.66699 -41 14s-17.833 17.833 -22.5 31.5s-7 32.167 -7 55.5v58c-11.333 -15.333 -27 -32.333 -47 -51s-44.167 -36.334 -72.5 -53.001s-60.5 -30.5 -96.5 -41.5s-75.667 -16.5 -119 -16.5c-47.333 0 -91.666 6.33301 -132.999 19s-77.5 32.334 -108.5 59.001
s-55.5 60.5 -73.5 101.5s-27 90.167 -27 147.5zM378.996 352.001c0 -59.333 13.4971 -104.5 40.4971 -135.5s66.5 -46.5 118.5 -46.5c10.667 0 23.834 1.66699 39.501 5s31.834 8 48.501 14s33 13.167 49 21.5s30 17.833 42 28.5v331c-65.333 0 -119.666 -6 -162.999 -18
s-78 -28 -104 -48s-44.333 -43.167 -55 -69.5s-16 -53.833 -16 -82.5zM169.993 1391l302 400h194l300 -399l-108 -85l-289 244l-298 -245z" />
    <glyph glyph-name="atilde" unicode="&#xe3;" horiz-adv-x="1167" 
d="M62 304c0 48.667 8.8291 92.001 26.4961 130.001s42 71.333 73 100s67.5 53 109.5 73s87.333 36.5 136 49.5s99.334 22.5 152.001 28.5s105.334 9.66699 158.001 11v48c0 38 -3.83301 70.5 -11.5 97.5s-19.5 49 -35.5 66s-36.5 29.333 -61.5 37s-55.167 11.5 -90.5 11.5
c-36 0 -72.167 -2.83301 -108.5 -8.5s-71.166 -12.667 -104.499 -21s-64.166 -17.666 -92.499 -27.999s-52.5 -20.166 -72.5 -29.499h-1l-59 134c14 11.333 37.667 26.166 71 44.499s73.333 36.166 120 53.499s98.334 32.333 155.001 45s115 19 175 19
c74 0 136.833 -8 188.5 -24s93.667 -40.667 126 -74s56 -75.5 71 -126.5s22.5 -111.167 22.5 -180.5v-624h124v-123c-12.667 -3.33301 -28.334 -7 -47.001 -11s-39.334 -7.83301 -62.001 -11.5s-47 -6.83398 -73 -9.50098s-52.667 -4 -80 -4c-24 0 -44.5 1 -61.5 3
s-30.667 6.66699 -41 14s-17.833 17.833 -22.5 31.5s-7 32.167 -7 55.5v58c-11.333 -15.333 -27 -32.333 -47 -51s-44.167 -36.334 -72.5 -53.001s-60.5 -30.5 -96.5 -41.5s-75.667 -16.5 -119 -16.5c-47.333 0 -91.666 6.33301 -132.999 19s-77.5 32.334 -108.5 59.001
s-55.5 60.5 -73.5 101.5s-27 90.167 -27 147.5zM378.996 352.001c0 -59.333 13.4971 -104.5 40.4971 -135.5s66.5 -46.5 118.5 -46.5c10.667 0 23.834 1.66699 39.501 5s31.834 8 48.501 14s33 13.167 49 21.5s30 17.833 42 28.5v331c-65.333 0 -119.666 -6 -162.999 -18
s-78 -28 -104 -48s-44.333 -43.167 -55 -69.5s-16 -53.833 -16 -82.5zM109.993 1474c8.66699 20.667 21.8301 43.665 39.4971 68.998s39.334 48.666 65.001 69.999s55.5 39.333 89.5 54s71.667 22 113 22c28.667 0 54.667 -4.16699 78 -12.5s45 -18.666 65 -30.999
s38.667 -25.833 56 -40.5s34.333 -28.167 51 -40.5s33.5 -22.666 50.5 -30.999s35.167 -12.5 54.5 -12.5c22.667 0 42 3.66699 58 11s29.833 16.5 41.5 27.5s21.5 22.667 29.5 35s15.333 23.166 22 32.499l105 -88c-12.667 -26 -27.667 -52 -45 -78
s-37.666 -49.167 -60.999 -69.5s-50 -36.833 -80 -49.5s-63.667 -19 -101 -19c-28 0 -53.833 4.16699 -77.5 12.5s-45.667 18.833 -66 31.5s-39.666 26.334 -57.999 41.001s-36.5 28.334 -54.5 41.001s-36.333 23.167 -55 31.5s-38.334 12.5 -59.001 12.5
c-21.333 0 -40.166 -4 -56.499 -12s-30.833 -17.833 -43.5 -29.5s-23.667 -23.5 -33 -35.5l-24 -30z" />
    <glyph glyph-name="adieresis" unicode="&#xe4;" horiz-adv-x="1167" 
d="M62 304c0 48.667 8.8291 92.001 26.4961 130.001s42 71.333 73 100s67.5 53 109.5 73s87.333 36.5 136 49.5s99.334 22.5 152.001 28.5s105.334 9.66699 158.001 11v48c0 38 -3.83301 70.5 -11.5 97.5s-19.5 49 -35.5 66s-36.5 29.333 -61.5 37s-55.167 11.5 -90.5 11.5
c-36 0 -72.167 -2.83301 -108.5 -8.5s-71.166 -12.667 -104.499 -21s-64.166 -17.666 -92.499 -27.999s-52.5 -20.166 -72.5 -29.499h-1l-59 134c14 11.333 37.667 26.166 71 44.499s73.333 36.166 120 53.499s98.334 32.333 155.001 45s115 19 175 19
c74 0 136.833 -8 188.5 -24s93.667 -40.667 126 -74s56 -75.5 71 -126.5s22.5 -111.167 22.5 -180.5v-624h124v-123c-12.667 -3.33301 -28.334 -7 -47.001 -11s-39.334 -7.83301 -62.001 -11.5s-47 -6.83398 -73 -9.50098s-52.667 -4 -80 -4c-24 0 -44.5 1 -61.5 3
s-30.667 6.66699 -41 14s-17.833 17.833 -22.5 31.5s-7 32.167 -7 55.5v58c-11.333 -15.333 -27 -32.333 -47 -51s-44.167 -36.334 -72.5 -53.001s-60.5 -30.5 -96.5 -41.5s-75.667 -16.5 -119 -16.5c-47.333 0 -91.666 6.33301 -132.999 19s-77.5 32.334 -108.5 59.001
s-55.5 60.5 -73.5 101.5s-27 90.167 -27 147.5zM378.996 352.001c0 -59.333 13.4971 -104.5 40.4971 -135.5s66.5 -46.5 118.5 -46.5c10.667 0 23.834 1.66699 39.501 5s31.834 8 48.501 14s33 13.167 49 21.5s30 17.833 42 28.5v331c-65.333 0 -119.666 -6 -162.999 -18
s-78 -28 -104 -48s-44.333 -43.167 -55 -69.5s-16 -53.833 -16 -82.5zM805.993 1334c-23.333 0 -43.998 4.33203 -61.998 12.999s-33.333 20.167 -46 34.5s-22.167 31.333 -28.5 51s-9.5 40.5 -9.5 62.5c0 26 3.5 50.5 10.5 73.5s17.833 43.167 32.5 60.5s32.667 31 54 41
s46.666 15 75.999 15h1c26.667 0 50 -4.5 70 -13.5s36.667 -21 50 -36s23.166 -32.167 29.499 -51.5s9.5 -39.666 9.5 -60.999c0 -26.667 -3.66699 -51.5 -11 -74.5s-18.5 -43 -33.5 -60s-34.333 -30.333 -58 -40s-51.5 -14.5 -83.5 -14.5h-1zM295.995 1334
c-23.333 0 -44.1709 4.33203 -62.5039 12.999s-33.666 20.167 -45.999 34.5s-21.666 31.333 -27.999 51s-9.5 40.5 -9.5 62.5c0 26 3.5 50.5 10.5 73.5s17.667 43.167 32 60.5s32.333 31 54 41s47.167 15 76.5 15h1c26.667 0 50 -4.5 70 -13.5s36.5 -21 49.5 -36
s22.833 -32.167 29.5 -51.5s10 -39.666 10 -60.999c0 -26.667 -3.66699 -51.5 -11 -74.5s-18.666 -43 -33.999 -60s-34.666 -30.333 -57.999 -40s-51 -14.5 -83 -14.5h-1z" />
    <glyph glyph-name="aring" unicode="&#xe5;" horiz-adv-x="1167" 
d="M62 304c0 48.667 8.8291 92.001 26.4961 130.001s42 71.333 73 100s67.5 53 109.5 73s87.333 36.5 136 49.5s99.334 22.5 152.001 28.5s105.334 9.66699 158.001 11v48c0 38 -3.83301 70.5 -11.5 97.5s-19.5 49 -35.5 66s-36.5 29.333 -61.5 37s-55.167 11.5 -90.5 11.5
c-36 0 -72.167 -2.83301 -108.5 -8.5s-71.166 -12.667 -104.499 -21s-64.166 -17.666 -92.499 -27.999s-52.5 -20.166 -72.5 -29.499h-1l-59 134c14 11.333 37.667 26.166 71 44.499s73.333 36.166 120 53.499s98.334 32.333 155.001 45s115 19 175 19
c74 0 136.833 -8 188.5 -24s93.667 -40.667 126 -74s56 -75.5 71 -126.5s22.5 -111.167 22.5 -180.5v-624h124v-123c-12.667 -3.33301 -28.334 -7 -47.001 -11s-39.334 -7.83301 -62.001 -11.5s-47 -6.83398 -73 -9.50098s-52.667 -4 -80 -4c-24 0 -44.5 1 -61.5 3
s-30.667 6.66699 -41 14s-17.833 17.833 -22.5 31.5s-7 32.167 -7 55.5v58c-11.333 -15.333 -27 -32.333 -47 -51s-44.167 -36.334 -72.5 -53.001s-60.5 -30.5 -96.5 -41.5s-75.667 -16.5 -119 -16.5c-47.333 0 -91.666 6.33301 -132.999 19s-77.5 32.334 -108.5 59.001
s-55.5 60.5 -73.5 101.5s-27 90.167 -27 147.5zM378.996 352.001c0 -59.333 13.4971 -104.5 40.4971 -135.5s66.5 -46.5 118.5 -46.5c10.667 0 23.834 1.66699 39.501 5s31.834 8 48.501 14s33 13.167 49 21.5s30 17.833 42 28.5v331c-65.333 0 -119.666 -6 -162.999 -18
s-78 -28 -104 -48s-44.333 -43.167 -55 -69.5s-16 -53.833 -16 -82.5zM561.993 1295c-62 0 -114.998 7.83398 -158.998 23.501s-80 37 -108 64s-48.333 58.667 -61 95s-18.667 75.166 -18 116.499c0.666992 47.333 11.334 89 32.001 125s47.667 66.167 81 90.5
s71.666 42.666 114.999 54.999s88 18.5 134 18.5h1c57.333 0 107.166 -7.5 149.499 -22.5s77.5 -35.5 105.5 -61.5s48.833 -57 62.5 -93s20.5 -75 20.5 -117c-0.666992 -47.333 -10.334 -89.166 -29.001 -125.499s-44 -67 -76 -92s-69.5 -44 -112.5 -57
s-88.5 -19.5 -136.5 -19.5h-1zM567.995 1431c30 0 54.999 3.33105 74.999 9.99805s36 16.334 48 29.001s20.333 28.5 25 47.5s7 40.5 7 64.5c0 22 -2.5 42.833 -7.5 62.5s-13.5 37 -25.5 52s-27.833 26.833 -47.5 35.5s-44.167 13 -73.5 13h-1c-30 0 -55 -3.66699 -75 -11
s-36 -17.5 -48 -30.5s-20.667 -28.833 -26 -47.5s-8 -39.334 -8 -62.001c0 -21.333 2.83301 -41.666 8.5 -60.999s14.667 -36.666 27 -51.999s28.333 -27.5 48 -36.5s43.834 -13.5 72.501 -13.5h1z" />
    <glyph glyph-name="ae" unicode="&#xe6;" horiz-adv-x="1766" 
d="M62 299c0 48 8.50586 90.8311 25.5059 128.498s40.5 70.667 70.5 99s65.5 52.666 106.5 72.999s85.833 37 134.5 50s99.834 22.833 153.501 29.5s108.5 10.667 164.5 12v60c0 40 -3.66699 73.167 -11 99.5s-19 47 -35 62s-37 25.5 -63 31.5s-58 9 -96 9
c-33.333 0 -66.5 -2.83301 -99.5 -8.5s-64.667 -12.667 -95 -21s-59.166 -17.833 -86.499 -28.5s-52 -21 -74 -31l-59 145c18.667 14.667 45.667 31.167 81 49.5s75.666 35.333 120.999 51s94 28.834 146 39.501s103.667 16 155 16c76 0 140.5 -8.16699 193.5 -24.5
s95.833 -43.5 128.5 -81.5c45.333 35.333 96.666 62.166 153.999 80.499s120 27.5 188 27.5c275.333 0 419.666 -135 432.999 -405c1.33301 -46 1.16602 -87.5 -0.500977 -124.5s-5.16699 -68.167 -10.5 -93.5h-652c3.33301 -66 13 -122.333 29 -169s37 -84.667 63 -114
s56.833 -50.666 92.5 -63.999s74.834 -20 117.501 -20c33.333 0 64.666 2.66699 93.999 8s56.5 12 81.5 20s47.5 17 67.5 27s37.667 19.667 53 29l52 -121c-16.667 -17.333 -39.834 -35.5 -69.501 -54.5s-63.667 -36.5 -102 -52.5s-79.666 -29.333 -123.999 -40
s-89.5 -16 -135.5 -16c-106 0 -195.167 18.333 -267.5 55s-129.833 87.334 -172.5 152.001c-22.667 -29.333 -48.334 -56.666 -77.001 -81.999s-60.334 -47.333 -95.001 -66s-71.834 -33.167 -111.501 -43.5s-81.834 -15.5 -126.501 -15.5s-87.5 6.33301 -128.5 19
s-77.333 32.334 -109 59.001s-57 60.167 -76 100.5s-28.5 88.166 -28.5 143.499zM1392.01 678.998c0 3.33301 0.166992 8 0.5 14s0.666016 12.333 0.999023 19s0.5 12.834 0.5 18.501v13.5c0 34 -2.5 68.333 -7.5 103s-13.667 65.667 -26 93s-29.166 49.666 -50.499 66.999
s-49 26 -83 26c-25.333 0 -49.333 -4.83301 -72 -14.5s-42.5 -27.5 -59.5 -53.5s-31 -62 -42 -108s-17.5 -105.333 -19.5 -178h358zM379.006 351.998c0 -59.333 13.5 -104.5 40.5 -135.5s66.5 -46.5 118.5 -46.5c20.667 0 41.5 3 62.5 9s41.167 14.167 60.5 24.5
s37.833 22.333 55.5 36s33.5 28.167 47.5 43.5c-16 42 -27.833 86.833 -35.5 134.5s-11.5 98.167 -11.5 151.5v1c-63.333 0 -116.5 -6 -159.5 -18s-77.667 -28 -104 -48s-45.333 -43.167 -57 -69.5s-17.5 -53.833 -17.5 -82.5z" />
    <glyph glyph-name="ccedilla" unicode="&#xe7;" horiz-adv-x="1066" 
d="M368 -308c14 -4.66699 29.334 -8.00293 46.001 -10.0029s28.667 -3 36 -3h1c22 0 41.5 1.33301 58.5 4s31.333 8.66699 43 18s20.334 23.333 26.001 42s8.5 43.667 8.5 75c0 14 -1.5 28.333 -4.5 43s-6.66699 29.167 -11 43.5s-9.33301 28 -15 41l-15.5 34.5
c-81.333 7.33301 -151.5 27 -210.5 59s-107.667 73.5 -146 124.5s-66.666 110.167 -84.999 177.5s-27.5 140 -27.5 218c0 90 13.5 172.333 40.5 247s65.5 138.834 115.5 192.501s110.5 95.334 181.5 125.001s150.5 44.5 238.5 44.5c44.667 0 85.667 -2.5 123 -7.5
s70.666 -10.833 99.999 -17.5s54.666 -13.5 75.999 -20.5s38.666 -12.5 51.999 -16.5l-10 -341h-176l-58 176c-14.667 28 -32.667 50 -54 66s-47.333 24 -78 24c-30 0 -58.5 -7.5 -85.5 -22.5s-51 -38.667 -72 -71s-37.833 -74.166 -50.5 -125.499s-19 -113.333 -19 -186
c0 -83.333 6.5 -153.5 19.5 -210.5s32 -103.167 57 -138.5s55.333 -60.833 91 -76.5s76.167 -23.5 121.5 -23.5c30.667 0 59.5 2.33301 86.5 7s51.833 10.667 74.5 18s43.334 15.666 62.001 24.999s35.667 19 51 29l53 -121c-12 -13.333 -28.667 -27.666 -50 -42.999
s-46 -30.333 -74 -45s-58.833 -27.667 -92.5 -39s-69.5 -19.666 -107.5 -24.999c12 -14 25 -31.333 39 -52s27 -43.334 39 -68.001s21.667 -51.167 29 -79.5s10 -56.833 8 -85.5c-2 -42.667 -9.83301 -78.167 -23.5 -106.5s-32.834 -51 -57.501 -68
s-54.667 -29.167 -90 -36.5s-75.333 -11 -120 -11h-1c-11.333 0 -23.666 0.666992 -36.999 2s-26.5 3.33301 -39.5 6s-25.333 5.66699 -37 9s-21.834 7 -30.501 11l1 188v0z" />
    <glyph glyph-name="egrave" unicode="&#xe8;" horiz-adv-x="1123" 
d="M70 569c0 92.667 13.1699 176 39.5029 250s63.5 136.833 111.5 188.5s105.667 91.167 173 118.5s142 41 224 41c276.667 0 421 -135 433 -405c1.33301 -46 1.16602 -87.5 -0.500977 -124.5s-5.16699 -68.167 -10.5 -93.5h-652c3.33301 -66 13 -122.333 29 -169
s37 -84.667 63 -114s56.833 -50.666 92.5 -63.999s74.834 -20 117.501 -20c33.333 0 64.666 2.66699 93.999 8s56.5 12 81.5 20s47.5 17 67.5 27s37.667 19.667 53 29l52 -121c-16.667 -17.333 -39.834 -35.5 -69.501 -54.5s-63.667 -36.5 -102 -52.5
s-79.666 -29.333 -123.999 -40s-89.5 -16 -135.5 -16c-94 0 -174.833 14.667 -242.5 44s-123.334 70.166 -167.001 122.499s-75.834 114.833 -96.501 187.5s-31 152 -31 238zM745.003 679c0 3.33301 0.166992 8 0.5 14s0.666016 12.333 0.999023 19s0.5 12.834 0.5 18.501
v13.5c0 34 -2.33301 68.333 -7 103s-13.167 65.667 -25.5 93s-29.333 49.666 -51 66.999s-49.5 26 -83.5 26c-25.333 0 -49.166 -4.83301 -71.499 -14.5s-42 -27.5 -59 -53.5s-31 -62 -42 -108s-17.833 -105.333 -20.5 -178h358zM671.003 1309
c-18 6.66699 -39.5 17.3311 -64.5 31.998s-51.5 31.834 -79.5 51.501s-56.5 41.334 -85.5 65.001s-56.333 47.5 -82 71.5s-48.667 47.5 -69 70.5s-35.833 44.167 -46.5 63.5l189 173h1l351 -429l-113 -98h-1v0z" />
    <glyph glyph-name="eacute" unicode="&#xe9;" horiz-adv-x="1123" 
d="M417 1407l351 429.003h1l188 -173c-10.667 -19.333 -26.167 -40.5 -46.5 -63.5s-43.333 -46.5 -69 -70.5s-53 -47.833 -82 -71.5s-57.5 -45.334 -85.5 -65.001s-54.5 -36.834 -79.5 -51.501s-46.5 -25.334 -64.5 -32.001h-2zM70 569.003
c0 92.667 13.1699 176 39.5029 250s63.5 136.833 111.5 188.5s105.667 91.167 173 118.5s142 41 224 41c276.667 0 421 -135 433 -405c1.33301 -46 1.16602 -87.5 -0.500977 -124.5s-5.16699 -68.167 -10.5 -93.5h-652c3.33301 -66 13 -122.333 29 -169s37 -84.667 63 -114
s56.833 -50.666 92.5 -63.999s74.834 -20 117.501 -20c33.333 0 64.666 2.66699 93.999 8s56.5 12 81.5 20s47.5 17 67.5 27s37.667 19.667 53 29l52 -121c-16.667 -17.333 -39.834 -35.5 -69.501 -54.5s-63.667 -36.5 -102 -52.5s-79.666 -29.333 -123.999 -40
s-89.5 -16 -135.5 -16c-94 0 -174.833 14.667 -242.5 44s-123.334 70.166 -167.001 122.499s-75.834 114.833 -96.501 187.5s-31 152 -31 238zM745.003 679.003c0 3.33301 0.166992 8 0.5 14s0.666016 12.333 0.999023 19s0.5 12.834 0.5 18.501v13.5
c0 34 -2.33301 68.333 -7 103s-13.167 65.667 -25.5 93s-29.333 49.666 -51 66.999s-49.5 26 -83.5 26c-25.333 0 -49.166 -4.83301 -71.499 -14.5s-42 -27.5 -59 -53.5s-31 -62 -42 -108s-17.833 -105.333 -20.5 -178h358z" />
    <glyph glyph-name="ecircumflex" unicode="&#xea;" horiz-adv-x="1123" 
d="M186 1391l302 400h194l300 -399l-108 -85l-289 244l-298 -245zM70 569c0 92.667 13.1699 176 39.5029 250s63.5 136.833 111.5 188.5s105.667 91.167 173 118.5s142 41 224 41c276.667 0 421 -135 433 -405c1.33301 -46 1.16602 -87.5 -0.500977 -124.5
s-5.16699 -68.167 -10.5 -93.5h-652c3.33301 -66 13 -122.333 29 -169s37 -84.667 63 -114s56.833 -50.666 92.5 -63.999s74.834 -20 117.501 -20c33.333 0 64.666 2.66699 93.999 8s56.5 12 81.5 20s47.5 17 67.5 27s37.667 19.667 53 29l52 -121
c-16.667 -17.333 -39.834 -35.5 -69.501 -54.5s-63.667 -36.5 -102 -52.5s-79.666 -29.333 -123.999 -40s-89.5 -16 -135.5 -16c-94 0 -174.833 14.667 -242.5 44s-123.334 70.166 -167.001 122.499s-75.834 114.833 -96.501 187.5s-31 152 -31 238zM745.003 679
c0 3.33301 0.166992 8 0.5 14s0.666016 12.333 0.999023 19s0.5 12.834 0.5 18.501v13.5c0 34 -2.33301 68.333 -7 103s-13.167 65.667 -25.5 93s-29.333 49.666 -51 66.999s-49.5 26 -83.5 26c-25.333 0 -49.166 -4.83301 -71.499 -14.5s-42 -27.5 -59 -53.5
s-31 -62 -42 -108s-17.833 -105.333 -20.5 -178h358z" />
    <glyph glyph-name="edieresis" unicode="&#xeb;" horiz-adv-x="1123" 
d="M827 1334c-23.333 0 -43.998 4.33203 -61.998 12.999s-33.333 20.167 -46 34.5s-22.167 31.333 -28.5 51s-9.5 40.5 -9.5 62.5c0 26 3.5 50.5 10.5 73.5s17.833 43.167 32.5 60.5s32.667 31 54 41s46.666 15 75.999 15h1c26.667 0 50 -4.5 70 -13.5s36.667 -21 50 -36
s23.166 -32.167 29.499 -51.5s9.5 -39.666 9.5 -60.999c0 -26.667 -3.66699 -51.5 -11 -74.5s-18.5 -43 -33.5 -60s-34.333 -30.333 -58 -40s-51.5 -14.5 -83.5 -14.5h-1zM317.002 1334c-23.333 0 -44.1709 4.33203 -62.5039 12.999s-33.666 20.167 -45.999 34.5
s-21.666 31.333 -27.999 51s-9.5 40.5 -9.5 62.5c0 26 3.5 50.5 10.5 73.5s17.667 43.167 32 60.5s32.333 31 54 41s47.167 15 76.5 15h1c26.667 0 50 -4.5 70 -13.5s36.5 -21 49.5 -36s22.833 -32.167 29.5 -51.5s10 -39.666 10 -60.999
c0 -26.667 -3.66699 -51.5 -11 -74.5s-18.666 -43 -33.999 -60s-34.666 -30.333 -57.999 -40s-51 -14.5 -83 -14.5h-1zM69.9971 568.998c0 92.667 13.1699 176 39.5029 250s63.5 136.833 111.5 188.5s105.667 91.167 173 118.5s142 41 224 41c276.667 0 421 -135 433 -405
c1.33301 -46 1.16602 -87.5 -0.500977 -124.5s-5.16699 -68.167 -10.5 -93.5h-652c3.33301 -66 13 -122.333 29 -169s37 -84.667 63 -114s56.833 -50.666 92.5 -63.999s74.834 -20 117.501 -20c33.333 0 64.666 2.66699 93.999 8s56.5 12 81.5 20s47.5 17 67.5 27
s37.667 19.667 53 29l52 -121c-16.667 -17.333 -39.834 -35.5 -69.501 -54.5s-63.667 -36.5 -102 -52.5s-79.666 -29.333 -123.999 -40s-89.5 -16 -135.5 -16c-94 0 -174.833 14.667 -242.5 44s-123.334 70.166 -167.001 122.499s-75.834 114.833 -96.501 187.5
s-31 152 -31 238zM745 678.998c0 3.33301 0.166992 8 0.5 14s0.666016 12.333 0.999023 19s0.5 12.834 0.5 18.501v13.5c0 34 -2.33301 68.333 -7 103s-13.167 65.667 -25.5 93s-29.333 49.666 -51 66.999s-49.5 26 -83.5 26c-25.333 0 -49.166 -4.83301 -71.499 -14.5
s-42 -27.5 -59 -53.5s-31 -62 -42 -108s-17.833 -105.333 -20.5 -178h358z" />
    <glyph glyph-name="igrave" unicode="&#xec;" horiz-adv-x="735" 
d="M82 134l146 19v770l-135 43v150l367 49h5l73 -43v-968l145 -20v-134h-601v134zM455 1309c-18 6.66699 -39.5 17.3311 -64.5 31.998s-51.5 31.834 -79.5 51.501s-56.5 41.334 -85.5 65.001s-56.333 47.5 -82 71.5s-48.667 47.5 -69 70.5s-35.833 44.167 -46.5 63.5
l189 173h1l351 -429l-113 -98h-1v0z" />
    <glyph glyph-name="iacute" unicode="&#xed;" horiz-adv-x="735" 
d="M201 1407l351 429.003h1l188 -173c-10.667 -19.333 -26.167 -40.5 -46.5 -63.5s-43.333 -46.5 -69 -70.5s-53 -47.833 -82 -71.5s-57.5 -45.334 -85.5 -65.001s-54.5 -36.834 -79.5 -51.501s-46.5 -25.334 -64.5 -32.001h-2zM82 134.003l146 19v770l-135 43v150l367 49h5
l73 -43v-968l145 -20v-134h-601v134z" />
    <glyph glyph-name="icircumflex" unicode="&#xee;" horiz-adv-x="735" 
d="M-28 1391l302 400h194l300 -399l-108 -85l-289 244l-298 -245zM82 134l146 19v770l-135 43v150l367 49h5l73 -43v-968l145 -20v-134h-601v134z" />
    <glyph glyph-name="idieresis" unicode="&#xef;" horiz-adv-x="747" 
d="M618 1334c-23.333 0 -43.998 4.33203 -61.998 12.999s-33.333 20.167 -46 34.5s-22.167 31.333 -28.5 51s-9.5 40.5 -9.5 62.5c0 26 3.5 50.5 10.5 73.5s17.833 43.167 32.5 60.5s32.667 31 54 41s46.666 15 75.999 15h1c26.667 0 50 -4.5 70 -13.5s36.667 -21 50 -36
s23.166 -32.167 29.499 -51.5s9.5 -39.666 9.5 -60.999c0 -26.667 -3.66699 -51.5 -11 -74.5s-18.5 -43 -33.5 -60s-34.333 -30.333 -58 -40s-51.5 -14.5 -83.5 -14.5h-1zM108.002 1334c-23.333 0 -44.1709 4.33203 -62.5039 12.999s-33.666 20.167 -45.999 34.5
s-21.666 31.333 -27.999 51s-9.5 40.5 -9.5 62.5c0 26 3.5 50.5 10.5 73.5s17.667 43.167 32 60.5s32.333 31 54 41s47.167 15 76.5 15h1c26.667 0 50 -4.5 70 -13.5s36.5 -21 49.5 -36s22.833 -32.167 29.5 -51.5s10 -39.666 10 -60.999
c0 -26.667 -3.66699 -51.5 -11 -74.5s-18.666 -43 -33.999 -60s-34.666 -30.333 -57.999 -40s-51 -14.5 -83 -14.5h-1zM86.9971 133.998l146 19v770l-135 43v150l367 49h5l73 -43v-968l145 -20v-134h-601v134z" />
    <glyph glyph-name="eth" unicode="&#xf0;" horiz-adv-x="1229" 
d="M72 545c0 106 15.1699 198.004 45.5029 276.004s70.666 142.833 120.999 194.5s107.833 90 172.5 115s131.667 37.5 201 37.5c35.333 0 67 -3.16699 95 -9.5s52.333 -13.833 73 -22.5c-12.667 36 -28.5 71.667 -47.5 107s-40.5 69 -64.5 101s-50.167 61.833 -78.5 89.5
s-58.166 52.167 -89.499 73.5l-132 -159l-129 92l134 151c-19.333 12.667 -38.833 24.667 -58.5 36s-38.834 21.666 -57.501 30.999s-36.167 17.166 -52.5 23.499s-30.5 11.166 -42.5 14.499l52 128c48.667 -11.333 95.667 -25.333 141 -42s90 -36.667 134 -60l46.5 56
l42.5 52l43 54l122 -99l-38 -45l-37.5 -44.5l-41.5 -48.5c73.333 -50 142.5 -109 207.5 -177s121.667 -143.5 170 -226.5s86.666 -172.333 114.999 -268s42.5 -195.5 42.5 -299.5c0 -57.333 -4.33301 -114.333 -13 -171s-22.5 -111 -41.5 -163
s-43.167 -100.167 -72.5 -144.5s-64.833 -82.833 -106.5 -115.5s-89.834 -58.334 -144.501 -77.001s-116.334 -28 -185.001 -28c-89.333 0 -167 13.833 -233 41.5s-120.667 66.5 -164 116.5s-75.666 109.833 -96.999 179.5s-32 146.5 -32 230.5zM614.003 123.004
c38.667 0 72.165 9.99902 100.498 29.999s51.833 50.833 70.5 92.5s32.5 94.667 41.5 159s13.5 140.833 13.5 229.5c0 38 -0.833008 74.333 -2.5 109s-4 66.5 -7 95.5s-6.33301 54.5 -10 76.5s-7.5 39.333 -11.5 52c-4.66699 6 -11.334 12.667 -20.001 20
s-20.167 14.333 -34.5 21s-31.666 12.167 -51.999 16.5s-44.166 6.5 -71.499 6.5c-75.333 0 -132.166 -36.667 -170.499 -110s-57.5 -187.666 -57.5 -342.999c0 -58 3.33301 -114.333 10 -169s18.167 -103.167 34.5 -145.5s38 -76.333 65 -102s60.833 -38.5 101.5 -38.5z
" />
    <glyph glyph-name="ntilde" unicode="&#xf1;" horiz-adv-x="1417" 
d="M95 134l129 20.001v769l-136 42v151l358 49h5l53 -43v-119c22 20 48 39.667 78 59s62.5 36.333 97.5 51s71.833 26.5 110.5 35.5s77.667 13.5 117 13.5c64 0 117.5 -8.5 160.5 -25.5s77.167 -43.667 102.5 -80s43.333 -83.333 54 -141s16 -127.167 16 -208.5v-554
l142 -19v-134h-563v134l109 19v558c0 46 -2.33301 85.833 -7 119.5s-13.167 61.167 -25.5 82.5s-29.333 37.166 -51 47.499s-49.5 15.5 -83.5 15.5c-22.667 0 -45 -2.5 -67 -7.5s-42.833 -11.5 -62.5 -19.5s-37.667 -16.833 -54 -26.5s-30.5 -19.167 -42.5 -28.5v-740
l134 -20v-134h-574v134zM259 1474c8.66699 20.667 21.8301 43.665 39.4971 68.998s39.334 48.666 65.001 69.999s55.5 39.333 89.5 54s71.667 22 113 22c28.667 0 54.667 -4.16699 78 -12.5s45 -18.666 65 -30.999s38.667 -25.833 56 -40.5s34.333 -28.167 51 -40.5
s33.5 -22.666 50.5 -30.999s35.167 -12.5 54.5 -12.5c22.667 0 42 3.66699 58 11s29.833 16.5 41.5 27.5s21.5 22.667 29.5 35s15.333 23.166 22 32.499l105 -88c-12.667 -26 -27.667 -52 -45 -78s-37.666 -49.167 -60.999 -69.5s-50 -36.833 -80 -49.5
s-63.667 -19 -101 -19c-28 0 -53.833 4.16699 -77.5 12.5s-45.667 18.833 -66 31.5s-39.666 26.334 -57.999 41.001s-36.5 28.334 -54.5 41.001s-36.333 23.167 -55 31.5s-38.334 12.5 -59.001 12.5c-21.333 0 -40.166 -4 -56.499 -12s-30.833 -17.833 -43.5 -29.5
s-23.667 -23.5 -33 -35.5l-24 -30z" />
    <glyph glyph-name="ograve" unicode="&#xf2;" horiz-adv-x="1232" 
d="M65 566c0 101.333 15.6689 189.667 47.002 265s73 138 125 188s112.167 87.333 180.5 112s139.5 37 213.5 37c86.667 0 163.334 -13.5 230.001 -40.5s122.667 -65.833 168 -116.5s79.666 -112.334 102.999 -185.001s35 -155 35 -247c0 -104 -15.667 -194 -47 -270
s-73 -138.5 -125 -187.5s-112 -85.333 -180 -109s-139 -35.5 -213 -35.5c-86.667 0 -163.334 13.5 -230.001 40.5s-122.834 65.833 -168.501 116.5s-80.167 112.334 -103.5 185.001s-35 155 -35 247zM619.002 115.001c36.667 0 68.332 8.16797 94.999 24.501
s48.834 42 66.501 77s30.667 79.833 39 134.5s12.5 120 12.5 196c0 78 -3.83301 147.167 -11.5 207.5s-20 110.833 -37 151.5s-39.333 71.5 -67 92.5s-61.5 31.5 -101.5 31.5c-36.667 0 -68.5 -8.16699 -95.5 -24.5s-49.5 -42 -67.5 -77s-31.333 -79.833 -40 -134.5
s-13 -120 -13 -196c0 -156.667 16.833 -276.334 50.5 -359.001s90.167 -124 169.5 -124zM706 1309c-18 6.66699 -39.5 17.3311 -64.5 31.998s-51.5 31.834 -79.5 51.501s-56.5 41.334 -85.5 65.001s-56.333 47.5 -82 71.5s-48.667 47.5 -69 70.5s-35.833 44.167 -46.5 63.5
l189 173h1l351 -429l-113 -98h-1v0z" />
    <glyph glyph-name="oacute" unicode="&#xf3;" horiz-adv-x="1232" 
d="M452 1407l351 429.003h1l188 -173c-10.667 -19.333 -26.167 -40.5 -46.5 -63.5s-43.333 -46.5 -69 -70.5s-53 -47.833 -82 -71.5s-57.5 -45.334 -85.5 -65.001s-54.5 -36.834 -79.5 -51.501s-46.5 -25.334 -64.5 -32.001h-2zM65 566.003
c0 101.333 15.6689 189.667 47.002 265s73 138 125 188s112.167 87.333 180.5 112s139.5 37 213.5 37c86.667 0 163.334 -13.5 230.001 -40.5s122.667 -65.833 168 -116.5s79.666 -112.334 102.999 -185.001s35 -155 35 -247c0 -104 -15.667 -194 -47 -270
s-73 -138.5 -125 -187.5s-112 -85.333 -180 -109s-139 -35.5 -213 -35.5c-86.667 0 -163.334 13.5 -230.001 40.5s-122.834 65.833 -168.501 116.5s-80.167 112.334 -103.5 185.001s-35 155 -35 247zM619.002 115.004c36.667 0 68.332 8.16797 94.999 24.501
s48.834 42 66.501 77s30.667 79.833 39 134.5s12.5 120 12.5 196c0 78 -3.83301 147.167 -11.5 207.5s-20 110.833 -37 151.5s-39.333 71.5 -67 92.5s-61.5 31.5 -101.5 31.5c-36.667 0 -68.5 -8.16699 -95.5 -24.5s-49.5 -42 -67.5 -77s-31.333 -79.833 -40 -134.5
s-13 -120 -13 -196c0 -156.667 16.833 -276.334 50.5 -359.001s90.167 -124 169.5 -124z" />
    <glyph glyph-name="ocircumflex" unicode="&#xf4;" horiz-adv-x="1232" 
d="M226 1391l302 400h194l300 -399l-108 -85l-289 244l-298 -245zM65 566c0 101.333 15.6689 189.667 47.002 265s73 138 125 188s112.167 87.333 180.5 112s139.5 37 213.5 37c86.667 0 163.334 -13.5 230.001 -40.5s122.667 -65.833 168 -116.5
s79.666 -112.334 102.999 -185.001s35 -155 35 -247c0 -104 -15.667 -194 -47 -270s-73 -138.5 -125 -187.5s-112 -85.333 -180 -109s-139 -35.5 -213 -35.5c-86.667 0 -163.334 13.5 -230.001 40.5s-122.834 65.833 -168.501 116.5s-80.167 112.334 -103.5 185.001
s-35 155 -35 247zM619.002 115.001c36.667 0 68.332 8.16797 94.999 24.501s48.834 42 66.501 77s30.667 79.833 39 134.5s12.5 120 12.5 196c0 78 -3.83301 147.167 -11.5 207.5s-20 110.833 -37 151.5s-39.333 71.5 -67 92.5s-61.5 31.5 -101.5 31.5
c-36.667 0 -68.5 -8.16699 -95.5 -24.5s-49.5 -42 -67.5 -77s-31.333 -79.833 -40 -134.5s-13 -120 -13 -196c0 -156.667 16.833 -276.334 50.5 -359.001s90.167 -124 169.5 -124z" />
    <glyph glyph-name="otilde" unicode="&#xf5;" horiz-adv-x="1232" 
d="M65 566c0 101.333 15.6689 189.667 47.002 265s73 138 125 188s112.167 87.333 180.5 112s139.5 37 213.5 37c86.667 0 163.334 -13.5 230.001 -40.5s122.667 -65.833 168 -116.5s79.666 -112.334 102.999 -185.001s35 -155 35 -247c0 -104 -15.667 -194 -47 -270
s-73 -138.5 -125 -187.5s-112 -85.333 -180 -109s-139 -35.5 -213 -35.5c-86.667 0 -163.334 13.5 -230.001 40.5s-122.834 65.833 -168.501 116.5s-80.167 112.334 -103.5 185.001s-35 155 -35 247zM619.002 115.001c36.667 0 68.332 8.16797 94.999 24.501
s48.834 42 66.501 77s30.667 79.833 39 134.5s12.5 120 12.5 196c0 78 -3.83301 147.167 -11.5 207.5s-20 110.833 -37 151.5s-39.333 71.5 -67 92.5s-61.5 31.5 -101.5 31.5c-36.667 0 -68.5 -8.16699 -95.5 -24.5s-49.5 -42 -67.5 -77s-31.333 -79.833 -40 -134.5
s-13 -120 -13 -196c0 -156.667 16.833 -276.334 50.5 -359.001s90.167 -124 169.5 -124zM166 1474c8.66699 20.667 21.8301 43.665 39.4971 68.998s39.334 48.666 65.001 69.999s55.5 39.333 89.5 54s71.667 22 113 22c28.667 0 54.667 -4.16699 78 -12.5
s45 -18.666 65 -30.999s38.667 -25.833 56 -40.5s34.333 -28.167 51 -40.5s33.5 -22.666 50.5 -30.999s35.167 -12.5 54.5 -12.5c22.667 0 42 3.66699 58 11s29.833 16.5 41.5 27.5s21.5 22.667 29.5 35s15.333 23.166 22 32.499l105 -88c-12.667 -26 -27.667 -52 -45 -78
s-37.666 -49.167 -60.999 -69.5s-50 -36.833 -80 -49.5s-63.667 -19 -101 -19c-28 0 -53.833 4.16699 -77.5 12.5s-45.667 18.833 -66 31.5s-39.666 26.334 -57.999 41.001s-36.5 28.334 -54.5 41.001s-36.333 23.167 -55 31.5s-38.334 12.5 -59.001 12.5
c-21.333 0 -40.166 -4 -56.499 -12s-30.833 -17.833 -43.5 -29.5s-23.667 -23.5 -33 -35.5l-24 -30z" />
    <glyph glyph-name="odieresis" unicode="&#xf6;" horiz-adv-x="1232" 
d="M862 1334c-23.333 0 -43.998 4.33203 -61.998 12.999s-33.333 20.167 -46 34.5s-22.167 31.333 -28.5 51s-9.5 40.5 -9.5 62.5c0 26 3.5 50.5 10.5 73.5s17.833 43.167 32.5 60.5s32.667 31 54 41s46.666 15 75.999 15h1c26.667 0 50 -4.5 70 -13.5s36.667 -21 50 -36
s23.166 -32.167 29.499 -51.5s9.5 -39.666 9.5 -60.999c0 -26.667 -3.66699 -51.5 -11 -74.5s-18.5 -43 -33.5 -60s-34.333 -30.333 -58 -40s-51.5 -14.5 -83.5 -14.5h-1zM352.002 1334c-23.333 0 -44.1709 4.33203 -62.5039 12.999s-33.666 20.167 -45.999 34.5
s-21.666 31.333 -27.999 51s-9.5 40.5 -9.5 62.5c0 26 3.5 50.5 10.5 73.5s17.667 43.167 32 60.5s32.333 31 54 41s47.167 15 76.5 15h1c26.667 0 50 -4.5 70 -13.5s36.5 -21 49.5 -36s22.833 -32.167 29.5 -51.5s10 -39.666 10 -60.999
c0 -26.667 -3.66699 -51.5 -11 -74.5s-18.666 -43 -33.999 -60s-34.666 -30.333 -57.999 -40s-51 -14.5 -83 -14.5h-1zM64.9971 565.998c0 101.333 15.6689 189.667 47.002 265s73 138 125 188s112.167 87.333 180.5 112s139.5 37 213.5 37
c86.667 0 163.334 -13.5 230.001 -40.5s122.667 -65.833 168 -116.5s79.666 -112.334 102.999 -185.001s35 -155 35 -247c0 -104 -15.667 -194 -47 -270s-73 -138.5 -125 -187.5s-112 -85.333 -180 -109s-139 -35.5 -213 -35.5c-86.667 0 -163.334 13.5 -230.001 40.5
s-122.834 65.833 -168.501 116.5s-80.167 112.334 -103.5 185.001s-35 155 -35 247zM618.999 114.999c36.667 0 68.332 8.16797 94.999 24.501s48.834 42 66.501 77s30.667 79.833 39 134.5s12.5 120 12.5 196c0 78 -3.83301 147.167 -11.5 207.5s-20 110.833 -37 151.5
s-39.333 71.5 -67 92.5s-61.5 31.5 -101.5 31.5c-36.667 0 -68.5 -8.16699 -95.5 -24.5s-49.5 -42 -67.5 -77s-31.333 -79.833 -40 -134.5s-13 -120 -13 -196c0 -156.667 16.833 -276.334 50.5 -359.001s90.167 -124 169.5 -124z" />
    <glyph glyph-name="divide" unicode="&#xf7;" horiz-adv-x="1358" 
d="M689 855c-23.333 0 -45.502 3.66699 -66.502 11s-39.5 17.666 -55.5 30.999s-28.833 29.833 -38.5 49.5s-14.5 42.167 -14.5 67.5c0 26.667 5.33301 51.834 16 75.501s25.334 44.334 44.001 62.001s40.334 31.5 65.001 41.5s51 15 79 15
c32.667 0 60.334 -4.5 83.001 -13.5s41.167 -21 55.5 -36s24.833 -32.333 31.5 -52s10 -40.5 10 -62.5c0 -29.333 -5.16699 -55.5 -15.5 -78.5s-24.833 -42.833 -43.5 -59.5s-40.834 -29.334 -66.501 -38.001s-53.5 -13 -83.5 -13zM208.998 718h941v-209h-941v209z
M491.998 185c0 26.667 5.33105 51.6699 15.998 75.0029s25.334 43.666 44.001 60.999s40.334 30.833 65.001 40.5s51 14.5 79 14.5c32.667 0 60.334 -4.33301 83.001 -13s41.167 -20.334 55.5 -35.001s24.833 -31.667 31.5 -51s10 -40 10 -62
c0 -28.667 -5.16699 -54.834 -15.5 -78.501s-24.833 -44 -43.5 -61s-40.834 -30.167 -66.501 -39.5s-53.5 -14 -83.5 -14c-23.333 0 -45.5 3.83301 -66.5 11.5s-39.5 18.667 -55.5 33s-28.833 31.5 -38.5 51.5s-14.5 42.333 -14.5 67z" />
    <glyph glyph-name="oslash" unicode="&#xf8;" horiz-adv-x="1232" 
d="M358 23c-96 42 -168.833 109.169 -218.5 201.502s-74.5 206.166 -74.5 341.499c0 101.333 15.667 189.666 47 264.999s73 138 125 188s112.167 87.333 180.5 112s139.5 37 213.5 37c20.667 0 40.667 -0.833008 60 -2.5s38.333 -4.16699 57 -7.5l73 218l128 -38l-69 -219
c94 -42 165.333 -109 214 -201s73 -205 73 -339c0 -104 -15.667 -194 -47 -270s-73 -138.5 -125 -187.5s-112 -85.333 -180 -109s-139 -35.5 -213 -35.5c-19.333 0 -38 0.666992 -56 2s-35.667 3.33301 -53 6l-85 -240l-132 40zM709 1004
c-27.333 17.333 -58.667 25.999 -94 25.999c-36.667 0 -68.5 -8.16699 -95.5 -24.5s-49.5 -42 -67.5 -77s-31.333 -79.833 -40 -134.5s-13 -120 -13 -196c0 -83.333 4.5 -156.166 13.5 -218.499s23.5 -113.833 43.5 -154.5zM531.999 137.001
c24.667 -14.667 53.665 -22 86.998 -22c36.667 0 68.334 8.16699 95.001 24.5s48.834 42 66.501 77s30.667 79.833 39 134.5s12.5 120 12.5 196c0 78.667 -3.83301 148 -11.5 208s-20.167 110.667 -37.5 152z" />
    <glyph glyph-name="ugrave" unicode="&#xf9;" horiz-adv-x="1340" 
d="M174 982l-100 36.998v117l360 29h1l46 -28v-732c0 -44 2.83301 -81.167 8.5 -111.5s15.167 -55.166 28.5 -74.499s31 -33.333 53 -42s49.333 -13 82 -13c24.667 0 47.834 2.5 69.501 7.5s41 11.333 58 19s31.833 15.667 44.5 24s23 15.833 31 22.5v745l-138 39v118
l388 26h2l55 -28v-1001h111v-124c-25.333 -6 -59 -13.333 -101 -22s-89.333 -13 -142 -13c-48.667 0 -84.334 10.667 -107.001 32s-34 53 -34 95v36c-17.333 -20 -38.5 -39.667 -63.5 -59s-52.5 -36.833 -82.5 -52.5s-62 -28.167 -96 -37.5s-68 -14 -102 -14
c-65.333 0 -121.5 7.83301 -168.5 23.5s-85.5 40.834 -115.5 75.501s-52.167 79.5 -66.5 134.5s-21.5 122.167 -21.5 201.5v570zM751 1309c-18 6.66699 -39.5 17.3311 -64.5 31.998s-51.5 31.834 -79.5 51.501s-56.5 41.334 -85.5 65.001s-56.333 47.5 -82 71.5
s-48.667 47.5 -69 70.5s-35.833 44.167 -46.5 63.5l189 173h1l351 -429l-113 -98h-1v0z" />
    <glyph glyph-name="uacute" unicode="&#xfa;" horiz-adv-x="1340" 
d="M497 1407l351 429.003h1l188 -173c-10.667 -19.333 -26.167 -40.5 -46.5 -63.5s-43.333 -46.5 -69 -70.5s-53 -47.833 -82 -71.5s-57.5 -45.334 -85.5 -65.001s-54.5 -36.834 -79.5 -51.501s-46.5 -25.334 -64.5 -32.001h-2zM174 982.003l-100 36.998v117l360 29h1
l46 -28v-732c0 -44 2.83301 -81.167 8.5 -111.5s15.167 -55.166 28.5 -74.499s31 -33.333 53 -42s49.333 -13 82 -13c24.667 0 47.834 2.5 69.501 7.5s41 11.333 58 19s31.833 15.667 44.5 24s23 15.833 31 22.5v745l-138 39v118l388 26h2l55 -28v-1001h111v-124
c-25.333 -6 -59 -13.333 -101 -22s-89.333 -13 -142 -13c-48.667 0 -84.334 10.667 -107.001 32s-34 53 -34 95v36c-17.333 -20 -38.5 -39.667 -63.5 -59s-52.5 -36.833 -82.5 -52.5s-62 -28.167 -96 -37.5s-68 -14 -102 -14c-65.333 0 -121.5 7.83301 -168.5 23.5
s-85.5 40.834 -115.5 75.501s-52.167 79.5 -66.5 134.5s-21.5 122.167 -21.5 201.5v570z" />
    <glyph glyph-name="ucircumflex" unicode="&#xfb;" horiz-adv-x="1340" 
d="M271 1391l302 400h194l300 -399l-108 -85l-289 244l-298 -245zM174 982l-100 36.998v117l360 29h1l46 -28v-732c0 -44 2.83301 -81.167 8.5 -111.5s15.167 -55.166 28.5 -74.499s31 -33.333 53 -42s49.333 -13 82 -13c24.667 0 47.834 2.5 69.501 7.5s41 11.333 58 19
s31.833 15.667 44.5 24s23 15.833 31 22.5v745l-138 39v118l388 26h2l55 -28v-1001h111v-124c-25.333 -6 -59 -13.333 -101 -22s-89.333 -13 -142 -13c-48.667 0 -84.334 10.667 -107.001 32s-34 53 -34 95v36c-17.333 -20 -38.5 -39.667 -63.5 -59
s-52.5 -36.833 -82.5 -52.5s-62 -28.167 -96 -37.5s-68 -14 -102 -14c-65.333 0 -121.5 7.83301 -168.5 23.5s-85.5 40.834 -115.5 75.501s-52.167 79.5 -66.5 134.5s-21.5 122.167 -21.5 201.5v570z" />
    <glyph glyph-name="udieresis" unicode="&#xfc;" horiz-adv-x="1340" 
d="M907 1334c-23.333 0 -43.998 4.33203 -61.998 12.999s-33.333 20.167 -46 34.5s-22.167 31.333 -28.5 51s-9.5 40.5 -9.5 62.5c0 26 3.5 50.5 10.5 73.5s17.833 43.167 32.5 60.5s32.667 31 54 41s46.666 15 75.999 15h1c26.667 0 50 -4.5 70 -13.5s36.667 -21 50 -36
s23.166 -32.167 29.499 -51.5s9.5 -39.666 9.5 -60.999c0 -26.667 -3.66699 -51.5 -11 -74.5s-18.5 -43 -33.5 -60s-34.333 -30.333 -58 -40s-51.5 -14.5 -83.5 -14.5h-1zM397.002 1334c-23.333 0 -44.1709 4.33203 -62.5039 12.999s-33.666 20.167 -45.999 34.5
s-21.666 31.333 -27.999 51s-9.5 40.5 -9.5 62.5c0 26 3.5 50.5 10.5 73.5s17.667 43.167 32 60.5s32.333 31 54 41s47.167 15 76.5 15h1c26.667 0 50 -4.5 70 -13.5s36.5 -21 49.5 -36s22.833 -32.167 29.5 -51.5s10 -39.666 10 -60.999
c0 -26.667 -3.66699 -51.5 -11 -74.5s-18.666 -43 -33.999 -60s-34.666 -30.333 -57.999 -40s-51 -14.5 -83 -14.5h-1zM173.997 981.998l-100 36.998v117l360 29h1l46 -28v-732c0 -44 2.83301 -81.167 8.5 -111.5s15.167 -55.166 28.5 -74.499s31 -33.333 53 -42
s49.333 -13 82 -13c24.667 0 47.834 2.5 69.501 7.5s41 11.333 58 19s31.833 15.667 44.5 24s23 15.833 31 22.5v745l-138 39v118l388 26h2l55 -28v-1001h111v-124c-25.333 -6 -59 -13.333 -101 -22s-89.333 -13 -142 -13c-48.667 0 -84.334 10.667 -107.001 32
s-34 53 -34 95v36c-17.333 -20 -38.5 -39.667 -63.5 -59s-52.5 -36.833 -82.5 -52.5s-62 -28.167 -96 -37.5s-68 -14 -102 -14c-65.333 0 -121.5 7.83301 -168.5 23.5s-85.5 40.834 -115.5 75.501s-52.167 79.5 -66.5 134.5s-21.5 122.167 -21.5 201.5v570z" />
    <glyph glyph-name="yacute" unicode="&#xfd;" horiz-adv-x="1228" 
d="M166 -251c10 -4.66699 29.8311 -10.167 59.498 -16.5s64.5 -9.5 104.5 -9.5c20 0 41.833 2.33301 65.5 7s48.167 16.334 73.5 35.001s51 46.5 77 83.5s51.333 87.5 76 151.5h-180l-360 990l-91 28v128h579v-128l-151 -29l191 -592l78 -272l68 272l152 592l-130 29v128
h442v-128l-92 -28l-61.5 -196.5l-65.5 -213l-65 -209.5l-58 -186l-45.5 -143c-13 -39.333 -22.5 -66 -28.5 -80c-28 -77.333 -58.5 -145.333 -91.5 -204s-69 -107.834 -108 -147.501s-81.667 -69.667 -128 -90s-96.833 -30.5 -151.5 -30.5c-13.333 0 -28 0.333008 -44 1
s-31.667 1.66699 -47 3s-29.166 2.83301 -41.499 4.5s-21.166 3.5 -26.499 5.5v245v0zM491.998 1407l351 429.003h1l188 -173c-10.667 -19.333 -26.167 -40.5 -46.5 -63.5s-43.333 -46.5 -69 -70.5s-53 -47.833 -82 -71.5s-57.5 -45.334 -85.5 -65.001
s-54.5 -36.834 -79.5 -51.501s-46.5 -25.334 -64.5 -32.001h-2z" />
    <glyph glyph-name="thorn" unicode="&#xfe;" horiz-adv-x="1272" 
d="M155 -346l0.00195312 1835l-150 25v117l390 49h4l63 -41v-595c16 16 34.667 31.333 56 46s44.833 27.834 70.5 39.501s53.667 21 84 28s62.5 10.5 96.5 10.5c60 0 116.667 -10 170 -30s100.166 -52.333 140.499 -97s72.333 -102.667 96 -174s35.5 -158.333 35.5 -261
c0 -88.667 -13.5 -171.334 -40.5 -248.001s-66 -143.167 -117 -199.5s-113.167 -100.666 -186.5 -132.999s-156.333 -48.5 -249 -48.5c-30 0 -58.333 0.666992 -85 2s-52.334 3.33301 -77.001 6l7 -155v-176l194 -25v-125h-649v125zM462.002 160.999
c8.66699 -15.333 26.667 -27.5029 54 -36.5029s58.333 -13.5 93 -13.5c45.333 0 84.666 12 117.999 36s61 56.833 83 98.5s38.5 90.334 49.5 146.001s16.833 115.167 17.5 178.5c0.666992 65.333 -3.66602 123.833 -12.999 175.5s-23.666 95.334 -42.999 131.001
s-43.833 62.834 -73.5 81.501s-64.834 28 -105.501 28c-41.333 0 -77.5 -7.66699 -108.5 -23s-54.833 -32.333 -71.5 -51v-751z" />
    <glyph glyph-name="ydieresis" unicode="&#xff;" horiz-adv-x="1228" 
d="M166 -251c10 -4.66699 29.8311 -10.167 59.498 -16.5s64.5 -9.5 104.5 -9.5c20 0 41.833 2.33301 65.5 7s48.167 16.334 73.5 35.001s51 46.5 77 83.5s51.333 87.5 76 151.5h-180l-360 990l-91 28v128h579v-128l-151 -29l191 -592l78 -272l68 272l152 592l-130 29v128
h442v-128l-92 -28l-61.5 -196.5l-65.5 -213l-65 -209.5l-58 -186l-45.5 -143c-13 -39.333 -22.5 -66 -28.5 -80c-28 -77.333 -58.5 -145.333 -91.5 -204s-69 -107.834 -108 -147.501s-81.667 -69.667 -128 -90s-96.833 -30.5 -151.5 -30.5c-13.333 0 -28 0.333008 -44 1
s-31.667 1.66699 -47 3s-29.166 2.83301 -41.499 4.5s-21.166 3.5 -26.499 5.5v245v0zM901.998 1334c-23.333 0 -43.998 4.33203 -61.998 12.999s-33.333 20.167 -46 34.5s-22.167 31.333 -28.5 51s-9.5 40.5 -9.5 62.5c0 26 3.5 50.5 10.5 73.5s17.833 43.167 32.5 60.5
s32.667 31 54 41s46.666 15 75.999 15h1c26.667 0 50 -4.5 70 -13.5s36.667 -21 50 -36s23.166 -32.167 29.499 -51.5s9.5 -39.666 9.5 -60.999c0 -26.667 -3.66699 -51.5 -11 -74.5s-18.5 -43 -33.5 -60s-34.333 -30.333 -58 -40s-51.5 -14.5 -83.5 -14.5h-1zM392 1334
c-23.333 0 -44.1709 4.33203 -62.5039 12.999s-33.666 20.167 -45.999 34.5s-21.666 31.333 -27.999 51s-9.5 40.5 -9.5 62.5c0 26 3.5 50.5 10.5 73.5s17.667 43.167 32 60.5s32.333 31 54 41s47.167 15 76.5 15h1c26.667 0 50 -4.5 70 -13.5s36.5 -21 49.5 -36
s22.833 -32.167 29.5 -51.5s10 -39.666 10 -60.999c0 -26.667 -3.66699 -51.5 -11 -74.5s-18.666 -43 -33.999 -60s-34.666 -30.333 -57.999 -40s-51 -14.5 -83 -14.5h-1z" />
    <glyph glyph-name="Amacron" unicode="&#x100;" horiz-adv-x="1441" 
d="M-48 137l129 28l482 1363h321l481 -1363l139 -28v-137h-649v137l163 28l-75 244h-543l-71 -245l165 -27v-137h-541zM895 565l-197 645l-35 146l-32 -146l-186 -645h450zM417 1916h623v-194h-623v194z" />
    <glyph glyph-name="amacron" unicode="&#x101;" horiz-adv-x="1167" 
d="M62 304c0 48.667 8.8291 92.001 26.4961 130.001s42 71.333 73 100s67.5 53 109.5 73s87.333 36.5 136 49.5s99.334 22.5 152.001 28.5s105.334 9.66699 158.001 11v48c0 38 -3.83301 70.5 -11.5 97.5s-19.5 49 -35.5 66s-36.5 29.333 -61.5 37s-55.167 11.5 -90.5 11.5
c-36 0 -72.167 -2.83301 -108.5 -8.5s-71.166 -12.667 -104.499 -21s-64.166 -17.666 -92.499 -27.999s-52.5 -20.166 -72.5 -29.499h-1l-59 134c14 11.333 37.667 26.166 71 44.499s73.333 36.166 120 53.499s98.334 32.333 155.001 45s115 19 175 19
c74 0 136.833 -8 188.5 -24s93.667 -40.667 126 -74s56 -75.5 71 -126.5s22.5 -111.167 22.5 -180.5v-624h124v-123c-12.667 -3.33301 -28.334 -7 -47.001 -11s-39.334 -7.83301 -62.001 -11.5s-47 -6.83398 -73 -9.50098s-52.667 -4 -80 -4c-24 0 -44.5 1 -61.5 3
s-30.667 6.66699 -41 14s-17.833 17.833 -22.5 31.5s-7 32.167 -7 55.5v58c-11.333 -15.333 -27 -32.333 -47 -51s-44.167 -36.334 -72.5 -53.001s-60.5 -30.5 -96.5 -41.5s-75.667 -16.5 -119 -16.5c-47.333 0 -91.666 6.33301 -132.999 19s-77.5 32.334 -108.5 59.001
s-55.5 60.5 -73.5 101.5s-27 90.167 -27 147.5zM378.996 352.001c0 -59.333 13.4971 -104.5 40.4971 -135.5s66.5 -46.5 118.5 -46.5c10.667 0 23.834 1.66699 39.501 5s31.834 8 48.501 14s33 13.167 49 21.5s30 17.833 42 28.5v331c-65.333 0 -119.666 -6 -162.999 -18
s-78 -28 -104 -48s-44.333 -43.167 -55 -69.5s-16 -53.833 -16 -82.5zM279.993 1614h578v-193h-578v193z" />
    <glyph glyph-name="Abreve" unicode="&#x102;" horiz-adv-x="1441" 
d="M-48 137l129 28l482 1363h321l481 -1363l139 -28v-137h-649v137l163 28l-75 244h-543l-71 -245l165 -27v-137h-541zM895 565l-197 645l-35 146l-32 -146l-186 -645h450zM729 1621c-62 0 -116.169 9.33203 -162.502 27.999s-85 43.667 -116 75s-54.167 67.5 -69.5 108.5
s-23 83.5 -23 127.5c0 14.667 1 29.667 3 45h151c0 -2.66699 0.166992 -5.83398 0.5 -9.50098s0.833008 -8.16699 1.5 -13.5c2.66699 -14 7.83398 -30.167 15.501 -48.5s19.667 -35.666 36 -51.999s37.833 -30.333 64.5 -42s60.334 -17.5 101.001 -17.5s74 5.83301 100 17.5
s46.667 25.834 62 42.501s26.333 34.167 33 52.5s11 34.166 13 47.499c0.666992 5.33301 1 9.83301 1 13.5v9.5h153c0.666992 -7.33301 1.16699 -14.5 1.5 -21.5s0.5 -14.167 0.5 -21.5c0 -44 -7.83301 -86.667 -23.5 -128s-39 -77.666 -70 -108.999
s-69.333 -56.5 -115 -75.5s-98.167 -28.5 -157.5 -28.5z" />
    <glyph glyph-name="abreve" unicode="&#x103;" horiz-adv-x="1167" 
d="M62 304c0 48.667 8.8291 92.001 26.4961 130.001s42 71.333 73 100s67.5 53 109.5 73s87.333 36.5 136 49.5s99.334 22.5 152.001 28.5s105.334 9.66699 158.001 11v48c0 38 -3.83301 70.5 -11.5 97.5s-19.5 49 -35.5 66s-36.5 29.333 -61.5 37s-55.167 11.5 -90.5 11.5
c-36 0 -72.167 -2.83301 -108.5 -8.5s-71.166 -12.667 -104.499 -21s-64.166 -17.666 -92.499 -27.999s-52.5 -20.166 -72.5 -29.499h-1l-59 134c14 11.333 37.667 26.166 71 44.499s73.333 36.166 120 53.499s98.334 32.333 155.001 45s115 19 175 19
c74 0 136.833 -8 188.5 -24s93.667 -40.667 126 -74s56 -75.5 71 -126.5s22.5 -111.167 22.5 -180.5v-624h124v-123c-12.667 -3.33301 -28.334 -7 -47.001 -11s-39.334 -7.83301 -62.001 -11.5s-47 -6.83398 -73 -9.50098s-52.667 -4 -80 -4c-24 0 -44.5 1 -61.5 3
s-30.667 6.66699 -41 14s-17.833 17.833 -22.5 31.5s-7 32.167 -7 55.5v58c-11.333 -15.333 -27 -32.333 -47 -51s-44.167 -36.334 -72.5 -53.001s-60.5 -30.5 -96.5 -41.5s-75.667 -16.5 -119 -16.5c-47.333 0 -91.666 6.33301 -132.999 19s-77.5 32.334 -108.5 59.001
s-55.5 60.5 -73.5 101.5s-27 90.167 -27 147.5zM378.996 352.001c0 -59.333 13.4971 -104.5 40.4971 -135.5s66.5 -46.5 118.5 -46.5c10.667 0 23.834 1.66699 39.501 5s31.834 8 48.501 14s33 13.167 49 21.5s30 17.833 42 28.5v331c-65.333 0 -119.666 -6 -162.999 -18
s-78 -28 -104 -48s-44.333 -43.167 -55 -69.5s-16 -53.833 -16 -82.5zM569.993 1332c-54 0 -103.331 9.00195 -147.998 27.002s-83 42.667 -115 74s-56.833 67.833 -74.5 109.5s-26.5 86.167 -26.5 133.5c0 14 0.166992 29.667 0.5 47s1.16602 30.666 2.49902 39.999h146
c0 -5.33301 0.333008 -11.666 1 -18.999s1.66699 -15 3 -23c2.66699 -18.667 8.16699 -38.334 16.5 -59.001s20.666 -39.5 36.999 -56.5s37.5 -31 63.5 -42s58 -16.5 96 -16.5s69.5 5.5 94.5 16.5s45.5 25 61.5 42s27.833 35.667 35.5 56s12.834 39.833 15.501 58.5
c1.33301 8.66699 2.33301 16.667 3 24s1 13.666 1 18.999h141c0.666992 -4.66699 1.16699 -10.5 1.5 -17.5s0.666016 -14.5 0.999023 -22.5l1 -24c0.333008 -8 0.5 -15.333 0.5 -22c0 -47.333 -9 -92 -27 -134s-43 -78.667 -75 -110s-69.833 -56 -113.5 -74
s-91.167 -27 -142.5 -27z" />
    <glyph glyph-name="Aogonek" unicode="&#x104;" horiz-adv-x="1441" 
d="M-51 137l129 28.001l482 1363h321l481 -1363l139 -28v-137h-159c-33.333 -14 -63.166 -30.167 -89.499 -48.5s-48.5 -37.5 -66.5 -57.5s-31.833 -40 -41.5 -60s-14.5 -38.667 -14.5 -56c0 -36 12.333 -63.167 37 -81.5s57.667 -27.5 99 -27.5
c23.333 0 44.166 1.83301 62.499 5.5s38.833 10.167 61.5 19.5v-139c-14 -10.667 -30.833 -20.167 -50.5 -28.5s-40.5 -15.5 -62.5 -21.5s-44.5 -10.5 -67.5 -13.5s-44.833 -4.5 -65.5 -4.5c-32 0 -64 3.66699 -96 11s-61 19.166 -87 35.499s-47 37.333 -63 63
s-24 56.834 -24 93.501c0 27.333 6.66699 55.666 20 84.999s32.5 58 57.5 86s54.833 54 89.5 78s73.667 44.333 117 61h-306v137l163 28l-75 244h-543l-71 -245l165 -27v-137h-541zM892 565.001l-197 645l-35 146l-32 -146l-186 -645h450z" />
    <glyph glyph-name="aogonek" unicode="&#x105;" horiz-adv-x="1167" 
d="M62 304c0 48.667 8.82715 92.001 26.4941 130.001s42 71.333 73 100s67.5 53 109.5 73s87.333 36.5 136 49.5s99.334 22.5 152.001 28.5s105.334 9.66699 158.001 11v48c0 38 -3.83301 70.5 -11.5 97.5s-19.5 49 -35.5 66s-36.5 29.333 -61.5 37s-55.167 11.5 -90.5 11.5
c-36 0 -72.167 -2.83301 -108.5 -8.5s-71.166 -12.667 -104.499 -21s-64.166 -17.666 -92.499 -27.999s-52.5 -20.166 -72.5 -29.499h-1l-59 134c14 11.333 37.667 26.166 71 44.499s73.333 36.166 120 53.499s98.334 32.333 155.001 45s115 19 175 19
c74 0 136.833 -8 188.5 -24s93.667 -40.667 126 -74s56 -75.5 71 -126.5s22.5 -111.167 22.5 -180.5v-624h124v-123c-0.666992 0 -1.33398 -0.333008 -2.00098 -1l8 1c-39.333 -11.333 -75.666 -26.333 -108.999 -45s-62.166 -39 -86.499 -61s-43.5 -44.333 -57.5 -67
s-21 -43.334 -21 -62.001c0 -36 12.333 -63.167 37 -81.5s57.667 -27.5 99 -27.5c23.333 0 44.166 1.83301 62.499 5.5s38.833 10.167 61.5 19.5v-139c-14 -10.667 -30.833 -20.167 -50.5 -28.5s-40.5 -15.5 -62.5 -21.5s-44.5 -10.5 -67.5 -13.5s-44.833 -4.5 -65.5 -4.5
c-32 0 -64.167 3.66699 -96.5 11s-61.333 19.166 -87 35.499s-46.667 37.333 -63 63s-24.5 56.834 -24.5 93.501c0 24 5.83301 49.167 17.5 75.5s28.167 52.333 49.5 78s47.166 50 77.499 73s64.166 43.167 101.499 60.5c-21.333 0.666992 -39.166 2.33398 -53.499 5.00098
s-26.166 7.66699 -35.499 15s-16 17.666 -20 30.999s-6 31 -6 53v58c-11.333 -15.333 -27 -32.333 -47 -51s-44.167 -36.334 -72.5 -53.001s-60.5 -30.5 -96.5 -41.5s-75.667 -16.5 -119 -16.5c-47.333 0 -91.666 6.33301 -132.999 19s-77.5 32.334 -108.5 59.001
s-55.5 60.5 -73.5 101.5s-27 90.167 -27 147.5zM378.994 352.001c0 -59.333 13.4971 -104.5 40.4971 -135.5s66.5 -46.5 118.5 -46.5c10.667 0 23.834 1.66699 39.501 5s31.834 8 48.501 14s33 13.167 49 21.5s30 17.833 42 28.5v331c-65.333 0 -119.666 -6 -162.999 -18
s-78 -28 -104 -48s-44.333 -43.167 -55 -69.5s-16 -53.833 -16 -82.5z" />
    <glyph glyph-name="Cacute" unicode="&#x106;" horiz-adv-x="1370" 
d="M66 754c0 118 19.998 225.167 59.998 321.5s95.333 178.833 166 247.5s154 121.667 250 159s199.667 56 311 56c48 0 93.667 -2.83301 137 -8.5s83.833 -12 121.5 -19s72 -14.167 103 -21.5s58.167 -12.333 81.5 -15l-23 -398h-205l-60 263
c-7.33301 8 -16 15.833 -26 23.5s-22.5 14.167 -37.5 19.5s-33.167 9.66602 -54.5 12.999s-46.666 5 -75.999 5c-57.333 0 -110 -12.5 -158 -37.5s-89.167 -62.667 -123.5 -113s-61 -113.5 -80 -189.5s-28.5 -165 -28.5 -267c0 -88 7.66699 -172.667 23 -254
s38.833 -153.166 70.5 -215.499s71.834 -112.166 120.501 -149.499s106.334 -56 173.001 -56c33.333 0 62 1.83301 86 5.5s44.667 8.5 62 14.5s31.666 13 42.999 21s21 16.667 29 26l91 221l176 -10l-24 -340c-28.667 -2 -57.667 -7.16699 -87 -15.5
s-62.333 -17.166 -99 -26.499s-79.167 -17.833 -127.5 -25.5s-105.833 -11.5 -172.5 -11.5c-118 0 -221.833 18.833 -311.5 56.5s-165 90.667 -226 159s-107 150.166 -138 245.499s-46.5 200.666 -46.5 315.999zM638.998 1692l316.999 322h1l197 -141
c-11.333 -18.667 -27 -37.5 -47 -56.5s-42.167 -37.833 -66.5 -56.5s-50 -36.5 -77 -53.5s-53.167 -32.333 -78.5 -46s-49.166 -25.5 -71.499 -35.5s-40.833 -17 -55.5 -21h-1z" />
    <glyph glyph-name="cacute" unicode="&#x107;" horiz-adv-x="1066" 
d="M410 1407l351 429.003h1l188 -173c-10.667 -19.333 -26.167 -40.5 -46.5 -63.5s-43.333 -46.5 -69 -70.5s-53 -47.833 -82 -71.5s-57.5 -45.334 -85.5 -65.001s-54.5 -36.834 -79.5 -51.501s-46.5 -25.334 -64.5 -32.001h-2zM72 559.003
c0 90 13.502 172.33 40.502 246.997s65.5 138.834 115.5 192.501s110.5 95.334 181.5 125.001s150.5 44.5 238.5 44.5c44.667 0 85.667 -2.5 123 -7.5s70.666 -10.833 99.999 -17.5s54.666 -13.5 75.999 -20.5s38.666 -12.5 51.999 -16.5l-10 -341h-176l-58 176
c-14.667 28 -32.667 50 -54 66s-47.333 24 -78 24c-30 0 -58.5 -7.5 -85.5 -22.5s-51 -38.667 -72 -71s-37.833 -74.166 -50.5 -125.499s-19 -113.333 -19 -186c0 -83.333 6.5 -153.5 19.5 -210.5s32 -103.167 57 -138.5s55.333 -60.833 91 -76.5s76.167 -23.5 121.5 -23.5
c30.667 0 59.5 2.33301 86.5 7s51.833 10.667 74.5 18s43.334 15.666 62.001 24.999s35.667 19 51 29l53 -121c-14 -15.333 -34.167 -32.166 -60.5 -50.499s-57 -35.5 -92 -51.5s-73.667 -29.333 -116 -40s-86.5 -16 -132.5 -16c-94 0 -175 14.667 -243 44
s-123.833 70 -167.5 122s-76 113.5 -97 184.5s-31.5 148.167 -31.5 231.5z" />
    <glyph glyph-name="Ccircumflex" unicode="&#x108;" horiz-adv-x="1370" 
d="M66 754c0 118 19.998 225.167 59.998 321.5s95.333 178.833 166 247.5s154 121.667 250 159s199.667 56 311 56c48 0 93.667 -2.83301 137 -8.5s83.833 -12 121.5 -19s72 -14.167 103 -21.5s58.167 -12.333 81.5 -15l-23 -398h-205l-60 263
c-7.33301 8 -16 15.833 -26 23.5s-22.5 14.167 -37.5 19.5s-33.167 9.66602 -54.5 12.999s-46.666 5 -75.999 5c-57.333 0 -110 -12.5 -158 -37.5s-89.167 -62.667 -123.5 -113s-61 -113.5 -80 -189.5s-28.5 -165 -28.5 -267c0 -88 7.66699 -172.667 23 -254
s38.833 -153.166 70.5 -215.499s71.834 -112.166 120.501 -149.499s106.334 -56 173.001 -56c33.333 0 62 1.83301 86 5.5s44.667 8.5 62 14.5s31.666 13 42.999 21s21 16.667 29 26l91 221l176 -10l-24 -340c-28.667 -2 -57.667 -7.16699 -87 -15.5
s-62.333 -17.166 -99 -26.499s-79.167 -17.833 -127.5 -25.5s-105.833 -11.5 -172.5 -11.5c-118 0 -221.833 18.833 -311.5 56.5s-165 90.667 -226 159s-107 150.166 -138 245.499s-46.5 200.666 -46.5 315.999zM401.998 1701l293 313h200l294 -312l-108 -86l-286 197
l-288 -197z" />
    <glyph glyph-name="ccircumflex" unicode="&#x109;" horiz-adv-x="1066" 
d="M205 1391l302 400h194l300 -399l-108 -85l-289 244l-298 -245zM72 559c0 90 13.502 172.33 40.502 246.997s65.5 138.834 115.5 192.501s110.5 95.334 181.5 125.001s150.5 44.5 238.5 44.5c44.667 0 85.667 -2.5 123 -7.5s70.666 -10.833 99.999 -17.5
s54.666 -13.5 75.999 -20.5s38.666 -12.5 51.999 -16.5l-10 -341h-176l-58 176c-14.667 28 -32.667 50 -54 66s-47.333 24 -78 24c-30 0 -58.5 -7.5 -85.5 -22.5s-51 -38.667 -72 -71s-37.833 -74.166 -50.5 -125.499s-19 -113.333 -19 -186
c0 -83.333 6.5 -153.5 19.5 -210.5s32 -103.167 57 -138.5s55.333 -60.833 91 -76.5s76.167 -23.5 121.5 -23.5c30.667 0 59.5 2.33301 86.5 7s51.833 10.667 74.5 18s43.334 15.666 62.001 24.999s35.667 19 51 29l53 -121c-14 -15.333 -34.167 -32.166 -60.5 -50.499
s-57 -35.5 -92 -51.5s-73.667 -29.333 -116 -40s-86.5 -16 -132.5 -16c-94 0 -175 14.667 -243 44s-123.833 70 -167.5 122s-76 113.5 -97 184.5s-31.5 148.167 -31.5 231.5z" />
    <glyph glyph-name="Cdotaccent" unicode="&#x10a;" horiz-adv-x="1370" 
d="M777 1647c-23.333 0 -44.167 4.33008 -62.5 12.9971s-33.666 20.334 -45.999 35.001s-21.666 31.834 -27.999 51.501s-9.5 40.5 -9.5 62.5c0 26 3.5 50.5 10.5 73.5s17.833 43.167 32.5 60.5s32.667 31 54 41s46.666 15 75.999 15h1c26.667 0 50 -4.5 70 -13.5
s36.667 -21 50 -36s23.166 -32.167 29.499 -51.5s9.5 -39.666 9.5 -60.999c0 -26.667 -3.66699 -51.5 -11 -74.5s-18.5 -43 -33.5 -60s-34.333 -30.5 -58 -40.5s-51.5 -15 -83.5 -15h-1v0zM65.999 753.997c0 118 19.998 225.167 59.998 321.5s95.333 178.833 166 247.5
s154 121.667 250 159s199.667 56 311 56c48 0 93.667 -2.83301 137 -8.5s83.833 -12 121.5 -19s72 -14.167 103 -21.5s58.167 -12.333 81.5 -15l-23 -398h-205l-60 263c-7.33301 8 -16 15.833 -26 23.5s-22.5 14.167 -37.5 19.5s-33.167 9.66602 -54.5 12.999
s-46.666 5 -75.999 5c-57.333 0 -110 -12.5 -158 -37.5s-89.167 -62.667 -123.5 -113s-61 -113.5 -80 -189.5s-28.5 -165 -28.5 -267c0 -88 7.66699 -172.667 23 -254s38.833 -153.166 70.5 -215.499s71.834 -112.166 120.501 -149.499s106.334 -56 173.001 -56
c33.333 0 62 1.83301 86 5.5s44.667 8.5 62 14.5s31.666 13 42.999 21s21 16.667 29 26l91 221l176 -10l-24 -340c-28.667 -2 -57.667 -7.16699 -87 -15.5s-62.333 -17.166 -99 -26.499s-79.167 -17.833 -127.5 -25.5s-105.833 -11.5 -172.5 -11.5
c-118 0 -221.833 18.833 -311.5 56.5s-165 90.667 -226 159s-107 150.166 -138 245.499s-46.5 200.666 -46.5 315.999z" />
    <glyph glyph-name="cdotaccent" unicode="&#x10b;" horiz-adv-x="1066" 
d="M72 559c0 90 13.502 172.33 40.502 246.997s65.5 138.834 115.5 192.501s110.5 95.334 181.5 125.001s150.5 44.5 238.5 44.5c44.667 0 85.667 -2.5 123 -7.5s70.666 -10.833 99.999 -17.5s54.666 -13.5 75.999 -20.5s38.666 -12.5 51.999 -16.5l-10 -341h-176l-58 176
c-14.667 28 -32.667 50 -54 66s-47.333 24 -78 24c-30 0 -58.5 -7.5 -85.5 -22.5s-51 -38.667 -72 -71s-37.833 -74.166 -50.5 -125.499s-19 -113.333 -19 -186c0 -83.333 6.5 -153.5 19.5 -210.5s32 -103.167 57 -138.5s55.333 -60.833 91 -76.5s76.167 -23.5 121.5 -23.5
c30.667 0 59.5 2.33301 86.5 7s51.833 10.667 74.5 18s43.334 15.666 62.001 24.999s35.667 19 51 29l53 -121c-14 -15.333 -34.167 -32.166 -60.5 -50.499s-57 -35.5 -92 -51.5s-73.667 -29.333 -116 -40s-86.5 -16 -132.5 -16c-94 0 -175 14.667 -243 44
s-123.833 70 -167.5 122s-76 113.5 -97 184.5s-31.5 148.167 -31.5 231.5zM567.002 1334c-23.333 0 -44.167 4.33203 -62.5 12.999s-33.666 20.167 -45.999 34.5s-21.666 31.333 -27.999 51s-9.5 40.5 -9.5 62.5c0 26 3.5 50.5 10.5 73.5s17.833 43.167 32.5 60.5
s32.667 31 54 41s46.666 15 75.999 15h1c26.667 0 50 -4.5 70 -13.5s36.667 -21 50 -36s23.166 -32.167 29.499 -51.5s9.5 -39.666 9.5 -60.999c0 -26.667 -3.66699 -51.5 -11 -74.5s-18.5 -43 -33.5 -60s-34.333 -30.333 -58 -40s-51.5 -14.5 -83.5 -14.5h-1v0z" />
    <glyph glyph-name="Ccaron" unicode="&#x10c;" horiz-adv-x="1370" 
d="M66 754c0 118 19.998 225.167 59.998 321.5s95.333 178.833 166 247.5s154 121.667 250 159s199.667 56 311 56c48 0 93.667 -2.83301 137 -8.5s83.833 -12 121.5 -19s72 -14.167 103 -21.5s58.167 -12.333 81.5 -15l-23 -398h-205l-60 263
c-7.33301 8 -16 15.833 -26 23.5s-22.5 14.167 -37.5 19.5s-33.167 9.66602 -54.5 12.999s-46.666 5 -75.999 5c-57.333 0 -110 -12.5 -158 -37.5s-89.167 -62.667 -123.5 -113s-61 -113.5 -80 -189.5s-28.5 -165 -28.5 -267c0 -88 7.66699 -172.667 23 -254
s38.833 -153.166 70.5 -215.499s71.834 -112.166 120.501 -149.499s106.334 -56 173.001 -56c33.333 0 62 1.83301 86 5.5s44.667 8.5 62 14.5s31.666 13 42.999 21s21 16.667 29 26l91 221l176 -10l-24 -340c-28.667 -2 -57.667 -7.16699 -87 -15.5
s-62.333 -17.166 -99 -26.499s-79.167 -17.833 -127.5 -25.5s-105.833 -11.5 -172.5 -11.5c-118 0 -221.833 18.833 -311.5 56.5s-165 90.667 -226 159s-107 150.166 -138 245.499s-46.5 200.666 -46.5 315.999zM422.998 1927l109 87l266 -191l279 191l105 -85l-284 -301
h-201z" />
    <glyph glyph-name="ccaron" unicode="&#x10d;" horiz-adv-x="1066" 
d="M209 1716l105 85l291 -244l294 245l103 -85l-300 -400h-195zM72 559c0 90 13.502 172.33 40.502 246.997s65.5 138.834 115.5 192.501s110.5 95.334 181.5 125.001s150.5 44.5 238.5 44.5c44.667 0 85.667 -2.5 123 -7.5s70.666 -10.833 99.999 -17.5
s54.666 -13.5 75.999 -20.5s38.666 -12.5 51.999 -16.5l-10 -341h-176l-58 176c-14.667 28 -32.667 50 -54 66s-47.333 24 -78 24c-30 0 -58.5 -7.5 -85.5 -22.5s-51 -38.667 -72 -71s-37.833 -74.166 -50.5 -125.499s-19 -113.333 -19 -186
c0 -83.333 6.5 -153.5 19.5 -210.5s32 -103.167 57 -138.5s55.333 -60.833 91 -76.5s76.167 -23.5 121.5 -23.5c30.667 0 59.5 2.33301 86.5 7s51.833 10.667 74.5 18s43.334 15.666 62.001 24.999s35.667 19 51 29l53 -121c-14 -15.333 -34.167 -32.166 -60.5 -50.499
s-57 -35.5 -92 -51.5s-73.667 -29.333 -116 -40s-86.5 -16 -132.5 -16c-94 0 -175 14.667 -243 44s-123.833 70 -167.5 122s-76 113.5 -97 184.5s-31.5 148.167 -31.5 231.5z" />
    <glyph glyph-name="Dcaron" unicode="&#x10e;" horiz-adv-x="1593" 
d="M459 1927l109 87l266 -191l279 191l105 -85l-284 -301h-201zM85 137l164.003 26.9941v1194l-157 30v134h312c37.333 0 71 0.666992 101 2s59.833 2.83301 89.5 4.5s60.667 3.16699 93 4.5s69.166 2 110.499 2c128 0 238 -16.167 330 -48.5s167.667 -79.166 227 -140.499
s103 -136.5 131 -225.5s42 -190.5 42 -304.5c0 -125.333 -18.5 -239.666 -55.5 -342.999s-89 -191.666 -156 -264.999s-147.667 -129.666 -242 -168.999s-198.5 -57.666 -312.5 -54.999c-25.333 0.666992 -53 1.83398 -83 3.50098s-60.833 3.5 -92.5 5.5
s-62.834 3.66699 -93.501 5s-59.334 2 -86.001 2h-322v137zM570.003 144.994c26.667 -9.33301 55.667 -15.002 87 -17.002s65.333 -2.33301 102 -1c64 0.666992 122.333 14.334 175 41.001s98 66.334 136 119.001s67.5 118.667 88.5 198s31.5 172 31.5 278
c0 101.333 -9.16699 191.5 -27.5 270.5s-46.5 145.5 -84.5 199.5s-86.5 95.167 -145.5 123.5s-129.167 42.5 -210.5 42.5c-38 0 -69.667 -1.5 -95 -4.5s-44.333 -5.5 -57 -7.5v-1242z" />
    <glyph glyph-name="dcaron" unicode="&#x10f;" horiz-adv-x="1513" 
d="M514 -22c-62 0 -119.834 11.167 -173.501 33.5s-100.5 56.833 -140.5 103.5s-71.333 105.334 -94 176.001s-34 154.667 -34 252c0 91.333 13.5 175.166 40.5 251.499s66 142.166 117 197.499s113.167 98.5 186.5 129.5s156.333 46.5 249 46.5
c28 0 55.167 -1.33301 81.5 -4s51.5 -6.66699 75.5 -12v340l-183 31v114l423 43h5l62 -47v-1494h111v-126c-33.333 -7.33301 -71.333 -15.166 -114 -23.499s-89.334 -12.5 -140.001 -12.5c-41.333 0 -73.166 9 -95.499 27s-33.5 50.667 -33.5 98v39
c-16.667 -21.333 -36.5 -41.833 -59.5 -61.5s-49 -37 -78 -52s-60.667 -27 -95 -36s-71.166 -13.5 -110.499 -13.5zM640.999 159c40.667 0 76.8291 7.66797 108.496 23.001s55.834 32.666 72.501 51.999v754c-11.333 12 -30 22.667 -56 32s-57 14 -93 14
s-70 -7.66699 -102 -23s-60 -40.833 -84 -76.5s-43.167 -82.5 -57.5 -140.5s-22.166 -129.667 -23.499 -215c-1.33301 -74.667 3.33398 -138.5 14.001 -191.5s26.167 -96.5 46.5 -130.5s45.333 -58.833 75 -74.5s62.834 -23.5 99.501 -23.5zM1313.99 1048l-7 25.9971
c10 58.667 16.333 112.334 19 161.001s4 91.334 4 128.001c0 26.667 -1.66699 52.667 -5 78s-7.5 48.666 -12.5 69.999s-10.5 40 -16.5 56s-12 27.667 -18 35l15 42l214 53c9.33301 -10 18 -24.833 26 -44.5s14.833 -41.667 20.5 -66s10 -50.166 13 -77.499s4.5 -54 4.5 -80
c0 -40 -3.5 -80.667 -10.5 -122s-16.333 -80.666 -28 -117.999s-25 -71.5 -40 -102.5s-30.5 -56.5 -46.5 -76.5z" />
    <glyph glyph-name="Dcroat" unicode="&#x110;" horiz-adv-x="1593" 
d="M85 137l164.003 26.9941v551h-156v146h156v497l-157 30v134h312c37.333 0 71 0.666992 101 2s59.833 2.83301 89.5 4.5s60.667 3.16699 93 4.5s69.166 2 110.499 2c128 0 238 -16.167 330 -48.5s167.667 -79.166 227 -140.499s103 -136.5 131 -225.5s42 -190.5 42 -304.5
c0 -125.333 -18.5 -239.666 -55.5 -342.999s-89 -191.666 -156 -264.999s-147.667 -129.666 -242 -168.999s-198.5 -57.666 -312.5 -54.999c-25.333 0.666992 -53 1.83398 -83 3.50098s-60.833 3.5 -92.5 5.5s-62.834 3.66699 -93.501 5s-59.334 2 -86.001 2h-322v137z
M570.003 144.994c26.667 -9.33301 55.667 -15.002 87 -17.002s65.333 -2.33301 102 -1c64 0.666992 122.333 14.334 175 41.001s98 66.334 136 119.001s67.5 118.667 88.5 198s31.5 172 31.5 278c0 101.333 -9.16699 191.5 -27.5 270.5s-46.5 145.5 -84.5 199.5
s-86.5 95.167 -145.5 123.5s-129.167 42.5 -210.5 42.5c-38 0 -69.667 -1.5 -95 -4.5s-44.333 -5.5 -57 -7.5v-526h280v-146h-280v-570z" />
    <glyph glyph-name="dcroat" unicode="&#x111;" horiz-adv-x="1303" 
d="M513 -22c-62 0 -119.834 11.167 -173.501 33.5s-100.5 56.833 -140.5 103.5s-71.333 105.334 -94 176.001s-34 154.667 -34 252c0 91.333 13.5 175.166 40.5 251.499s66 142.166 117 197.499s113.167 98.5 186.5 129.5s156.333 46.5 249 46.5
c28 0 55.167 -1.33301 81.5 -4s51.5 -6.66699 75.5 -12v112h-241v148h241v80l-183 31v114l423 43h5l62 -47v-221h144v-148h-144v-1125h111v-126c-33.333 -7.33301 -71.333 -15.166 -114 -23.499s-89.334 -12.5 -140.001 -12.5c-41.333 0 -73.166 9 -95.499 27
s-33.5 50.667 -33.5 98v39c-16.667 -21.333 -36.5 -41.833 -59.5 -61.5s-49 -37 -78 -52s-60.667 -27 -95 -36s-71.166 -13.5 -110.499 -13.5zM639.999 159c40.667 0 76.8291 7.66797 108.496 23.001s55.834 32.666 72.501 51.999v754c-11.333 12 -30 22.667 -56 32
s-57 14 -93 14s-70 -7.66699 -102 -23s-60 -40.833 -84 -76.5s-43.167 -82.5 -57.5 -140.5s-22.166 -129.667 -23.499 -215c-1.33301 -74.667 3.33398 -138.5 14.001 -191.5s26.167 -96.5 46.5 -130.5s45.333 -58.833 75 -74.5s62.834 -23.5 99.501 -23.5z" />
    <glyph glyph-name="Emacron" unicode="&#x112;" horiz-adv-x="1379" 
d="M387 1916h623v-194h-623v194zM85 137l164 27v1193l-162 31v134h1101l23 -347h-171l-73 194l-398 20v-542l260 4l30 168h173v-491h-173l-30 168l-260 5v-548l479 23l123 264l171 -39l-58 -401h-1199v137z" />
    <glyph glyph-name="emacron" unicode="&#x113;" horiz-adv-x="1123" 
d="M70 569c0 92.667 13.1699 176 39.5029 250s63.5 136.833 111.5 188.5s105.667 91.167 173 118.5s142 41 224 41c276.667 0 421 -135 433 -405c1.33301 -46 1.16602 -87.5 -0.500977 -124.5s-5.16699 -68.167 -10.5 -93.5h-652c3.33301 -66 13 -122.333 29 -169
s37 -84.667 63 -114s56.833 -50.666 92.5 -63.999s74.834 -20 117.501 -20c33.333 0 64.666 2.66699 93.999 8s56.5 12 81.5 20s47.5 17 67.5 27s37.667 19.667 53 29l52 -121c-16.667 -17.333 -39.834 -35.5 -69.501 -54.5s-63.667 -36.5 -102 -52.5
s-79.666 -29.333 -123.999 -40s-89.5 -16 -135.5 -16c-94 0 -174.833 14.667 -242.5 44s-123.334 70.166 -167.001 122.499s-75.834 114.833 -96.501 187.5s-31 152 -31 238zM745.003 679c0 3.33301 0.166992 8 0.5 14s0.666016 12.333 0.999023 19s0.5 12.834 0.5 18.501
v13.5c0 34 -2.33301 68.333 -7 103s-13.167 65.667 -25.5 93s-29.333 49.666 -51 66.999s-49.5 26 -83.5 26c-25.333 0 -49.166 -4.83301 -71.499 -14.5s-42 -27.5 -59 -53.5s-31 -62 -42 -108s-17.833 -105.333 -20.5 -178h358zM301.003 1614h578v-193h-578v193z" />
    <glyph glyph-name="Ebreve" unicode="&#x114;" horiz-adv-x="1379" 
d="M699 1621c-62 0 -116.169 9.33203 -162.502 27.999s-85 43.667 -116 75s-54.167 67.5 -69.5 108.5s-23 83.5 -23 127.5c0 14.667 1 29.667 3 45h151c0 -2.66699 0.166992 -5.83398 0.5 -9.50098s0.833008 -8.16699 1.5 -13.5c2.66699 -14 7.83398 -30.167 15.501 -48.5
s19.667 -35.666 36 -51.999s37.833 -30.333 64.5 -42s60.334 -17.5 101.001 -17.5s74 5.83301 100 17.5s46.667 25.834 62 42.501s26.333 34.167 33 52.5s11 34.166 13 47.499c0.666992 5.33301 1 9.83301 1 13.5v9.5h153c0.666992 -7.33301 1.16699 -14.5 1.5 -21.5
s0.5 -14.167 0.5 -21.5c0 -44 -7.83301 -86.667 -23.5 -128s-39 -77.666 -70 -108.999s-69.333 -56.5 -115 -75.5s-98.167 -28.5 -157.5 -28.5zM84.998 136.999l164 27v1193l-162 31v134h1101l23 -347h-171l-73 194l-398 20v-542l260 4l30 168h173v-491h-173l-30 168l-260 5
v-548l479 23l123 264l171 -39l-58 -401h-1199v137z" />
    <glyph glyph-name="ebreve" unicode="&#x115;" horiz-adv-x="1123" 
d="M70 569c0 92.667 13.1699 176 39.5029 250s63.5 136.833 111.5 188.5s105.667 91.167 173 118.5s142 41 224 41c276.667 0 421 -135 433 -405c1.33301 -46 1.16602 -87.5 -0.500977 -124.5s-5.16699 -68.167 -10.5 -93.5h-652c3.33301 -66 13 -122.333 29 -169
s37 -84.667 63 -114s56.833 -50.666 92.5 -63.999s74.834 -20 117.501 -20c33.333 0 64.666 2.66699 93.999 8s56.5 12 81.5 20s47.5 17 67.5 27s37.667 19.667 53 29l52 -121c-16.667 -17.333 -39.834 -35.5 -69.501 -54.5s-63.667 -36.5 -102 -52.5
s-79.666 -29.333 -123.999 -40s-89.5 -16 -135.5 -16c-94 0 -174.833 14.667 -242.5 44s-123.334 70.166 -167.001 122.499s-75.834 114.833 -96.501 187.5s-31 152 -31 238zM745.003 679c0 3.33301 0.166992 8 0.5 14s0.666016 12.333 0.999023 19s0.5 12.834 0.5 18.501
v13.5c0 34 -2.33301 68.333 -7 103s-13.167 65.667 -25.5 93s-29.333 49.666 -51 66.999s-49.5 26 -83.5 26c-25.333 0 -49.166 -4.83301 -71.499 -14.5s-42 -27.5 -59 -53.5s-31 -62 -42 -108s-17.833 -105.333 -20.5 -178h358zM591.003 1332
c-54 0 -103.331 9.00195 -147.998 27.002s-83 42.667 -115 74s-56.833 67.833 -74.5 109.5s-26.5 86.167 -26.5 133.5c0 14 0.166992 29.667 0.5 47s1.16602 30.666 2.49902 39.999h146c0 -5.33301 0.333008 -11.666 1 -18.999s1.66699 -15 3 -23
c2.66699 -18.667 8.16699 -38.334 16.5 -59.001s20.666 -39.5 36.999 -56.5s37.5 -31 63.5 -42s58 -16.5 96 -16.5s69.5 5.5 94.5 16.5s45.5 25 61.5 42s27.833 35.667 35.5 56s12.834 39.833 15.501 58.5c1.33301 8.66699 2.33301 16.667 3 24s1 13.666 1 18.999h141
c0.666992 -4.66699 1.16699 -10.5 1.5 -17.5s0.666016 -14.5 0.999023 -22.5l1 -24c0.333008 -8 0.5 -15.333 0.5 -22c0 -47.333 -9 -92 -27 -134s-43 -78.667 -75 -110s-69.833 -56 -113.5 -74s-91.167 -27 -142.5 -27z" />
    <glyph glyph-name="Edotaccent" unicode="&#x116;" horiz-adv-x="1379" 
d="M676 1647c-23.333 0 -44.167 4.33008 -62.5 12.9971s-33.666 20.334 -45.999 35.001s-21.666 31.834 -27.999 51.501s-9.5 40.5 -9.5 62.5c0 26 3.5 50.5 10.5 73.5s17.833 43.167 32.5 60.5s32.667 31 54 41s46.666 15 75.999 15h1c26.667 0 50 -4.5 70 -13.5
s36.667 -21 50 -36s23.166 -32.167 29.499 -51.5s9.5 -39.666 9.5 -60.999c0 -26.667 -3.66699 -51.5 -11 -74.5s-18.5 -43 -33.5 -60s-34.333 -30.5 -58 -40.5s-51.5 -15 -83.5 -15h-1v0zM84.999 136.997l164 27v1193l-162 31v134h1101l23 -347h-171l-73 194l-398 20v-542
l260 4l30 168h173v-491h-173l-30 168l-260 5v-548l479 23l123 264l171 -39l-58 -401h-1199v137z" />
    <glyph glyph-name="edotaccent" unicode="&#x117;" horiz-adv-x="1123" 
d="M70 569c0 92.667 13.1699 176 39.5029 250s63.5 136.833 111.5 188.5s105.667 91.167 173 118.5s142 41 224 41c276.667 0 421 -135 433 -405c1.33301 -46 1.16602 -87.5 -0.500977 -124.5s-5.16699 -68.167 -10.5 -93.5h-652c3.33301 -66 13 -122.333 29 -169
s37 -84.667 63 -114s56.833 -50.666 92.5 -63.999s74.834 -20 117.501 -20c33.333 0 64.666 2.66699 93.999 8s56.5 12 81.5 20s47.5 17 67.5 27s37.667 19.667 53 29l52 -121c-16.667 -17.333 -39.834 -35.5 -69.501 -54.5s-63.667 -36.5 -102 -52.5
s-79.666 -29.333 -123.999 -40s-89.5 -16 -135.5 -16c-94 0 -174.833 14.667 -242.5 44s-123.334 70.166 -167.001 122.499s-75.834 114.833 -96.501 187.5s-31 152 -31 238zM745.003 679c0 3.33301 0.166992 8 0.5 14s0.666016 12.333 0.999023 19s0.5 12.834 0.5 18.501
v13.5c0 34 -2.33301 68.333 -7 103s-13.167 65.667 -25.5 93s-29.333 49.666 -51 66.999s-49.5 26 -83.5 26c-25.333 0 -49.166 -4.83301 -71.499 -14.5s-42 -27.5 -59 -53.5s-31 -62 -42 -108s-17.833 -105.333 -20.5 -178h358zM574.003 1334
c-23.333 0 -44.167 4.33203 -62.5 12.999s-33.666 20.167 -45.999 34.5s-21.666 31.333 -27.999 51s-9.5 40.5 -9.5 62.5c0 26 3.5 50.5 10.5 73.5s17.833 43.167 32.5 60.5s32.667 31 54 41s46.666 15 75.999 15h1c26.667 0 50 -4.5 70 -13.5s36.667 -21 50 -36
s23.166 -32.167 29.499 -51.5s9.5 -39.666 9.5 -60.999c0 -26.667 -3.66699 -51.5 -11 -74.5s-18.5 -43 -33.5 -60s-34.333 -30.333 -58 -40s-51.5 -14.5 -83.5 -14.5h-1v0z" />
    <glyph glyph-name="Eogonek" unicode="&#x118;" horiz-adv-x="1379" 
d="M85 137l164.004 27.001v1193l-162 31v134h1101l23 -347h-171l-73 194l-398 20v-542l260 4l30 168h173v-491h-173l-30 168l-260 5v-548l479 23l123 264l171 -39l-58 -401h-62c-34.667 -9.33301 -66.334 -22.666 -95.001 -39.999s-53.334 -36.5 -74.001 -57.5
s-36.667 -42.333 -48 -64s-17 -41.834 -17 -60.501c0 -36 12.333 -63.167 37 -81.5s57.667 -27.5 99 -27.5c23.333 0 44.166 1.83301 62.499 5.5s38.833 10.167 61.5 19.5v-139c-14 -10.667 -30.833 -20.167 -50.5 -28.5s-40.5 -15.5 -62.5 -21.5s-44.5 -10.5 -67.5 -13.5
s-44.833 -4.5 -65.5 -4.5c-32 0 -64.167 3.66699 -96.5 11s-61.333 19.166 -87 35.499s-46.667 37.333 -63 63s-24.5 56.834 -24.5 93.501c0 27.333 6.5 55.666 19.5 84.999s31.667 58 56 86s54.166 54 89.499 78s75.333 44.333 120 61h-931v137z" />
    <glyph glyph-name="eogonek" unicode="&#x119;" horiz-adv-x="1123" 
d="M471 -304c0 26 5.00098 52.1621 15.001 78.4951s23.833 52 41.5 77s38.834 48.5 63.501 70.5s51.667 41.667 81 59c-11.333 -1.33301 -22.166 -2.33301 -32.499 -3s-21.166 -1 -32.499 -1c-94 0 -174.833 14.667 -242.5 44s-123.334 70.166 -167.001 122.499
s-75.834 114.833 -96.501 187.5s-31 152 -31 238c0 92.667 13.167 176 39.5 250s63.5 136.833 111.5 188.5s105.667 91.167 173 118.5s142 41 224 41c276.667 0 421 -135 433 -405c1.33301 -46 1.16602 -87.5 -0.500977 -124.5s-5.16699 -68.167 -10.5 -93.5h-652
c3.33301 -66 13 -122.333 29 -169s37 -84.667 63 -114s56.833 -50.666 92.5 -63.999s74.834 -20 117.501 -20c33.333 0 64.666 2.66699 93.999 8s56.5 12 81.5 20s47.5 17 67.5 27s37.667 19.667 53 29l52 -121c-10.667 -11.333 -23.834 -22.666 -39.501 -33.999
s-33.167 -22.666 -52.5 -33.999c-32.667 -25.333 -62.334 -49.333 -89.001 -72s-49.667 -45 -69 -67s-34.333 -44.333 -45 -67s-16 -46.334 -16 -71.001c0 -37.333 13.667 -67.666 41 -90.999s62.666 -35 105.999 -35c23.333 0 43.333 1.5 60 4.5s35.667 8.83301 57 17.5
v-139c-14 -10 -30.333 -19.167 -49 -27.5s-38.667 -15.166 -60 -20.499s-43.166 -9.5 -65.499 -12.5s-43.833 -4.5 -64.5 -4.5c-33.333 0 -66.666 3.83301 -99.999 11.5s-63.333 19.834 -90 36.501s-48.5 38.334 -65.5 65.001s-25.5 58.667 -25.5 96zM745.001 678.995
c0 3.33301 0.166992 8 0.5 14s0.666016 12.333 0.999023 19s0.5 12.834 0.5 18.501v13.5c0 34 -2.33301 68.333 -7 103s-13.167 65.667 -25.5 93s-29.333 49.666 -51 66.999s-49.5 26 -83.5 26c-25.333 0 -49.166 -4.83301 -71.499 -14.5s-42 -27.5 -59 -53.5
s-31 -62 -42 -108s-17.833 -105.333 -20.5 -178h358z" />
    <glyph glyph-name="Ecaron" unicode="&#x11a;" horiz-adv-x="1379" 
d="M322 1927l109 87l266 -191l279 191l105 -85l-284 -301h-201zM85 137l164 27v1193l-162 31v134h1101l23 -347h-171l-73 194l-398 20v-542l260 4l30 168h173v-491h-173l-30 168l-260 5v-548l479 23l123 264l171 -39l-58 -401h-1199v137z" />
    <glyph glyph-name="ecaron" unicode="&#x11b;" horiz-adv-x="1123" 
d="M209 1716l105 85l291 -244l294 245l103 -85l-300 -400h-195zM70 569c0 92.667 13.1699 176 39.5029 250s63.5 136.833 111.5 188.5s105.667 91.167 173 118.5s142 41 224 41c276.667 0 421 -135 433 -405c1.33301 -46 1.16602 -87.5 -0.500977 -124.5
s-5.16699 -68.167 -10.5 -93.5h-652c3.33301 -66 13 -122.333 29 -169s37 -84.667 63 -114s56.833 -50.666 92.5 -63.999s74.834 -20 117.501 -20c33.333 0 64.666 2.66699 93.999 8s56.5 12 81.5 20s47.5 17 67.5 27s37.667 19.667 53 29l52 -121
c-16.667 -17.333 -39.834 -35.5 -69.501 -54.5s-63.667 -36.5 -102 -52.5s-79.666 -29.333 -123.999 -40s-89.5 -16 -135.5 -16c-94 0 -174.833 14.667 -242.5 44s-123.334 70.166 -167.001 122.499s-75.834 114.833 -96.501 187.5s-31 152 -31 238zM745.003 679
c0 3.33301 0.166992 8 0.5 14s0.666016 12.333 0.999023 19s0.5 12.834 0.5 18.501v13.5c0 34 -2.33301 68.333 -7 103s-13.167 65.667 -25.5 93s-29.333 49.666 -51 66.999s-49.5 26 -83.5 26c-25.333 0 -49.166 -4.83301 -71.499 -14.5s-42 -27.5 -59 -53.5
s-31 -62 -42 -108s-17.833 -105.333 -20.5 -178h358z" />
    <glyph glyph-name="Gcircumflex" unicode="&#x11c;" horiz-adv-x="1556" 
d="M81 739c0 125.333 20.4941 237.501 61.4941 336.501s97.667 183 170 252s157.833 121.833 256.5 158.5s205.667 55 321 55c54.667 0 108.667 -2.5 162 -7.5s102.833 -11 148.5 -18s86.167 -14.167 121.5 -21.5l80 -17l-23 -386h-216l-60 251
c-7.33301 6.66699 -16.166 13.5 -26.499 20.5s-24.166 13.5 -41.499 19.5s-39 11 -65 15s-58 6 -96 6c-64.667 0 -123.667 -12.333 -177 -37s-99 -62.334 -137 -113.001s-67.5 -114.334 -88.5 -191.001s-31.5 -167 -31.5 -271c0 -58.667 3.5 -116 10.5 -172
s17.833 -108.833 32.5 -158.5s33.334 -95.5 56.001 -137.5s49.167 -78.167 79.5 -108.5s64.833 -54 103.5 -71s81.667 -25.5 129 -25.5c56.667 0 106.834 6.33301 150.501 19s76.167 30 97.5 52v414l-196 23v164h620v-164l-105 -19v-525
c-27.333 -1.33301 -60.666 -7.5 -99.999 -18.5l-134.5 -36c-50.333 -13 -105.666 -24.667 -165.999 -35s-125.5 -15.5 -195.5 -15.5c-118 0 -223 18.833 -315 56.5s-169.5 90.334 -232.5 158.001s-111 148 -144 241s-49.5 195.167 -49.5 306.5zM460.994 1701l293 313h200
l294 -312l-108 -86l-286 197l-288 -197z" />
    <glyph glyph-name="gcircumflex" unicode="&#x11d;" horiz-adv-x="1287" 
d="M222 1391l302 400h194l300 -399l-108 -85l-289 244l-298 -245zM81 -220c0 30.667 5.66602 59.5 16.999 86.5s26.333 51.667 45 74s40.334 41.833 65.001 58.5s50.667 29.667 78 39c-38.667 20 -68.334 45.333 -89.001 76s-31 66.667 -31 108c0 25.333 3.5 48.5 10.5 69.5
s16.833 40.5 29.5 58.5s27.667 34.667 45 50s36.333 29.666 57 42.999c-68 30.667 -118.167 74 -150.5 130s-48.5 122.667 -48.5 200c0 60 13.5 114.333 40.5 163s63.667 90.167 110 124.5s100.666 60.833 162.999 79.5s128.833 28 199.5 28h1
c166.667 0 290.334 -32 371.001 -96c9.33301 10.667 22 22 38 34s34.333 22.667 55 32s43.667 17.166 69 23.499s52 9.5 80 9.5h47v-224h-197c7.33301 -21.333 13.166 -43.666 17.499 -66.999s6.5 -48.666 6.5 -75.999c0 -60 -12.5 -115.167 -37.5 -165.5
s-60.333 -93.833 -106 -130.5s-100.167 -65.334 -163.5 -86.001s-133 -31 -209 -31h-1c-55.333 0 -106 4 -152 12c-11.333 -11.333 -20.666 -24.5 -27.999 -39.5s-11 -32.5 -11 -52.5c0 -23.333 4.33301 -42 13 -56s22.334 -24.833 41.001 -32.5s42.5 -12.834 71.5 -15.501
s63.833 -4 104.5 -4h200c72 0 134.667 -5.83301 188 -17.5s97.833 -30.167 133.5 -55.5s62.167 -57.666 79.5 -96.999s26 -86.666 26 -141.999c0 -67.333 -17.5 -128.333 -52.5 -183s-82.167 -101.167 -141.5 -139.5s-128 -68 -206 -89s-159.667 -31.5 -245 -31.5h-1
c-94 0 -174.667 8.33301 -242 25s-122.5 39.667 -165.5 69s-74.5 64.333 -94.5 105s-30 85 -30 133zM617.999 524c34 0 62.167 6.83301 84.5 20.5s39.833 32.167 52.5 55.5s21.5 51 26.5 83s7.5 66 7.5 102c0 88 -14.167 151.833 -42.5 191.5s-74.833 59.5 -139.5 59.5h-1
c-63.333 0 -109 -20 -137 -60s-42 -101 -42 -183c0 -40 3 -76.5 9 -109.5s16.333 -61.333 31 -85s34.167 -42 58.5 -55s54.833 -19.5 91.5 -19.5h1zM366.999 -159c0 -44.667 6 -82.498 18 -113.498s29.667 -56.333 53 -76s52.166 -33.834 86.499 -42.501
s74.166 -13 119.499 -13h2c40.667 0 80.334 4.66699 119.001 14s73.167 23.5 103.5 42.5s54.666 42.833 72.999 71.5s27.5 62 27.5 100c0 29.333 -3.16699 54.333 -9.5 75s-17.666 37.5 -33.999 50.5s-38.666 22.5 -66.999 28.5s-64.5 9 -108.5 9h-208
c-43.333 0 -83.333 3 -120 9c-13.333 -14.667 -25.833 -33.834 -37.5 -57.501s-17.5 -56.167 -17.5 -97.5z" />
    <glyph glyph-name="Gbreve" unicode="&#x11e;" horiz-adv-x="1556" 
d="M859 1621c-62 0 -116.169 9.33203 -162.502 27.999s-85 43.667 -116 75s-54.167 67.5 -69.5 108.5s-23 83.5 -23 127.5c0 14.667 1 29.667 3 45h151c0 -2.66699 0.166992 -5.83398 0.5 -9.50098s0.833008 -8.16699 1.5 -13.5c2.66699 -14 7.83398 -30.167 15.501 -48.5
s19.667 -35.666 36 -51.999s37.833 -30.333 64.5 -42s60.334 -17.5 101.001 -17.5s74 5.83301 100 17.5s46.667 25.834 62 42.501s26.333 34.167 33 52.5s11 34.166 13 47.499c0.666992 5.33301 1 9.83301 1 13.5v9.5h153c0.666992 -7.33301 1.16699 -14.5 1.5 -21.5
s0.5 -14.167 0.5 -21.5c0 -44 -7.83301 -86.667 -23.5 -128s-39 -77.666 -70 -108.999s-69.333 -56.5 -115 -75.5s-98.167 -28.5 -157.5 -28.5zM80.998 738.999c0 125.333 20.4941 237.501 61.4941 336.501s97.667 183 170 252s157.833 121.833 256.5 158.5
s205.667 55 321 55c54.667 0 108.667 -2.5 162 -7.5s102.833 -11 148.5 -18s86.167 -14.167 121.5 -21.5l80 -17l-23 -386h-216l-60 251c-7.33301 6.66699 -16.166 13.5 -26.499 20.5s-24.166 13.5 -41.499 19.5s-39 11 -65 15s-58 6 -96 6
c-64.667 0 -123.667 -12.333 -177 -37s-99 -62.334 -137 -113.001s-67.5 -114.334 -88.5 -191.001s-31.5 -167 -31.5 -271c0 -58.667 3.5 -116 10.5 -172s17.833 -108.833 32.5 -158.5s33.334 -95.5 56.001 -137.5s49.167 -78.167 79.5 -108.5s64.833 -54 103.5 -71
s81.667 -25.5 129 -25.5c56.667 0 106.834 6.33301 150.501 19s76.167 30 97.5 52v414l-196 23v164h620v-164l-105 -19v-525c-27.333 -1.33301 -60.666 -7.5 -99.999 -18.5l-134.5 -36c-50.333 -13 -105.666 -24.667 -165.999 -35s-125.5 -15.5 -195.5 -15.5
c-118 0 -223 18.833 -315 56.5s-169.5 90.334 -232.5 158.001s-111 148 -144 241s-49.5 195.167 -49.5 306.5z" />
    <glyph glyph-name="gbreve" unicode="&#x11f;" horiz-adv-x="1287" 
d="M81 -220c0 30.667 5.66602 59.5 16.999 86.5s26.333 51.667 45 74s40.334 41.833 65.001 58.5s50.667 29.667 78 39c-38.667 20 -68.334 45.333 -89.001 76s-31 66.667 -31 108c0 25.333 3.5 48.5 10.5 69.5s16.833 40.5 29.5 58.5s27.667 34.667 45 50
s36.333 29.666 57 42.999c-68 30.667 -118.167 74 -150.5 130s-48.5 122.667 -48.5 200c0 60 13.5 114.333 40.5 163s63.667 90.167 110 124.5s100.666 60.833 162.999 79.5s128.833 28 199.5 28h1c166.667 0 290.334 -32 371.001 -96c9.33301 10.667 22 22 38 34
s34.333 22.667 55 32s43.667 17.166 69 23.499s52 9.5 80 9.5h47v-224h-197c7.33301 -21.333 13.166 -43.666 17.499 -66.999s6.5 -48.666 6.5 -75.999c0 -60 -12.5 -115.167 -37.5 -165.5s-60.333 -93.833 -106 -130.5s-100.167 -65.334 -163.5 -86.001s-133 -31 -209 -31
h-1c-55.333 0 -106 4 -152 12c-11.333 -11.333 -20.666 -24.5 -27.999 -39.5s-11 -32.5 -11 -52.5c0 -23.333 4.33301 -42 13 -56s22.334 -24.833 41.001 -32.5s42.5 -12.834 71.5 -15.501s63.833 -4 104.5 -4h200c72 0 134.667 -5.83301 188 -17.5
s97.833 -30.167 133.5 -55.5s62.167 -57.666 79.5 -96.999s26 -86.666 26 -141.999c0 -67.333 -17.5 -128.333 -52.5 -183s-82.167 -101.167 -141.5 -139.5s-128 -68 -206 -89s-159.667 -31.5 -245 -31.5h-1c-94 0 -174.667 8.33301 -242 25s-122.5 39.667 -165.5 69
s-74.5 64.333 -94.5 105s-30 85 -30 133zM617.999 524c34 0 62.167 6.83301 84.5 20.5s39.833 32.167 52.5 55.5s21.5 51 26.5 83s7.5 66 7.5 102c0 88 -14.167 151.833 -42.5 191.5s-74.833 59.5 -139.5 59.5h-1c-63.333 0 -109 -20 -137 -60s-42 -101 -42 -183
c0 -40 3 -76.5 9 -109.5s16.333 -61.333 31 -85s34.167 -42 58.5 -55s54.833 -19.5 91.5 -19.5h1zM366.999 -159c0 -44.667 6 -82.498 18 -113.498s29.667 -56.333 53 -76s52.166 -33.834 86.499 -42.501s74.166 -13 119.499 -13h2c40.667 0 80.334 4.66699 119.001 14
s73.167 23.5 103.5 42.5s54.666 42.833 72.999 71.5s27.5 62 27.5 100c0 29.333 -3.16699 54.333 -9.5 75s-17.666 37.5 -33.999 50.5s-38.666 22.5 -66.999 28.5s-64.5 9 -108.5 9h-208c-43.333 0 -83.333 3 -120 9c-13.333 -14.667 -25.833 -33.834 -37.5 -57.501
s-17.5 -56.167 -17.5 -97.5zM621.999 1332c-54 0 -103.331 9.00195 -147.998 27.002s-83 42.667 -115 74s-56.833 67.833 -74.5 109.5s-26.5 86.167 -26.5 133.5c0 14 0.166992 29.667 0.5 47s1.16602 30.666 2.49902 39.999h146c0 -5.33301 0.333008 -11.666 1 -18.999
s1.66699 -15 3 -23c2.66699 -18.667 8.16699 -38.334 16.5 -59.001s20.666 -39.5 36.999 -56.5s37.5 -31 63.5 -42s58 -16.5 96 -16.5s69.5 5.5 94.5 16.5s45.5 25 61.5 42s27.833 35.667 35.5 56s12.834 39.833 15.501 58.5c1.33301 8.66699 2.33301 16.667 3 24
s1 13.666 1 18.999h141c0.666992 -4.66699 1.16699 -10.5 1.5 -17.5s0.666016 -14.5 0.999023 -22.5l1 -24c0.333008 -8 0.5 -15.333 0.5 -22c0 -47.333 -9 -92 -27 -134s-43 -78.667 -75 -110s-69.833 -56 -113.5 -74s-91.167 -27 -142.5 -27z" />
    <glyph glyph-name="Gdotaccent" unicode="&#x120;" horiz-adv-x="1556" 
d="M836 1647c-23.333 0 -44.167 4.33008 -62.5 12.9971s-33.666 20.334 -45.999 35.001s-21.666 31.834 -27.999 51.501s-9.5 40.5 -9.5 62.5c0 26 3.5 50.5 10.5 73.5s17.833 43.167 32.5 60.5s32.667 31 54 41s46.666 15 75.999 15h1c26.667 0 50 -4.5 70 -13.5
s36.667 -21 50 -36s23.166 -32.167 29.499 -51.5s9.5 -39.666 9.5 -60.999c0 -26.667 -3.66699 -51.5 -11 -74.5s-18.5 -43 -33.5 -60s-34.333 -30.5 -58 -40.5s-51.5 -15 -83.5 -15h-1v0zM80.999 738.997c0 125.333 20.4941 237.501 61.4941 336.501s97.667 183 170 252
s157.833 121.833 256.5 158.5s205.667 55 321 55c54.667 0 108.667 -2.5 162 -7.5s102.833 -11 148.5 -18s86.167 -14.167 121.5 -21.5l80 -17l-23 -386h-216l-60 251c-7.33301 6.66699 -16.166 13.5 -26.499 20.5s-24.166 13.5 -41.499 19.5s-39 11 -65 15s-58 6 -96 6
c-64.667 0 -123.667 -12.333 -177 -37s-99 -62.334 -137 -113.001s-67.5 -114.334 -88.5 -191.001s-31.5 -167 -31.5 -271c0 -58.667 3.5 -116 10.5 -172s17.833 -108.833 32.5 -158.5s33.334 -95.5 56.001 -137.5s49.167 -78.167 79.5 -108.5s64.833 -54 103.5 -71
s81.667 -25.5 129 -25.5c56.667 0 106.834 6.33301 150.501 19s76.167 30 97.5 52v414l-196 23v164h620v-164l-105 -19v-525c-27.333 -1.33301 -60.666 -7.5 -99.999 -18.5l-134.5 -36c-50.333 -13 -105.666 -24.667 -165.999 -35s-125.5 -15.5 -195.5 -15.5
c-118 0 -223 18.833 -315 56.5s-169.5 90.334 -232.5 158.001s-111 148 -144 241s-49.5 195.167 -49.5 306.5z" />
    </font>
</defs>
</svg>
